<svg width="7" height="7" viewBox="0 0 7 7" fill="none" xmlns="http://www.w3.org/2000/svg">
<path d="M0.111678 0.637315L5.445 5.97017H1.49503C1.39607 5.97017 1.30117 6.00948 1.23119 6.07946C1.16122 6.14943 1.12191 6.24434 1.12191 6.3433C1.12191 6.44225 1.16122 6.53716 1.23119 6.60713C1.30117 6.67711 1.39607 6.71642 1.49503 6.71642H6.34563C6.44459 6.71642 6.53949 6.67711 6.60946 6.60713C6.67944 6.53716 6.71875 6.44225 6.71875 6.3433V1.4927C6.71875 1.39374 6.67944 1.29884 6.60946 1.22886C6.53949 1.15889 6.44459 1.11958 6.34563 1.11958C6.24667 1.11958 6.15176 1.15889 6.08179 1.22886C6.01182 1.29884 5.9725 1.39374 5.9725 1.4927V5.44267L0.639647 0.109346C0.60498 0.074679 0.563824 0.0471797 0.51853 0.0284181C0.473236 0.00965648 0.424689 0 0.375663 0C0.326636 0 0.27809 0.00965648 0.232795 0.0284181C0.187501 0.0471797 0.146345 0.074679 0.111678 0.109346C0.0770111 0.144013 0.0495124 0.185168 0.0307508 0.230463C0.0119891 0.275757 0.00233221 0.324304 0.00233221 0.37333C0.00233221 0.422357 0.0119891 0.470903 0.0307508 0.516198C0.0495124 0.561492 0.0770111 0.602648 0.111678 0.637315Z" fill="white"/>
</svg>
