<svg width="15" height="15" viewBox="0 0 15 15" fill="none" xmlns="http://www.w3.org/2000/svg">
<g clip-path="url(#clip0_1233_992)">
<path d="M10 6.58125C9.81875 6.4 9.51875 6.4 9.3375 6.58125L6.61875 9.3L5.625 8.30625C5.44375 8.125 5.14375 8.125 4.9625 8.30625C4.78125 8.4875 4.78125 8.7875 4.9625 8.96875L6.175 10.1813C6.41875 10.425 6.8125 10.425 7.05625 10.1813L9.99375 7.24375C10.1812 7.0625 10.1812 6.7625 10 6.58125ZM11.875 1.875H11.25V1.25C11.25 0.90625 10.9688 0.625 10.625 0.625C10.2812 0.625 10 0.90625 10 1.25V1.875H5V1.25C5 0.90625 4.71875 0.625 4.375 0.625C4.03125 0.625 3.75 0.90625 3.75 1.25V1.875H3.125C2.43125 1.875 1.88125 2.4375 1.88125 3.125L1.875 11.875C1.875 12.5625 2.43125 13.125 3.125 13.125H11.875C12.5625 13.125 13.125 12.5625 13.125 11.875V3.125C13.125 2.4375 12.5625 1.875 11.875 1.875ZM11.25 11.875H3.75C3.40625 11.875 3.125 11.5938 3.125 11.25V5H11.875V11.25C11.875 11.5938 11.5938 11.875 11.25 11.875Z" fill="#134E26"/>
</g>
<defs>
<clipPath id="clip0_1233_992">
<rect width="15" height="15" fill="white"/>
</clipPath>
</defs>
</svg>
