<svg width="15" height="15" viewBox="0 0 15 15" fill="none" xmlns="http://www.w3.org/2000/svg">
<g clip-path="url(#clip0_1233_913)">
<path d="M8.74956 5H9.99956V6.25C9.99956 6.59375 10.2808 6.875 10.6246 6.875C10.9683 6.875 11.2496 6.59375 11.2496 6.25V5H12.4996C12.8433 5 13.1246 4.71875 13.1246 4.375C13.1246 4.03125 12.8433 3.75 12.4996 3.75H11.2496V2.5C11.2496 2.15625 10.9683 1.875 10.6246 1.875C10.2808 1.875 9.99956 2.15625 9.99956 2.5V3.75H8.74956C8.40581 3.75 8.12456 4.03125 8.12456 4.375C8.12456 4.71875 8.40581 5 8.74956 5ZM12.0058 9.54375L10.4183 9.3625C10.0371 9.31875 9.66206 9.45 9.39331 9.71875L8.24331 10.8687C6.47456 9.96875 5.02456 8.525 4.12456 6.75L5.28081 5.59375C5.54956 5.325 5.68081 4.94375 5.63706 4.56875L5.45581 2.99375C5.38706 2.3625 4.84956 1.88125 4.21831 1.88125H3.13706C2.43081 1.88125 1.84331 2.46875 1.88706 3.175C2.21831 8.5125 6.48706 12.775 11.8183 13.1062C12.5246 13.15 13.1121 12.5625 13.1121 11.8562V10.775C13.1183 10.15 12.6371 9.6125 12.0058 9.54375Z" fill="#134E26"/>
</g>
<defs>
<clipPath id="clip0_1233_913">
<rect width="15" height="15" fill="white"/>
</clipPath>
</defs>
</svg>
