<?xml version="1.0" encoding="UTF-8" standalone="no"?>
<svg
   width="30"
   height="30"
   viewBox="0 0 30 30"
   fill="none"
   version="1.1"
   id="svg2"
   sodipodi:docname="plus.svg"
   inkscape:version="1.3.2 (091e20e, 2023-11-25, custom)"
   xmlns:inkscape="http://www.inkscape.org/namespaces/inkscape"
   xmlns:sodipodi="http://sodipodi.sourceforge.net/DTD/sodipodi-0.dtd"
   xmlns="http://www.w3.org/2000/svg"
   xmlns:svg="http://www.w3.org/2000/svg">
  <defs
     id="defs2" />
  <sodipodi:namedview
     id="namedview2"
     pagecolor="#ffffff"
     bordercolor="#cccccc"
     borderopacity="1"
     inkscape:showpageshadow="0"
     inkscape:pageopacity="1"
     inkscape:pagecheckerboard="0"
     inkscape:deskcolor="#d1d1d1"
     inkscape:zoom="39.366667"
     inkscape:cx="14.987299"
     inkscape:cy="15"
     inkscape:window-width="3440"
     inkscape:window-height="1377"
     inkscape:window-x="-8"
     inkscape:window-y="-8"
     inkscape:window-maximized="1"
     inkscape:current-layer="svg2" />
  <path
     style="color:#000000;fill:#33302a;stroke-linecap:round;stroke-linejoin:round;-inkscape-stroke:none"
     d="m 1.25,14 a 1,1 0 0 0 -1,1 1,1 0 0 0 1,1 h 27.5 a 1,1 0 0 0 1,-1 1,1 0 0 0 -1,-1 z"
     id="path1" />
  <path
     style="color:#000000;fill:#33302a;stroke-linecap:round;stroke-linejoin:round;-inkscape-stroke:none"
     d="m 15,0.25 a 1,1 0 0 0 -1,1 v 27.5 a 1,1 0 0 0 1,1 1,1 0 0 0 1,-1 V 1.25 a 1,1 0 0 0 -1,-1 z"
     id="path2" />
</svg>
