<svg width="16" height="16" viewBox="0 0 16 16" fill="none" xmlns="http://www.w3.org/2000/svg">
<path d="M12.3563 8.00003C12.3563 10.4021 10.4021 12.3564 8 12.3564C6.36225 12.3564 4.878 11.4516 4.12647 9.99516C3.81062 9.38294 3.64366 8.69303 3.64366 8C3.64366 5.59791 5.59791 3.64366 8 3.64366C8.55231 3.64366 9.09209 3.74741 9.59491 3.94516L9.35272 3.33309C9.25112 3.07631 9.37691 2.78578 9.63369 2.68419C9.89062 2.58272 10.181 2.70841 10.2826 2.96516L11.0808 4.98266C11.1824 5.23944 11.0566 5.52997 10.7998 5.63156L8.78238 6.42978C8.722 6.45366 8.65975 6.46497 8.59856 6.46497C8.39944 6.46497 8.21119 6.34519 8.13347 6.14881C8.03187 5.89203 8.15766 5.6015 8.41444 5.49991L9.58062 5.0385C9.09866 4.78084 8.55759 4.64366 7.99997 4.64366C6.14925 4.64366 4.64362 6.14931 4.64362 8C4.64362 8.54184 4.76862 9.05884 5.01512 9.53662C5.59431 10.6591 6.73806 11.3563 8 11.3563C9.85072 11.3563 11.3563 9.85069 11.3563 8C11.3563 7.72384 11.5802 7.5 11.8563 7.5C12.1325 7.5 12.3563 7.72388 12.3563 8.00003ZM16 8.00003C16 12.4113 12.4112 16.0001 8 16.0001C3.58878 16.0001 0 12.4113 0 8.00003C0 3.58881 3.58878 0 8 0C12.4112 0 16 3.58881 16 8.00003ZM15 8.00003C15 4.14019 11.8598 1 8 1C4.14019 1 1 4.14019 1 8.00003C1 11.8599 4.14019 15.0001 8 15.0001C11.8598 15.0001 15 11.8599 15 8.00003Z" fill="#134E26"/>
</svg>
