<svg width="20" height="18" viewBox="0 0 20 18" fill="none" xmlns="http://www.w3.org/2000/svg">
<path fill-rule="evenodd" clip-rule="evenodd" d="M15.7143 0.522193C16.6589 0.283346 17.6431 0.229589 18.4638 0.882389C19.2844 1.53519 19.4534 2.50626 19.4331 3.48034C19.4133 4.43321 19.2028 5.67503 18.9466 7.18622L18.1299 12.005C17.905 13.3318 17.7182 14.4342 17.4517 15.2517C17.175 16.1005 16.7382 16.8813 15.8511 17.2555C14.964 17.6296 14.1 17.3974 13.299 17.0032C12.5275 16.6235 11.6077 15.988 10.5006 15.223L8.15529 13.6026C8.01852 13.5081 6.81982 12.7085 7.77759 11.5827C10.0745 8.88281 13.8745 6.18281 13.3745 5.68281C12.8745 5.18281 8.07446 9.38281 5.07446 11.1828C4.07446 11.7828 3.57446 12.0677 2.44716 11.5827C1.41693 11.1394 0.403962 10.5253 0.184998 9.40194C0.132953 9.13492 0.117987 8.862 0.140523 8.59089C0.235337 7.4503 1.17508 6.72914 2.15067 6.17588C3.17386 5.59562 4.65646 4.97795 6.51876 4.20209L12.2128 1.8298C13.6277 1.24028 14.7903 0.755842 15.7143 0.522193Z" fill="#1D552F"/>
</svg>
