<svg width="18" height="18" viewBox="0 0 18 18" fill="none" xmlns="http://www.w3.org/2000/svg">
<g clip-path="url(#clip0_1233_960)">
<path d="M8.25 12.75C8.25 13.1625 8.5875 13.5 9 13.5C9.4125 13.5 9.75 13.1625 9.75 12.75C9.75 12.3375 9.4125 12 9 12C8.5875 12 8.25 12.3375 8.25 12.75ZM8.25 2.25V5.25H9.75V3.81C12.2925 4.1775 14.25 6.3525 14.25 9C14.25 11.9025 11.9025 14.25 9 14.25C6.0975 14.25 3.75 11.9025 3.75 9C3.75 7.74 4.1925 6.585 4.935 5.685L9 9.75L10.0575 8.6925L4.9575 3.5925V3.6075C3.315 4.8375 2.25 6.7875 2.25 9C2.25 12.7275 5.265 15.75 9 15.75C12.7275 15.75 15.75 12.7275 15.75 9C15.75 5.2725 12.7275 2.25 9 2.25H8.25ZM13.5 9C13.5 8.5875 13.1625 8.25 12.75 8.25C12.3375 8.25 12 8.5875 12 9C12 9.4125 12.3375 9.75 12.75 9.75C13.1625 9.75 13.5 9.4125 13.5 9ZM4.5 9C4.5 9.4125 4.8375 9.75 5.25 9.75C5.6625 9.75 6 9.4125 6 9C6 8.5875 5.6625 8.25 5.25 8.25C4.8375 8.25 4.5 8.5875 4.5 9Z" fill="#134E26"/>
</g>
<defs>
<clipPath id="clip0_1233_960">
<rect width="18" height="18" fill="white"/>
</clipPath>
</defs>
</svg>
