<svg width="20" height="20" viewBox="0 0 20 20" fill="none" xmlns="http://www.w3.org/2000/svg">
<path d="M10.0019 0.499905C11.6717 0.499901 13.3657 0.432186 15.0243 0.655178C16.2242 0.816523 17.2346 1.16153 18.037 1.96377C18.8396 2.76633 19.1852 3.7773 19.3466 4.97744C19.5696 6.63607 19.5019 8.33005 19.5019 9.9999C19.5019 11.6697 19.5696 13.3638 19.3466 15.0224C19.1852 16.2224 18.8395 17.2326 18.037 18.0351C17.2345 18.8376 16.2244 19.1833 15.0243 19.3446C13.3657 19.5676 11.6717 19.4999 10.0019 19.4999C8.33201 19.4999 6.63802 19.5676 4.9794 19.3446C3.77925 19.1833 2.76828 18.8376 1.96573 18.0351C1.16348 17.2326 0.818476 16.2222 0.657131 15.0224C0.434139 13.3638 0.501855 11.6697 0.501858 9.9999C0.501858 8.33005 0.434134 6.63608 0.657131 4.97744C0.818487 3.7773 1.16317 2.76633 1.96573 1.96377C2.76828 1.16122 3.77926 0.816534 4.9794 0.655178C6.63803 0.432181 8.332 0.499905 10.0019 0.499905ZM15.0546 6.66787C14.5951 6.36158 13.9742 6.48577 13.6679 6.94522C13.3137 7.41555 12.9429 7.86477 12.5087 8.26553C12.006 8.72945 11.4974 9.0769 11.0009 9.28311L10.9931 7.38369C10.9353 6.88635 10.5127 6.4999 9.9999 6.4999C9.45832 6.53115 8.99996 6.93123 8.9999 7.4999V11.873C7.05176 11.3334 5.9999 9.44352 5.9999 7.4999C5.99985 6.94767 5.55215 6.4999 4.9999 6.4999C4.44766 6.4999 3.99996 6.94767 3.9999 7.4999C3.9999 11.1318 6.50946 13.9999 9.9999 13.9999C10.5522 13.9999 10.9999 13.5522 10.9999 12.9999L11.0009 11.4364C12.3317 11.5433 13.6237 12.484 14.1054 13.4472C14.3524 13.9411 14.9532 14.1414 15.4472 13.8944C15.9411 13.6474 16.1414 13.0466 15.8944 12.5526C15.4161 11.5961 14.5234 10.7016 13.4257 10.1171C13.5738 9.99637 13.7212 9.869 13.8661 9.73526C14.5421 9.11126 15.0416 8.49004 15.3319 8.05459C15.6382 7.59507 15.5141 6.97421 15.0546 6.66787Z" fill="#144E27"/>
</svg>
