<?xml version="1.0" encoding="UTF-8" standalone="no"?>
<svg
   width="40"
   height="40"
   viewBox="0 0 40 40"
   fill="none"
   version="1.1"
   id="svg2"
   sodipodi:docname="whatsapp-outline.svg"
   inkscape:version="1.3.2 (091e20e, 2023-11-25, custom)"
   xmlns:inkscape="http://www.inkscape.org/namespaces/inkscape"
   xmlns:sodipodi="http://sodipodi.sourceforge.net/DTD/sodipodi-0.dtd"
   xmlns="http://www.w3.org/2000/svg"
   xmlns:svg="http://www.w3.org/2000/svg">
  <sodipodi:namedview
     id="namedview2"
     pagecolor="#ffffff"
     bordercolor="#cccccc"
     borderopacity="1"
     inkscape:showpageshadow="0"
     inkscape:pageopacity="1"
     inkscape:pagecheckerboard="0"
     inkscape:deskcolor="#d1d1d1"
     inkscape:zoom="29.525"
     inkscape:cx="19.983065"
     inkscape:cy="20"
     inkscape:window-width="3440"
     inkscape:window-height="1377"
     inkscape:window-x="-8"
     inkscape:window-y="-8"
     inkscape:window-maximized="1"
     inkscape:current-layer="svg2" />
  <path
     style="color:#000000;fill:#ffffff;stroke-linecap:round;stroke-linejoin:round;-inkscape-stroke:none"
     d="m 16.25,10.25 c -1.590935,0 -3.1173,0.632805 -4.242187,1.757813 C 10.882805,13.1327 10.25,14.659065 10.25,16.25 c 0,3.580037 1.421669,7.015419 3.953125,9.546875 C 16.734581,28.328331 20.169963,29.75 23.75,29.75 c 1.590935,0 3.1173,-0.632805 4.242187,-1.757813 C 29.117195,26.8673 29.75,25.340935 29.75,23.75 a 1.0001,1.0001 0 0 0 -0.552734,-0.894531 l -5,-2.5 a 1.0001,1.0001 0 0 0 -1.001954,0.0625 l -2.345703,1.564453 C 19.62191,21.356669 18.643331,20.37809 18.017578,19.150391 l 1.564453,-2.345704 a 1.0001,1.0001 0 0 0 0.0625,-1.001953 l -2.5,-5 A 1.0001,1.0001 0 0 0 16.25,10.25 Z m -0.5625,2.111328 1.908203,3.816406 -1.603515,2.402344 a 1.0001,1.0001 0 0 0 -0.08984,0.941406 c 0.86487,2.066584 2.509588,3.711302 4.576172,4.576172 a 1.0001,1.0001 0 0 0 0.941406,-0.08984 l 2.402344,-1.603515 3.816406,1.908203 c -0.123749,0.846928 -0.447955,1.653099 -1.060547,2.265625 C 25.827815,27.328515 24.811262,27.75 23.75,27.75 20.699644,27.75 17.77608,26.537798 15.619141,24.380859 13.462202,22.22392 12.25,19.300356 12.25,16.25 c 0,-1.061262 0.421485,-2.077815 1.171875,-2.828125 0.612526,-0.612592 1.418697,-0.936798 2.265625,-1.060547 z"
     id="path1" />
  <path
     style="color:#000000;fill:#ffffff;stroke-linecap:round;stroke-linejoin:round;-inkscape-stroke:none"
     d="M 21.044922,4.0371094 C 17.170285,3.7841759 13.335135,4.9490427 10.255859,7.3144531 7.1766059,9.6798787 5.0611516,13.085606 4.3066406,16.894531 3.5842245,20.541488 4.1900865,24.307487 5.9472656,27.572266 l -1.8300781,5.46289 a 1.0001,1.0001 0 0 0 0,0.002 c -0.1322374,0.396442 -0.1526614,0.821783 -0.056641,1.228516 0.095962,0.406739 0.304281,0.778836 0.5996093,1.074219 0.2954846,0.295538 0.6674877,0.501715 1.0742188,0.597656 0.406448,0.09587 0.8318833,0.07767 1.2285156,-0.05469 l 5.4707034,-1.824218 c 3.264788,1.757207 7.030787,2.363049 10.677734,1.640625 3.80891,-0.754508 7.214676,-2.869834 9.580078,-5.949219 2.365393,-3.079266 3.530233,-6.914341 3.277344,-10.789063 C 35.715753,15.086313 34.062051,11.435066 31.316406,8.6894531 28.570774,5.9438101 24.919651,4.2900419 21.044922,4.0371094 Z m -0.13086,1.9960937 c 3.390864,0.221347 6.585519,1.6675407 8.988282,4.0703129 2.40275,2.402721 3.848909,5.597512 4.070312,8.988281 0.22131,3.390871 -0.797184,6.744725 -2.867187,9.439453 -2.069994,2.694809 -5.04953,4.544787 -8.382813,5.205078 -3.333278,0.66029 -6.791479,0.08691 -9.732422,-1.615234 a 1.0001,1.0001 0 0 0 -0.818359,-0.08398 l -5.8417969,1.949219 c -0.043867,0.01464 -0.091247,0.01658 -0.1367187,0.0059 -0.045188,-0.01066 -0.086286,-0.03355 -0.1191407,-0.06641 -0.033011,-0.03302 -0.055728,-0.07388 -0.066406,-0.11914 -0.010639,-0.04507 -0.0088,-0.09276 0.00586,-0.136719 L 7.96875,27.833984 A 1.0001,1.0001 0 0 0 7.8847656,27.015625 C 6.1826474,24.074672 5.6092525,20.616472 6.2695312,17.283203 6.9298189,13.949936 8.7798687,10.970441 11.474609,8.9003906 14.169328,6.8303855 17.523307,5.8118571 20.914062,6.0332031 Z"
     id="path2" />
  <defs
     id="defs2">
    <clipPath
       clipPathUnits="userSpaceOnUse"
       id="clipPath3">
      <g
         id="g4">
        <rect
           width="40"
           height="40"
           fill="#ffffff"
           id="rect3"
           x="0"
           y="0" />
      </g>
    </clipPath>
    <clipPath
       clipPathUnits="userSpaceOnUse"
       id="clipPath4">
      <g
         id="g5">
        <rect
           width="40"
           height="40"
           fill="#ffffff"
           id="rect4"
           x="0"
           y="0" />
      </g>
    </clipPath>
  </defs>
</svg>
