<svg width="16" height="16" viewBox="0 0 16 16" fill="none" xmlns="http://www.w3.org/2000/svg">
<path fill-rule="evenodd" clip-rule="evenodd" d="M9.459 15.3588C7.67346 15.7125 5.82021 15.4048 4.2448 14.493L1.3237 15.4672C1.21358 15.5039 1.09541 15.5093 0.982424 15.4826C0.869442 15.4559 0.766119 15.3983 0.684035 15.3162C0.601951 15.2342 0.544349 15.1308 0.517686 15.0178C0.491023 14.9049 0.496353 14.7867 0.533077 14.6766L1.51042 11.7586C0.598636 10.1832 0.290906 8.32994 0.644604 6.54439C0.998303 4.75885 1.98929 3.16287 3.4328 2.05401C4.87631 0.945153 6.67382 0.399107 8.4902 0.517678C10.3066 0.636248 12.0178 1.41134 13.305 2.69845C14.5921 3.98555 15.3672 5.69682 15.4857 7.5132C15.6043 9.32958 15.0582 11.1271 13.9494 12.5706C12.8405 14.0141 11.2446 15.0051 9.459 15.3588ZM4.35723 4.35723C3.88839 4.82607 3.625 5.46196 3.625 6.125C3.625 7.7826 4.28348 9.37231 5.45558 10.5444C6.62769 11.7165 8.2174 12.375 9.875 12.375C10.538 12.375 11.1739 12.1116 11.6428 11.6428C12.1116 11.1739 12.375 10.538 12.375 9.875L9.875 8.625L8.43203 9.5875C7.51973 9.2057 6.7943 8.48027 6.4125 7.56797L7.375 6.125L6.125 3.625C5.46196 3.625 4.82607 3.88839 4.35723 4.35723Z" fill="#43D854"/>
</svg>
