<svg width="20" height="16" viewBox="0 0 20 16" fill="none" xmlns="http://www.w3.org/2000/svg">
<path fill-rule="evenodd" clip-rule="evenodd" d="M9.75 0C7.5357 0 5.17865 0.150962 3.50172 0.287046C1.78232 0.426579 0.403343 1.75606 0.235507 3.48524C0.115726 4.71932 0 6.28752 0 7.75C0 9.21248 0.115726 10.7807 0.235507 12.0148C0.403343 13.7439 1.78232 15.0734 3.50172 15.213C5.17865 15.349 7.5357 15.5 9.75 15.5C11.9643 15.5 14.3214 15.349 15.9983 15.213C17.7177 15.0734 19.0967 13.7439 19.2645 12.0148C19.3843 10.7807 19.5 9.21248 19.5 7.75C19.5 6.28752 19.3843 4.71932 19.2645 3.48524C19.0967 1.75606 17.7177 0.426578 15.9983 0.287046C14.3214 0.150962 11.9643 0 9.75 0ZM7.9465 4.87512C8.42853 4.59682 8.90369 4.85161 9.85401 5.3612C10.1209 5.5043 10.4057 5.66218 10.7052 5.8351C11.0073 6.00954 11.2887 6.17869 11.548 6.3395C12.4599 6.90525 12.9159 7.18812 12.9157 7.7448C12.9155 8.30148 12.4594 8.58399 11.5471 9.149C11.2883 9.30925 11.007 9.47817 10.7042 9.65297C10.403 9.82685 10.1175 9.98528 9.85056 10.1286C8.90298 10.6375 8.42919 10.892 7.94689 10.6138C7.4646 10.3356 7.44765 9.79774 7.41375 8.72206C7.40418 8.41826 7.39844 8.09158 7.39844 7.74492C7.39844 7.39945 7.40414 7.07382 7.41365 6.77091C7.44753 5.69258 7.46446 5.15342 7.9465 4.87512Z" fill="#1F5731"/>
</svg>
