<svg width="129" height="126" viewBox="0 0 129 126" fill="none" xmlns="http://www.w3.org/2000/svg">
<g clip-path="url(#clip0_1233_443)">
<path d="M10.9375 114.836C10.9586 115.602 11.9244 116.364 12.5865 115.657C14.109 114.027 15.3954 111.9 16.5678 110.001C17.192 108.986 18.6344 106.783 16.9811 106.038C16.7028 105.912 16.3359 106.219 16.4202 106.514C16.3696 106.581 16.3274 106.653 16.2979 106.733C16.1967 107.036 16.0196 107.28 15.8298 107.537C15.2014 108.392 14.4971 109.18 13.8223 109.997C12.7384 111.311 10.8911 112.995 10.9417 114.836H10.9375Z" fill="#D8E4C9"/>
<path d="M22.8349 109.438C22.5818 109.021 21.9619 108.895 21.6666 109.358C21.0003 110.402 20.4098 111.451 19.6591 112.449C18.7228 113.696 17.6643 115.005 17.4998 116.61C17.3606 117.983 19.1741 118.147 19.6971 117.061C20.4098 115.578 21.2238 114.167 22.0378 112.74C22.5354 111.864 23.4549 110.453 22.8349 109.438Z" fill="#D8E4C9"/>
<path d="M30.397 109.311C29.1823 112.436 26.635 114.9 25.7957 118.18C25.5511 119.141 26.8627 119.937 27.4321 118.989C29.1528 116.121 31.3543 112.979 31.9026 109.623C32.0502 108.722 30.7048 108.528 30.397 109.311Z" fill="#D8E4C9"/>
<path d="M36.3821 120.341C37.4618 118.791 38.3053 117.023 39.1234 115.325C39.832 113.86 40.4983 112.184 39.735 110.617C39.3976 109.926 38.4908 110.335 38.533 111.013C38.7397 114.184 35.1885 116.698 34.6403 119.739C34.4631 120.729 35.876 121.066 36.3821 120.337V120.341Z" fill="#D8E4C9"/>
<path d="M46.2078 112.494C44.795 115.374 42.391 117.851 41.8048 121.081C41.6108 122.146 43.2724 122.42 43.6141 121.451C44.6473 118.512 46.5283 115.884 47.2959 112.864C47.4815 112.132 46.5326 111.833 46.2078 112.489V112.494Z" fill="#D8E4C9"/>
<path d="M52.2771 114.664C51.3957 116.614 50.2232 118.412 49.3797 120.383C48.8779 121.554 50.801 122.232 51.2607 121.028C52.0157 119.04 53.0405 117.174 53.7195 115.157C54.04 114.21 52.6736 113.78 52.2771 114.66V114.664Z" fill="#D8E4C9"/>
<path d="M86.3128 117.711C88.8981 116.098 89.9103 112.986 90.4796 110.135C91.1502 106.795 91.5424 102.891 90.332 99.6275C89.8175 98.2377 87.5274 99.021 87.869 100.44C89.1005 105.511 88.9445 112.519 85.4988 116.785C85.1108 117.265 85.7771 118.044 86.3085 117.711H86.3128Z" fill="#D8E4C9"/>
<path d="M72.9968 92.1206C72.4485 92.2764 72.4528 93.0723 73.0516 93.1355C77.1805 93.5735 95.6236 96.711 94.7042 88.8567C94.5903 87.8923 93.2027 87.6649 92.7093 88.4482C90.7777 91.5225 87.1085 91.6741 83.7598 91.8131C80.3352 91.9563 76.3286 91.1814 72.9968 92.1206Z" fill="#D8E4C9"/>
<path d="M83.8654 66.2275C86.3537 65.7937 88.8083 64.2355 91.1828 63.3553C94.0886 62.2814 97.0535 61.4013 99.9087 60.1884C101.241 59.6198 100.255 57.7037 98.9345 58.1964C96.0413 59.2829 93.127 60.3021 90.2676 61.4855C87.9859 62.4288 84.9156 63.5322 83.5027 65.68C83.334 65.9369 83.5618 66.278 83.8654 66.2275Z" fill="#D8E4C9"/>
<path d="M87.772 57.7808C90.235 56.7364 92.7781 55.8773 95.2875 54.955C96.0762 54.6644 95.6291 53.3546 94.8236 53.561C92.1328 54.2432 89.4716 54.9087 86.9706 56.1468C85.912 56.669 86.6965 58.2356 87.7677 57.7808H87.772Z" fill="#D8E4C9"/>
<path d="M58.8257 45.8459C57.8093 46.2123 58.3955 47.981 59.4246 47.6568C62.7016 46.6208 66.0123 45.6816 69.2893 44.633C72.5789 43.5801 76.1089 42.6536 79.1076 40.9101C79.5757 40.6364 79.369 39.8867 78.7997 39.9878C75.4637 40.5606 72.1782 41.744 68.9181 42.6578C65.5146 43.6096 62.1533 44.6498 58.8257 45.8501V45.8459Z" fill="#D8E4C9"/>
<path d="M49.1998 45.6646C58.0944 43.5842 66.6854 40.1856 75.4536 37.6335C76.3603 37.3682 76.141 36.0289 75.1794 36.1763C66.0908 37.5366 57.1455 40.4762 48.449 43.4031C47.1543 43.8411 47.8966 45.9678 49.1955 45.6646H49.1998Z" fill="#D8E4C9"/>
<path d="M40.6863 43.2298C49.581 40.5177 58.3322 37.6161 66.2822 32.6887C67.1046 32.1792 66.4888 30.8357 65.6116 31.3158C57.5773 35.742 48.7079 38.4078 40.0663 41.36C39.0077 41.7222 39.6193 43.5541 40.6863 43.2298Z" fill="#D8E4C9"/>
<path d="M28.0039 44.5192C32.2172 43.0074 36.4009 41.386 40.6564 39.9836C41.6897 39.6425 41.4366 37.979 40.3359 38.278C35.8316 39.5035 31.4328 40.9396 27.0972 42.6578C25.8404 43.1548 26.7724 44.9614 28.0039 44.515V44.5192Z" fill="#D8E4C9"/>
<path d="M7.29064 57.4429C9.5259 54.8318 11.5882 52.0776 14.608 50.3046C15.734 49.6434 14.9158 47.8872 13.7096 48.4642C10.1838 50.1487 8.00339 53.362 5.84826 56.4827C5.19877 57.426 6.58632 58.2725 7.29486 57.4429H7.29064Z" fill="#D8E4C9"/>
<path d="M15.6146 55.8132C19.8911 52.8905 23.7248 49.4204 28.4315 47.1462C29.4015 46.6745 28.8997 44.9563 27.82 45.2974C22.5102 46.9693 18.5162 50.8606 14.4928 54.5414C13.6661 55.2995 14.7332 56.4113 15.6146 55.809V55.8132Z" fill="#D8E4C9"/>
<path d="M36.0594 46.291C32.5631 47.4492 29.6193 49.837 26.064 50.8099C25.0602 51.0836 25.3133 52.5871 26.3634 52.4144C30.214 51.7743 33.4277 49.6391 36.9029 48.0177C38.0627 47.4744 37.1939 45.912 36.0594 46.291Z" fill="#D8E4C9"/>
<path d="M51.2968 46.4643C47.6403 46.3085 44.3759 47.8035 41.3562 49.7323C40.188 50.4777 41.0863 52.4318 42.3178 51.7033C45.2068 49.9934 48.0662 49.0038 51.4191 48.7174C52.7223 48.6079 52.5663 46.5148 51.2968 46.4601V46.4643Z" fill="#D8E4C9"/>
<path d="M10.8876 105.205C8.39081 105.618 6.17663 107.357 4.49808 109.177C3.53227 110.225 4.80174 111.691 5.96576 110.84C7.83832 109.467 9.09935 107.505 11.3894 106.721C12.2751 106.418 11.7521 105.066 10.8876 105.205Z" fill="#D8E4C9"/>
<path d="M59.91 117.707C59.0876 118.596 58.2568 119.35 58.0797 120.613C57.9742 121.38 58.7798 122.066 59.5178 121.902C60.5258 121.679 61.1036 120.895 61.2048 119.897C61.2217 119.733 61.2048 119.586 61.1584 119.455C61.2554 119.32 61.3482 119.185 61.441 119.046C62.0567 118.103 60.7198 116.835 59.91 117.711V117.707ZM59.1087 119.548C59.1087 119.548 59.0961 119.556 59.0876 119.564C59.0961 119.556 59.1003 119.556 59.1087 119.548Z" fill="#D8E4C9"/>
<path d="M2.49893 114.162C4.15218 116.554 6.66158 117.96 9.30172 119.017C12.0768 120.129 15.1008 120.609 18.0403 121.077C22.7133 121.818 27.3947 122.53 32.0803 123.161C41.6245 124.45 51.0041 124.842 60.62 124.867C67.4903 124.884 75.1281 126.004 81.5851 123.09C82.3822 122.728 82.7533 122.134 82.8081 121.498C85.9797 119.868 87.3546 115.64 87.8059 112.048C88.1728 109.146 88.177 106.215 88.2529 103.292C88.2867 101.991 88.3415 100.689 88.468 99.3965C88.5017 99.0385 88.5861 98.6721 88.6747 98.3015C89.7459 98.7353 90.9479 98.8658 92.1077 98.71C93.2717 102.736 93.5627 106.632 92.6222 110.889C92.095 113.277 91.2515 115.543 89.8429 117.552C88.4174 119.59 86.3593 120.285 84.1409 121.102C83.5378 121.325 83.4323 122.252 84.1409 122.429C89.7628 123.823 93.8875 117.484 95.41 113.046C96.4095 110.123 96.6963 106.851 96.6077 103.785C96.5487 101.738 96.3252 99.2533 95.4648 97.2445C95.5323 97.1855 95.604 97.1308 95.6672 97.0718C97.9868 94.8313 98.2525 90.9526 98.2315 87.9457C98.2062 84.2523 97.6663 80.4452 96.7764 76.8655C96.3378 75.101 95.9962 72.7173 95.0515 70.9822C95.0177 70.3884 94.8575 69.7988 94.5159 69.2387C93.7567 67.9837 91.901 68.5523 91.8378 69.9631C91.745 71.993 91.5763 73.1553 89.7459 74.4103C88.8096 75.0504 87.7299 75.4589 86.6165 75.6316C86.6503 75.5642 86.6756 75.4926 86.7009 75.421C86.975 74.5198 86.6207 73.6565 86.5069 72.7636C86.3677 71.6687 86.296 70.5611 86.2285 69.4577C87.1395 69.4282 88.0462 69.2766 88.9446 69.1334C92.7023 68.5354 96.38 67.432 100.024 66.3497C103.018 65.4611 105.996 64.4925 109.016 63.6923C111.5 63.0353 114.034 62.5089 116.531 61.9109C120.116 61.0476 123.832 60.778 127.387 59.9147C129.352 59.4388 128.918 56.8067 127.197 56.4192C128.509 56.2171 129.614 54.9074 128.61 53.6102C122.549 45.7729 121.373 35.337 117.56 26.4005C116.561 24.0589 111.921 14.5875 108.311 16.6637C106.409 16.4447 104.823 17.5313 103.132 18.4536C101.247 19.4769 99.2943 20.4034 97.3458 21.3173C95.7685 19.5654 94.6002 17.5692 93.2801 15.6025C91.998 13.6947 90.408 11.9512 88.991 10.1403C86.0387 6.3753 82.7575 1.83542 78.1057 0.100332C77.3507 -0.181831 76.6169 0.302479 76.1951 0.875228C73.5634 4.4507 70.3118 7.50396 67.2077 10.6625C63.9265 14.0021 60.9279 17.6239 57.9166 21.2078C54.7914 24.9265 51.7506 28.7209 48.7056 32.507C48.1658 33.1808 47.6133 33.8546 47.0608 34.5284C44.0622 33.4251 39.8573 33.9936 37.1413 34.2968C33.5691 34.7011 30.0138 35.3834 26.4626 35.9393C21.3173 36.7478 12.3467 38.4029 11.731 44.9179C11.4569 44.9727 11.1827 45.0316 10.9086 45.0948C1.06921 47.3774 0.575761 60.1084 0.318495 68.3038C0.158231 73.568 0.0401412 78.866 0.00218387 84.1302C-0.0442084 90.9779 0.664328 97.8088 0.626371 104.657C0.605283 108.072 0.466106 111.226 2.49893 114.162ZM91.5004 76.5497C92.3101 76.0949 93.1072 75.4084 93.7398 74.5956C93.8242 75.0546 93.9043 75.5053 93.9592 75.9306C94.3598 79.0849 94.7605 82.2561 94.8744 85.4357C94.9671 88.0468 95.0262 91.1548 93.8242 93.5553C92.5294 96.1411 90.1803 94.6039 87.9071 94.5239C87.6498 94.5155 87.4221 94.5702 87.2196 94.6755C86.916 94.6587 86.6081 94.7345 86.3297 94.924C86.2707 94.9661 86.2201 95.0124 86.1653 95.0545C86.625 94.1322 86.3171 92.8099 85.1404 92.5993C83.6727 92.334 82.1587 92.5319 80.6657 92.473C79.2275 92.4182 77.8189 92.4224 76.3849 92.5614C73.614 92.8351 70.8769 93.2731 68.0849 93.2689C65.7484 93.2689 63.703 92.8436 62.4419 90.7884C61.1683 88.7164 60.5441 86.1222 60.2995 83.7259C60.1476 82.2477 59.9115 79.464 61.3496 78.4785C63.2222 77.194 66.2756 77.2867 68.4434 77.2151C73.5255 77.0508 79.0082 78.3269 84.086 77.5604C86.4689 78.4953 89.3452 77.7499 91.4962 76.5455L91.5004 76.5497ZM104.191 21.8564C105.3 21.3089 106.903 19.936 108.197 20.1887C109.307 20.4034 110.087 19.7128 110.31 18.8873C112.799 20.9088 114.701 27.4744 115.338 29.3021C118.408 38.0534 119.58 47.9501 125.206 55.5854C125.493 55.9728 125.848 56.2129 126.223 56.335C123.465 56.3055 120.521 57.1941 117.898 57.8343C114.781 58.5965 111.685 59.4599 108.581 60.2727C106.114 60.9212 103.706 61.8941 101.298 62.7279C97.8266 63.9324 94.3598 65.1537 90.8677 66.2907C89.5477 66.7203 88.2487 67.2046 86.916 67.5836C86.6587 67.6552 86.393 67.7142 86.1315 67.7816C86.0092 65.7011 85.8827 63.6207 85.6845 61.5445C86.2117 61.0813 86.7431 60.5843 87.4052 60.2769C89.5899 59.2661 91.9685 58.6134 94.2755 57.9522C98.2483 56.8109 102.297 55.8928 106.333 54.9958C106.822 55.7075 107.674 56.1371 108.611 56.1076C109.927 56.0613 110.842 54.5873 109.8 53.5471C109.53 53.2775 109.231 53.2102 108.906 53.1259C108.927 53.0501 108.948 52.9743 108.973 52.8985C108.986 52.8648 108.99 52.8438 108.994 52.8269C108.999 52.8143 109.003 52.8101 109.011 52.7932C109.138 52.5153 109.294 52.2458 109.454 51.9847C109.964 51.1592 110.77 50.2959 111.605 49.7737C111.9 49.5884 111.955 49.5673 112.179 49.4957C112.233 49.4789 112.643 49.4157 112.385 49.441C112.457 49.4326 112.495 49.4283 112.516 49.4241C112.52 49.4241 112.533 49.4325 112.562 49.4368C112.794 49.4789 112.731 49.4368 112.929 49.6558C113.107 49.8453 113.216 50.2369 113.301 50.5022C113.549 51.3108 114.777 51.1676 114.785 50.3001C114.785 50.1485 114.781 49.9969 114.768 49.8453C115.325 49.66 115.801 49.1672 115.801 48.5145C115.814 45.9371 114.245 43.2039 113.225 40.875C112.339 38.8451 111.504 36.7394 110.547 34.7222C111.107 34.3431 111.626 33.8883 112.094 33.3619C113.216 32.0985 111.479 30.3381 110.234 31.5047C109.83 31.8879 109.37 32.2332 108.876 32.5238C108.725 32.5533 108.585 32.6249 108.488 32.7428C105.979 34.061 102.862 33.9894 101.955 30.5992C101.736 29.7822 100.893 29.5885 100.201 29.8875C94.6761 32.2501 89.3705 35.0801 83.8963 37.5522C78.2617 40.0959 72.4374 41.8184 66.3347 42.7828C65.875 42.8544 66.031 43.5071 66.4359 43.5408C72.5133 44.0378 78.4599 41.9742 84.0186 39.7253C89.4718 37.5185 94.693 34.8022 100.1 32.5028C101.664 35.914 105.49 36.8658 108.784 35.6318C109.248 37.5143 109.981 39.3505 110.601 41.1614C111.255 43.0776 111.681 45.2296 112.343 47.2047C111.504 47.1963 110.639 47.5753 109.952 47.9754C108.121 49.0493 105.798 51.3656 105.886 53.665C105.895 53.8756 105.928 54.0777 105.983 54.2672C101.428 54.5494 96.8523 55.4717 92.4113 56.4571C91.7155 56.613 87.9999 57.4258 85.3471 58.6344C84.9886 55.8128 84.2294 51.1845 81.6315 50.06C81.9056 49.5589 81.7622 48.8514 81.0199 48.5608C72.0831 45.0653 62.0666 44.1557 52.3116 43.903C60.8773 40.138 69.8647 37.2406 78.5063 33.6272C83.3944 31.5847 88.1939 29.3484 93.006 27.1332C95.5028 25.9835 97.9911 24.8254 100.471 23.6462C101.711 23.0566 102.947 22.4544 104.178 21.8437L104.191 21.8564ZM108.843 53.5008C108.843 53.4586 108.834 53.4249 108.834 53.3997C108.834 53.4292 108.838 53.4586 108.843 53.5008ZM108.834 53.3913C108.834 53.3913 108.834 53.3913 108.834 53.387C108.834 53.3702 108.834 53.3576 108.83 53.3491C108.83 53.3618 108.83 53.3786 108.834 53.3955V53.3913ZM77.3845 16.9038C78.6834 17.2028 79.9403 16.7564 80.9229 15.952C81.914 17.5565 82.8588 19.1906 83.8583 20.7909C84.9042 22.4586 86.1779 24.6612 87.8986 25.7814C84.8536 27.2217 81.8002 28.6493 78.7298 30.0265C73.3947 32.4185 67.9879 34.6548 62.6359 37.0089C60.7043 37.8596 58.4691 38.6303 56.2971 39.5442C57.111 38.6809 57.9672 37.8512 58.798 37.0047C60.9363 34.8317 62.8553 32.4312 64.8628 30.1402C68.7133 25.7561 73.129 21.1152 75.4402 15.6656C75.8915 16.2636 76.5705 16.7101 77.3845 16.8954V16.9038ZM60.5399 22.6607C63.5891 19.1442 66.6594 15.6404 69.9744 12.3723C72.8001 9.58438 75.6511 6.86382 78.1521 3.79372C79.7842 4.72023 81.1507 6.24054 82.3822 7.57976C84.2379 9.5928 85.8911 11.7954 87.5612 13.96C88.9404 15.7456 90.2984 17.4723 91.4962 19.3885C92.2469 20.593 92.9891 21.8648 93.9339 22.9092C92.6939 23.4988 91.4582 24.0884 90.2183 24.6738C90.1929 24.5432 90.1508 24.4127 90.0833 24.2821C89.0416 22.307 87.1985 20.6603 85.9544 18.761C84.7018 16.849 83.5673 14.8655 82.2514 12.9956C81.7369 12.2628 80.3578 11.9765 79.915 12.9956C79.5396 13.8632 79.0082 14.457 78.0846 14.7475C76.7772 15.1603 76.2204 13.8295 75.7565 12.9114C75.5794 12.5618 75.0438 12.6629 74.9468 13.0167C74.7696 13.6652 74.8034 14.2927 74.9974 14.8486C71.0793 19.7802 67.098 24.5095 62.7456 29.0747C60.6537 31.2688 58.6378 33.5346 56.4278 35.6066C54.6354 37.2869 51.5524 39.4473 51.35 42.071C51.35 42.1005 51.35 42.1258 51.35 42.1511C50.6752 42.6312 50.0468 43.1534 49.4901 43.7345C49.4563 43.7682 49.431 43.8061 49.4057 43.8398C47.453 43.8103 45.5172 43.8019 43.6067 43.7977C43.1048 43.7977 42.6029 43.8019 42.1011 43.8019C43.9863 41.9994 45.7323 40.0075 47.4319 37.9944C47.6808 38.0281 47.9296 38.0576 48.1827 38.066C49.334 38.1165 49.916 36.6805 49.2328 35.8508C49.6672 35.3286 50.1016 34.8106 50.5402 34.301C53.8552 30.4013 57.1827 26.5142 60.5356 22.6481L60.5399 22.6607ZM27.7321 38.4745C30.8741 38.0871 33.9993 37.5733 37.1455 37.2616C39.094 37.0679 41.0509 37.0132 43.0036 37.1311C43.5856 37.1648 44.1507 37.2743 44.7117 37.4006C43.0458 39.4768 41.4347 41.5994 40.0387 43.823C34.847 43.8609 29.6511 43.9914 24.4593 44.0967C20.8323 44.1725 17.1547 44.0967 13.5529 44.5937C16.3702 39.8601 22.5826 39.102 27.7321 38.4703V38.4745ZM5.45538 56.4993C6.00366 54.3304 6.89354 51.3361 8.79984 49.9632C10.8369 48.4934 13.7427 48.2407 16.1636 48.0512C22.4434 47.5585 28.8286 47.6975 35.1211 47.5795C42.5861 47.4406 50.0636 47.4195 57.5201 47.8238C64.8459 48.2239 72.062 49.3441 79.3034 50.4349C79.3582 50.5823 79.4848 50.7044 79.6703 50.7128C81.3109 50.7802 81.7749 53.6692 81.99 54.8863C82.4623 57.5647 82.496 60.3569 82.5298 63.0732C82.5593 65.659 82.5846 68.249 82.6605 70.8348C82.6985 72.174 82.5973 73.9428 83.2004 75.2484C80.3451 74.8567 77.4562 74.583 74.6009 74.305C71.5348 74.0102 68.4434 73.8755 65.3689 74.1029C63.0155 74.2755 60.2109 74.7051 58.507 76.4991C56.7737 78.3269 56.702 81.3759 56.8622 83.7217C57.2165 88.9312 59.165 95.0377 64.7405 96.4696C67.9584 97.295 71.48 96.8065 74.7317 96.4738C76.4777 96.2927 78.1858 96.179 79.9445 96.2632C81.8128 96.3516 83.8625 96.7265 85.5368 95.7284C84.6217 97.1308 84.6976 99.3207 84.6385 100.866C84.5415 103.423 84.6385 105.983 84.5879 108.539C84.512 112.229 84.3349 116.718 81.623 119.215C80.9651 118.76 80.0921 118.592 79.1811 119.005C75.0143 120.9 69.6032 120.369 65.1538 120.277C59.4433 120.159 53.7413 120.399 48.0308 120.129C41.1943 119.801 34.3957 118.937 27.6267 117.956C22.6964 117.244 17.6355 116.705 12.8107 115.417C9.14146 114.435 5.7253 112.667 4.96616 108.666C4.72154 107.385 4.93242 105.945 4.93242 104.648C4.93242 103.006 4.86915 101.363 4.79746 99.725C4.64141 96.1621 4.37149 92.6077 4.19014 89.0491C3.90335 83.3848 4.1564 77.712 4.13109 72.0435C4.10579 66.834 4.15218 61.574 5.44273 56.495L5.45538 56.4993Z" fill="#1B542D"/>
<path d="M71.8003 83.3033C71.3701 83.1601 70.9231 83.2907 70.5941 83.5686C70.1977 83.0506 69.7422 82.6042 69.0632 82.4821C68.1859 82.3263 67.3003 82.6084 66.7309 83.3117C65.4572 84.8826 66.0941 87.1483 67.7136 88.1675C68.9873 88.9676 70.9357 88.9592 72.1841 88.1127C73.9006 86.9504 73.9934 84.0319 71.8003 83.3033ZM70.4254 85.9186C70.4254 85.9186 70.4254 85.927 70.4296 85.927C70.4296 85.9228 70.4296 85.9228 70.4254 85.9186ZM69.8771 85.9649C69.8771 85.9649 69.8561 85.9649 69.8434 85.9691C69.7675 85.9733 69.6874 85.9776 69.6114 85.9818C69.5271 85.9818 69.4385 85.9818 69.3542 85.9733C69.3415 85.9733 69.3289 85.9733 69.3162 85.9733C69.2993 85.9649 69.2614 85.9565 69.2023 85.9439C68.8987 85.8765 68.8017 85.8259 68.5782 85.5901C68.4685 85.4764 68.3462 85.0637 68.3462 84.6973C68.3462 83.9308 69.7127 83.9266 70.1597 84.2046C70.1175 84.3309 70.088 84.4657 70.0922 84.6046C70.0964 84.8826 70.1344 85.1605 70.2314 85.4217C70.2651 85.5438 70.3115 85.6659 70.3664 85.7838C70.3453 85.8007 70.3242 85.8133 70.3073 85.8259C70.2736 85.8259 69.9615 85.9481 69.8814 85.9649H69.8771Z" fill="#1B542D"/>
</g>
<defs>
<clipPath id="clip0_1233_443">
<rect width="129" height="125.091" fill="white"/>
</clipPath>
</defs>
</svg>
