<svg width="178" height="135" viewBox="0 0 178 135" fill="none" xmlns="http://www.w3.org/2000/svg">
<path d="M18.7367 23.3243C16.727 29.3554 17.2541 36.2133 17.1553 42.4872C17.0301 50.1261 17.0499 57.7716 17.0037 65.4105C16.9115 80.2946 16.0285 95.5658 17.3266 110.397C17.5902 113.449 21.8204 113.449 22.084 110.397C23.3228 96.1958 22.5057 81.5743 22.42 67.3202C22.3739 59.6813 22.3278 52.0358 22.2817 44.3969C22.2421 37.5652 22.8681 29.8935 20.6739 23.3309C20.3576 22.3793 19.053 22.3793 18.7367 23.3309V23.3243Z" fill="#134E26"/>
<path d="M18.7002 26.0409C29.3219 27.5831 40.3918 27.1303 51.1058 27.3534C62.4787 27.5897 73.8648 27.5503 85.2377 27.6356C96.6172 27.7209 107.997 27.8128 119.37 27.8981C125.392 27.9441 131.415 27.9572 137.444 27.9769C142.959 27.9966 148.751 28.5675 154.167 27.419C156.552 26.9137 156.552 23.1402 154.167 22.6349C149.37 21.6177 144.336 22.0574 139.447 22.0705C133.424 22.0902 127.402 22.0967 121.373 22.1427C109.993 22.228 98.6137 22.3199 87.2408 22.4052C75.8613 22.4905 64.4818 22.5824 53.1089 22.6677C41.7689 22.753 29.9282 22.3855 18.6936 24.013C17.6855 24.1574 17.6855 25.8899 18.6936 26.0343L18.7002 26.0409Z" fill="#134E26"/>
<path d="M156.962 108.847C159.143 103.433 158.431 96.5292 158.504 90.7672C158.596 83.5023 158.662 76.2375 158.701 68.9792C158.774 54.5217 159.525 39.8149 158.247 25.3968C157.996 22.5683 154.089 22.5683 153.838 25.3968C152.619 39.1586 153.298 53.1895 153.371 66.9973C153.41 74.2622 153.456 81.527 153.549 88.7853C153.628 95.1248 152.712 102.888 155.117 108.847C155.479 109.753 156.599 109.753 156.962 108.847Z" fill="#134E26"/>
<path d="M154.88 107.929C145.075 106.065 134.466 106.872 124.517 106.734C113.15 106.57 101.791 106.511 90.4243 106.472C67.7641 106.4 44.8733 105.586 22.2395 106.662C19.2743 106.8 19.2743 111.105 22.2395 111.243C44.2078 112.286 66.4265 111.512 88.4212 111.44C99.7875 111.401 111.147 111.361 122.514 111.204C133.109 111.053 144.449 111.958 154.886 109.976C155.907 109.78 155.907 108.119 154.886 107.922L154.88 107.929Z" fill="#134E26"/>
<path d="M22.9899 2.9478C20.6112 3.30218 17.7251 2.31122 15.2806 2.32435C12.7635 2.33091 10.2662 4.04376 8.3092 5.40222C4.37547 8.12572 1.54212 12.1355 0.632815 16.8147C-0.460988 22.4388 0.211108 28.7652 0.138627 34.4747C0.0397897 42.1595 0.382427 49.8247 0.764599 57.4964C1.48282 71.9277 1.35104 86.2342 1.14677 100.679C1.00181 111.146 0.902971 122.952 5.48245 132.612C6.75416 135.303 11.4193 133.361 10.3255 130.578C6.82005 121.705 6.43788 112.084 6.47741 102.647C6.52354 90.1784 7.03749 77.7684 6.39175 65.306C5.76578 53.1454 5.06733 41.0636 5.12004 28.8768C5.13981 23.6726 4.23709 17.8844 7.00455 13.2315C8.99448 9.88451 13.0402 6.92476 16.9476 6.53756C19.5108 6.28162 21.2042 6.25537 23.6554 5.33004C25.1709 4.75909 24.5713 2.71154 22.9965 2.9478H22.9899Z" fill="#134E26"/>
<path d="M8.85702 132.9C22.411 134.206 36.1033 133.924 49.7099 134.088C63.4549 134.252 77.1934 134.403 90.9384 134.462C117.928 134.58 145.398 135.952 172.315 133.812C174.647 133.628 174.647 130.393 172.315 130.203C145.398 128.063 117.928 129.441 90.9384 129.553C77.1934 129.612 63.4483 129.763 49.7099 129.927C36.1033 130.085 22.4044 129.809 8.85702 131.115C7.70391 131.226 7.70391 132.788 8.85702 132.893V132.9Z" fill="#134E26"/>
<path d="M172.831 112.556C172.746 115.489 173.49 118.436 173.312 121.435C173.213 123.115 172.937 124.893 172.232 126.436C171.434 128.181 170.11 128.103 168.66 129.015C167.356 129.842 167.085 132.08 168.66 132.834C173.701 135.249 177.048 129.107 177.74 125.051C178.353 121.461 178.168 113.73 174.228 111.755C173.596 111.44 172.858 111.827 172.838 112.549L172.831 112.556Z" fill="#134E26"/>
<path d="M18.7951 5.17808C23.7304 7.0353 30.5897 6.1231 35.8413 6.39217C42.727 6.73999 49.6193 6.68092 56.505 6.58248C71.0341 6.37248 85.5369 6.10997 100.059 5.72934C114.121 5.36183 128.248 5.04026 142.309 5.05339C149.617 5.05995 156.917 5.48652 164.139 6.64811C170.399 7.65219 170.083 12.3642 170.405 17.4699C170.616 20.8431 175.486 20.8562 175.67 17.4699C175.881 13.4864 175.552 9.18785 173.16 5.84747C170.438 2.0477 165.398 1.51613 161.121 1.0108C145.439 -0.826734 129.698 0.367665 113.963 0.544857C97.3117 0.72861 80.6741 1.62769 64.0166 1.73926C56.4918 1.78519 48.9801 2.1527 41.4619 2.38239C37.7126 2.50052 33.9634 2.59896 30.2141 2.71709C26.5176 2.83522 22.6234 3.99024 18.973 3.79992C18.1296 3.75399 18.0835 4.91557 18.7885 5.17808H18.7951Z" fill="#134E26"/>
<path d="M170.768 16.3867C169.773 24.1568 171.493 31.9401 171.282 39.7497C171.038 48.9045 170.735 58.0397 170.3 67.188C169.497 84.3493 168.917 102.364 171.48 119.4C171.948 122.505 176.824 121.651 176.837 118.678C176.909 100.815 175.545 83.1024 176.343 65.2061C176.718 56.7206 176.936 48.2483 176.923 39.7497C176.916 31.4545 174.359 24.1503 173.074 16.0717C172.85 14.641 170.913 15.1988 170.762 16.3867H170.768Z" fill="#134E26"/>
<g clip-path="url(#clip0_3020_451)">
<path d="M99.6465 53.9551H78.3535C75.9512 53.9551 74 55.9062 74 58.3086V71.8379C74 74.2402 75.9512 76.1914 78.3535 76.1914H85.7188V80.9492C85.7188 81.5527 86.2051 82.0391 86.8086 82.0391C87.0723 82.0391 87.3242 81.9453 87.5234 81.7754L94.0273 76.1914H99.6523C102.055 76.1914 104 74.2402 104 71.8379V58.3086C104 55.9062 102.049 53.9551 99.6465 53.9551ZM82.8535 66.9336C81.875 66.9336 81.084 66.1426 81.084 65.1641C81.084 64.1855 81.875 63.3945 82.8535 63.3945C83.832 63.3945 84.623 64.1855 84.623 65.1641C84.623 66.1426 83.8262 66.9336 82.8535 66.9336ZM89 66.9336C88.0215 66.9336 87.2305 66.1426 87.2305 65.1641C87.2305 64.1855 88.0215 63.3945 89 63.3945C89.9785 63.3945 90.7695 64.1855 90.7695 65.1641C90.7695 66.1426 89.9785 66.9336 89 66.9336ZM95.1465 66.9336C94.168 66.9336 93.377 66.1426 93.377 65.1641C93.377 64.1855 94.168 63.3945 95.1465 63.3945C96.125 63.3945 96.916 64.1855 96.916 65.1641C96.9219 66.1426 96.125 66.9336 95.1465 66.9336Z" fill="#134E26"/>
</g>
<defs>
<clipPath id="clip0_3020_451">
<rect width="30" height="30" fill="white" transform="translate(74 53)"/>
</clipPath>
</defs>
</svg>
