<svg width="97" height="34" viewBox="0 0 97 34" fill="none" xmlns="http://www.w3.org/2000/svg">
<path d="M28.9991 6.63544C29.1448 6.73284 29.288 6.83772 29.4313 6.93761L30.0216 6.4956C30.4094 6.2209 30.7997 5.9487 31.1924 5.68399C30.8214 5.47453 30.4678 5.23483 30.1353 4.96727L30.0636 4.90234C29.5473 5.40531 28.9932 5.86702 28.4062 6.28333C28.6088 6.3982 28.8039 6.51558 28.9991 6.63544Z" fill="#FF9143"/>
<path d="M34.995 1.02466C34.4269 0.447796 33.9205 0.180589 33.4562 0.19807C32.562 0.233032 31.8062 1.19698 31.2653 1.82129C30.3118 2.9076 29.4794 4.03137 28.1506 4.67067C27.5387 4.9547 26.9081 5.19584 26.2635 5.39238C26.7258 5.50469 27.1753 5.66538 27.6047 5.87185C28.3509 5.44757 29.1318 5.08913 29.9389 4.80053C29.6614 4.56946 29.4126 4.30533 29.1979 4.01389C30.0478 4.18204 30.8647 4.48995 31.616 4.92539L32.0063 5.15514C32.1471 5.06524 32.2854 4.97034 32.4287 4.88044C33.2465 4.35944 34.0944 3.88828 34.9678 3.46949C34.2865 4.16956 33.5648 4.82832 32.8066 5.44232L32.6411 5.57218L32.6905 5.60465C33.0529 5.85462 33.3882 6.14256 33.6908 6.46371C33.2451 6.44942 32.8043 6.36518 32.3842 6.21398C32.2607 6.17402 32.1372 6.12158 32.0186 6.07164C31.5246 6.46121 31.0224 6.84162 30.5119 7.21288C30.3859 7.30528 30.2649 7.39269 30.1266 7.48259C30.1562 7.50756 30.1908 7.53004 30.2205 7.55751C30.6227 7.89347 30.9805 8.2804 31.285 8.70875C30.6594 8.5115 30.0553 8.25045 29.4819 7.9296C28.8372 8.36912 28.1778 8.78616 27.5059 9.17823C27.8709 9.56919 28.1839 10.0066 28.4371 10.4793C27.9593 10.257 27.5008 9.99473 27.0662 9.69517C26.9946 9.64772 26.9279 9.59527 26.8588 9.54783C26.4339 9.79755 26.0041 10.0098 25.562 10.2246C25.8708 9.90494 26.1894 9.60027 26.513 9.30309C26.2808 9.13078 26.0535 8.95598 25.8263 8.77367C25.5991 8.59137 25.3891 8.39659 25.1742 8.2018C24.6452 8.46348 24.0969 8.68307 23.5341 8.85858C23.9047 8.46871 24.3035 8.10727 24.7271 7.77727C24.3343 7.39051 23.9772 6.96839 23.6601 6.51615C24.1629 6.68542 24.6445 6.91338 25.0952 7.1954C25.1668 7.23786 25.231 7.2878 25.3027 7.33275C25.7522 6.99812 26.2141 6.68596 26.6834 6.38629L27.0094 6.1965C26.7271 5.94635 26.4629 5.67594 26.219 5.38738C25.278 5.69205 24.3221 5.95926 23.4106 6.31886C22.3628 6.75651 21.3683 7.31457 20.4466 7.98204C17.7279 9.9116 16.2015 13.1331 15.8672 17.6465C16.1412 16.7937 16.549 15.991 17.075 15.2691C17.58 14.5755 18.1902 13.967 18.8831 13.466C19.7065 12.8824 20.6267 12.4528 21.6001 12.1974C23.6749 11.628 25.8609 11.5057 27.8888 10.7915C29.7931 10.1197 31.5049 8.99843 33.061 7.71733C34.6171 6.43624 35.5878 4.75308 35.6668 3.15483C35.7039 2.2733 35.4643 1.49165 34.995 1.02466Z" fill="#FF9143"/>
<path d="M25.9844 7.81316C26.1178 7.91305 26.2536 8.01295 26.382 8.11533C26.629 8.3326 26.8761 8.55735 27.1231 8.79209C27.645 8.34092 28.1769 7.90473 28.7187 7.48353L28.5359 7.37115C28.2543 7.18385 27.9777 6.98407 27.706 6.7793C27.5207 6.90416 27.3379 7.02902 27.1502 7.1464C26.7665 7.37947 26.3779 7.60173 25.9844 7.81316Z" fill="#FF9143"/>
<path d="M8.10413 21.0952H2.63057L3.99896 20.4609V17.7289H13.7284V14.0879H0V32.9497H8.10413C11.7795 32.9497 15.2474 31.7011 15.2474 27.0187C15.2474 22.3364 11.7795 21.0952 8.10413 21.0952ZM8.12883 29.3911H2.63057L3.45802 29.014C4.54977 27.7654 4.54977 26.267 3.45802 25.0184L2.63551 24.6413H8.12883C9.69976 24.6413 11.1694 24.9884 11.1694 27.0087C11.1694 29.029 9.69976 29.3911 8.12883 29.3911Z" fill="#FF9143"/>
<path d="M26.86 13.7109C20.2527 13.7109 16.9453 18.4033 16.9453 23.5177C16.9453 28.6321 20.2527 33.3244 26.86 33.3244C33.4673 33.3244 36.7746 28.6321 36.7746 23.5177C36.7746 18.4033 33.4697 13.7109 26.86 13.7109ZM27.4651 29.5561L26.8649 30.8921L26.2672 29.5561C22.7647 29.2839 21.0208 26.6692 21.0208 23.5177C21.0208 20.3661 22.7647 17.754 26.2523 17.4793L26.8501 16.1458L27.4503 17.4793C30.9083 17.754 32.6522 20.3836 32.6522 23.5177C32.6522 26.6518 30.9231 29.2839 27.4651 29.5561Z" fill="#FF9143"/>
<path d="M47.8286 21.0952H42.2538L43.721 20.4259V17.7289H53.4528V14.0879H39.7344V32.9497H47.8286C51.5089 32.9497 54.9719 31.7011 54.9719 27.0187C54.9719 22.3364 51.5089 21.0952 47.8286 21.0952ZM47.8583 29.3911H42.2538L43.2542 28.9316C44.2422 27.7304 44.2422 26.307 43.2542 25.1058L42.2538 24.6513H47.8583C49.4341 24.6513 50.8988 24.9984 50.8988 27.0187C50.8988 29.039 49.4341 29.3911 47.8583 29.3911Z" fill="#FF9143"/>
<path d="M64.748 14.0879H57.7109V32.9497H61.7148V27.4183L60.2328 26.739H64.7406C69.2509 26.739 72.7904 25.2831 72.7904 20.411C72.7904 15.5388 69.2583 14.0879 64.748 14.0879ZM64.9333 23.1979H60.2402L61.1986 22.7509C62.2903 21.2525 62.2903 19.5794 61.1986 18.0935L60.2402 17.6465H64.9333C66.9933 17.6465 68.7223 18.1859 68.7223 20.4185C68.7223 22.651 66.9933 23.1979 64.9333 23.1979Z" fill="#FF9143"/>
<path d="M82.5215 20.2911L78.0137 20.2761L79.4957 19.5944V14.0879H75.4844V32.9497H82.5215C87.0243 32.9497 90.5688 31.4938 90.5688 26.6167C90.5688 21.7395 87.0243 20.3111 82.5215 20.2911ZM82.7042 29.3911H78.0112L78.9696 28.9416C80.0613 27.4582 80.0613 25.7776 78.9696 24.2867L78.0112 23.8372H82.7042C84.7593 23.8372 86.4932 24.4091 86.4932 26.6167C86.4932 28.8242 84.7593 29.3911 82.7042 29.3911Z" fill="#FF9143"/>
<path d="M96.0824 14.0879H92.0859V32.9472H96.0824V14.0879Z" fill="#FF9143"/>
</svg>
