<svg width="145" height="136" viewBox="0 0 145 136" fill="none" xmlns="http://www.w3.org/2000/svg">
<path d="M59.8107 105.288C50.2316 95.3472 45.306 81.5354 45.1367 67.7647C44.9418 51.7838 61.8989 43.7291 75.7057 43.1122C82.74 42.7987 90.0205 44.5258 95.0024 49.7431C99.4919 54.4464 100.539 61.7507 100.887 67.9549C101.611 80.8312 99.4303 95.0285 87.5937 102.302C84.5049 104.199 87.255 108.943 90.431 107.17C105.1 98.9813 107.624 81.0882 106.254 65.7858C105.577 58.2296 103.345 50.7969 97.9218 45.2968C92.2267 39.5244 83.4839 37.8744 75.7057 38.0183C59.6311 38.3164 42.2327 48.0109 40.2625 65.1895C39.339 73.2237 41.4888 82.7485 44.6698 90.1093C47.4969 96.6528 52.1197 103.895 59.1693 106.394C59.8158 106.625 60.2468 105.741 59.8107 105.288Z" fill="#165029"/>
<path d="M58.3199 107.467C67.781 106.408 77.5243 109.333 86.9597 108.772C88.5041 108.68 89.838 106.552 88.3655 105.37C85.1588 102.799 80.0127 104.455 76.1903 104.521C72.609 104.583 68.997 105.107 65.4311 105.38C62.917 105.57 60.5466 105.231 58.1352 106.12C57.463 106.367 57.499 107.559 58.3148 107.467H58.3199Z" fill="#165029"/>
<path d="M58.0567 106.516C56.42 108.053 54.8705 110.87 56.9126 112.864C59.2471 115.141 62.2845 114.525 65.3167 114.339C73.449 113.841 83.4847 116.94 91.1706 113.435C92.1146 113.003 92.484 111.733 92.2378 110.803C91.8427 109.292 91.1808 108.454 89.9597 107.534C88.2768 106.264 86.6812 108.613 87.3738 110.125C87.4713 110.556 87.5688 110.988 87.6663 111.425C88.2358 110.675 88.8053 109.924 89.3748 109.179C84.8033 110.757 79.6726 109.986 74.9112 110.114C71.7148 110.202 68.5029 109.996 65.3116 110.207C64.0648 110.289 56.7894 111.944 59.3959 107.56C59.9038 106.701 58.7545 105.863 58.0516 106.521L58.0567 106.516Z" fill="#165029"/>
<path d="M59.0834 113.513C57.6673 114.119 57.103 115.276 56.4257 116.602C56.1384 117.162 56.1435 117.944 56.6566 118.391C62.5262 123.511 71.2433 121.419 78.2416 120.591C82.3 120.113 92.7411 122.765 91.3045 115.466C90.9761 113.801 88.3287 113.415 87.6001 114.983C86.7792 116.746 84.1163 115.749 82.4488 115.785C80.1041 115.836 77.7388 116.278 75.43 116.643C69.6938 117.553 63.9268 118.555 58.4369 116.068C58.6627 116.623 58.8885 117.178 59.1142 117.733C59.2014 117.255 59.3502 114.68 59.7042 114.315C60.1404 113.868 59.5914 113.292 59.0834 113.508V113.513Z" fill="#165029"/>
<path d="M58.1188 119.763C58.283 121.156 56.9285 123.068 56.6668 124.467C56.5232 125.217 56.7387 126.096 57.4826 126.471C64.0294 129.787 72.254 130.152 79.4422 129.766C82.8336 129.586 85.6145 128.939 88.3184 126.816C90.5503 125.058 90.8222 121.557 88.6673 119.779C87.4308 118.761 85.3939 119.342 85.399 121.136C85.4144 129.16 63.3419 124.518 58.8525 123.233C59.2835 123.804 59.7196 124.374 60.1506 124.945C59.9967 123.469 61.1101 119.553 58.8166 119.244C58.5036 119.203 58.0727 119.378 58.124 119.774L58.1188 119.763Z" fill="#165029"/>
<path d="M63.5289 127.647C61.7895 127.236 61.1636 128.5 62.1179 129.945C63.7905 132.474 66.6176 133.964 69.3317 135.1C74.8422 137.408 84.1083 135.373 82.9436 127.719C82.6358 125.694 79.8754 125.781 78.9468 127.195C77.9565 128.706 77.8693 130.299 76.1659 131.25C74.6985 132.068 72.6565 131.842 71.0813 131.595C69.2496 131.312 67.4795 130.623 65.7915 129.883C65.2887 129.662 61.7793 127.986 63.3595 128.274C63.77 128.351 63.9496 127.74 63.534 127.642L63.5289 127.647Z" fill="#165029"/>
<path d="M63.054 76.9553C61.6174 86.069 63.0746 95.2494 62.5153 104.384C62.4127 106.064 64.0802 106.856 65.486 106.65C66.3172 106.532 66.8046 106.198 67.4049 105.633C68.7287 104.384 67.8051 101.592 65.8246 101.808C65.2705 101.87 64.7677 101.932 64.2393 102.117C65.2038 102.667 66.1633 103.212 67.1279 103.762C65.8195 94.905 64.6908 85.9661 63.8442 77.0633C63.8031 76.6469 63.131 76.4773 63.054 76.9553Z" fill="#165029"/>
<path d="M62.188 77.5624C62.8499 81.6077 65.1433 86.3008 69.5147 87.226C75.1175 88.4083 76.3899 80.7853 80.2072 78.7601C79.0733 78.1073 77.9394 77.4596 76.8107 76.8068C77.0877 85.4321 76.8774 94.0625 76.7747 102.693C76.7337 106.168 82.2133 106.168 82.1569 102.693C82.0184 94.0574 81.9671 85.4269 81.3309 76.8068C81.2077 75.1362 79.494 73.9385 77.9343 74.8535C75.1688 76.4727 73.9939 79.2689 72.3931 81.9059C68.8631 87.7298 64.7585 80.7236 63.3271 77.2591C63.0397 76.5652 62.0752 76.8171 62.1983 77.5727L62.188 77.5624Z" fill="#165029"/>
<path d="M77.0754 55.0259C80.2565 54.733 82.6525 55.5091 84.4637 58.2591C85.9721 60.5465 86.1209 63.4867 87.7935 65.6354C88.8197 66.9564 90.6052 65.7073 90.7283 64.4171C91.0413 61.1634 88.1732 57.2311 85.8746 55.1853C83.3298 52.9185 79.8511 52.6255 76.8189 54.0699C76.3674 54.2858 76.5777 55.0722 77.0754 55.0259Z" fill="#165029"/>
<path d="M71.4044 28.4826C73.3797 25.1774 73.154 22.0419 72.8307 18.2844C72.3536 12.7021 73.7132 7.11983 73.2412 1.56325C73.0616 -0.544243 70.2243 -0.508262 70.0037 1.56325C69.4906 6.36422 69.5419 11.5661 69.9011 16.3825C70.1627 19.9087 72.0714 24.5606 70.4808 27.9377C70.1884 28.5546 71.0452 29.084 71.4095 28.4826H71.4044Z" fill="#165029"/>
<path d="M110.299 37.6476C117.354 35.8948 123.429 31.1298 130.222 28.5956C129.365 28.1073 128.508 27.6241 127.657 27.1358L127.8 27.4905C128.108 26.7297 128.421 25.9638 128.729 25.2031C128.575 25.311 128.421 25.419 128.267 25.5269C126.533 26.74 127.549 29.6648 129.75 29.0531C129.929 29.0017 130.104 28.9555 130.284 28.9041C131.12 28.6727 131.812 27.8452 131.766 26.9508C131.761 26.8274 131.756 26.704 131.751 26.5807C131.694 25.3522 130.437 24.0363 129.109 24.5657C122.182 27.3311 115.825 32.2041 109.853 36.6041C109.345 36.9793 109.632 37.8172 110.294 37.6527L110.299 37.6476Z" fill="#165029"/>
<path d="M42.4934 35.756C41.0312 32.6976 38.3375 30.6569 35.5926 28.791C33.7455 27.5368 31.7907 26.442 29.8564 25.3317C28.3377 24.463 26.742 23.1779 24.9924 22.9106C23.4173 22.669 22.3398 24.3088 23.443 25.5835C25.4491 27.9069 29.7897 28.9093 32.5192 30.2303C35.7773 31.8135 39.1841 33.6742 41.5237 36.5116C42.0009 37.0925 42.7859 36.3523 42.5037 35.756H42.4934Z" fill="#165029"/>
<path d="M22.2483 66.2263C15.8606 64.9875 7.15368 65.8048 1.10453 68.2516C-0.773326 69.0123 -0.101199 71.7572 1.9511 71.3306C5.33226 70.6315 8.61081 69.5778 12.0279 68.9866C15.4193 68.3955 18.862 68.2773 22.2483 67.6913C22.982 67.5628 22.9666 66.3651 22.2483 66.2263Z" fill="#165029"/>
<path d="M31.0501 98.1372C28.4847 98.975 26.3041 100.615 24.2313 102.301C21.9173 104.182 19.4546 106.218 17.4485 108.423C16.3505 109.631 17.8538 111.882 19.275 110.798C21.3427 109.22 23.0204 107.138 24.8316 105.277C26.9352 103.118 29.244 101.334 31.6247 99.5045C32.2455 99.0264 31.9223 97.8545 31.0501 98.1372Z" fill="#165029"/>
<path d="M122.258 65.101C122.115 65.1524 121.971 65.1987 121.827 65.2501C121.627 65.9852 121.432 66.7202 121.232 67.4501C128.928 67.5015 136.147 69.7632 143.746 70.3903C145.249 70.5137 145.459 68.2314 144.09 67.8305C136.855 65.7127 128.456 64.0884 120.919 65.1267C119.411 65.3323 120.124 67.995 121.545 67.4039C122.587 66.9721 122.705 66.7613 123.012 65.6767C123.125 65.2707 122.638 64.8286 122.258 65.0959V65.101Z" fill="#165029"/>
<path d="M111.931 100.965C115.107 104.737 118.226 108.86 122.485 111.476C124.142 112.499 125.445 110.042 123.973 108.932C120.166 106.064 116.748 102.887 113.301 99.5973C112.387 98.7234 111.141 100.024 111.931 100.97V100.965Z" fill="#165029"/>
</svg>
