<svg width="152" height="167" viewBox="0 0 152 167" fill="none" xmlns="http://www.w3.org/2000/svg">
<path d="M31.6469 110.733C37.7475 112.768 42.9203 117.219 48.1886 120.774C52.8703 123.932 57.7699 126.806 62.3543 130.101C65.5633 132.409 68.6945 134.82 72.0641 136.896C73.983 138.076 78.4962 141.06 80.4988 138.608C81.1354 137.832 81.276 136.377 80.1553 135.888C79.2178 135.477 78.2448 135.415 77.299 135.027C75.5637 134.313 73.9539 133.258 72.3868 132.245C69.2642 130.23 66.3244 127.961 63.2494 125.879C58.3426 122.56 53.0731 119.558 47.7919 116.888C42.6692 114.299 37.6541 110.733 31.9172 109.713C31.2507 109.594 31.0017 110.522 31.6483 110.738L31.6469 110.733Z" fill="#134E26"/>
<path d="M32.6078 110.957C38.4999 104.013 43.0182 95.6046 47.8449 87.8968C52.9015 79.8218 57.9682 71.7526 62.9946 63.6601C73.0273 47.5176 83.7474 31.6053 92.805 14.8999C93.6702 13.3004 91.4237 12.0665 90.4077 13.5158C79.7156 28.7506 70.4352 45.0887 60.6575 60.937C55.6547 69.0431 50.6888 77.1705 45.7129 85.2922C40.812 93.2994 35.067 101.355 31.3567 109.987C31.0312 110.745 31.9714 111.702 32.6044 110.955L32.6078 110.957Z" fill="#134E26"/>
<path d="M80.6015 137.94C83.5841 135.383 85.6552 131.516 87.7832 128.25C90.3733 124.268 92.95 120.279 95.5133 116.282C100.427 108.624 105.219 100.892 110.054 93.1844C114.888 85.4805 119.649 77.7305 124.444 69.9999C129.17 62.3822 134.817 54.8059 138.555 46.6542C139.28 45.0728 137.215 43.0656 135.95 44.6365C130.452 51.4482 126.276 59.5901 121.678 67.0337C116.897 74.772 112.117 82.507 107.335 90.2454C102.556 97.9804 97.7944 105.73 93.1339 113.539C90.7018 117.611 88.2831 121.692 85.8712 125.776C83.7103 129.434 80.8757 133.342 79.8335 137.492C79.7177 137.957 80.2651 138.227 80.6035 137.936L80.6015 137.94Z" fill="#134E26"/>
<path d="M88.7137 17.8016C88.6227 17.7806 88.5317 17.7596 88.4393 17.7333C87.9196 17.8026 87.4033 17.8738 86.8836 17.9431C89.0678 21.195 93.0354 22.9497 96.4287 24.6431C100.993 26.9178 105.299 29.5842 109.658 32.2136C113.927 34.7906 118.17 37.3033 122.619 39.5661C127.061 41.8197 130.733 45.57 135.339 47.3915C137.747 48.3451 138.699 44.778 136.944 43.4854C136.731 43.3264 136.516 43.1707 136.299 43.0098C134.692 41.8252 132.643 44.1099 133.607 45.6935C133.748 45.9234 133.886 46.1567 134.03 46.3885C135.001 45.4219 135.973 44.452 136.944 43.4854C133.047 41.3752 129.746 38.4198 125.826 36.3187C121.434 33.9632 117.039 31.6913 112.728 29.18C104.718 24.5105 96.1428 21.217 88.0433 16.7886C87.068 16.257 86.3283 17.6315 87.1949 18.258C87.2933 18.3283 87.3917 18.3986 87.4881 18.4723C87.6613 18.5994 87.8974 18.5555 88.0782 18.4752C88.2315 18.4737 88.3815 18.4701 88.5368 18.4652C88.965 18.5233 89.1365 17.9467 88.7083 17.8031L88.7137 17.8016Z" fill="#134E26"/>
<path d="M44.485 142.206C44.8387 138.208 45.015 134.207 45.4761 130.217C45.977 125.894 46.5654 121.535 46.4331 117.176C46.3714 115.163 43.2452 115.173 43.3078 117.2C43.5588 125.353 41.5151 134.375 43.795 142.299C43.9095 142.698 44.4507 142.592 44.485 142.206Z" fill="#134E26"/>
<path d="M44.0338 89.4997C45.8539 80.9118 46.892 72.1021 48.164 63.423C49.3851 55.0883 51.062 46.4222 51.2077 37.9936C51.2383 36.2322 48.3604 35.8047 48.099 37.6086C46.863 46.0157 46.7115 54.6797 45.909 63.1435C45.0801 71.8938 43.7181 80.62 43.0506 89.378C43.0083 89.9481 43.916 90.0532 44.0338 89.4997Z" fill="#134E26"/>
<path d="M48.9092 40.242C50.0037 39.6353 52.0684 39.895 53.2578 39.8926C55.4954 39.8917 57.7255 40.0668 59.9514 40.2259C61.4525 40.3358 62.9542 40.4912 64.4621 40.5196C66.2048 40.5528 67.9463 40.4638 69.6864 40.5091C71.2892 40.5516 72.5851 40.9395 74.1743 40.695C75.359 40.5142 75.8953 38.6303 74.9441 37.8785C72.0819 35.6224 67.8742 36.4811 64.447 36.7409C62.2899 36.9053 60.1007 36.7448 57.9377 36.7797C55.6647 36.8186 48.6339 36.4482 48.3679 39.9295C48.3454 40.2092 48.6823 40.3632 48.9059 40.24L48.9092 40.242Z" fill="#134E26"/>
<path d="M43.4478 144.173C49.1574 146.28 55.4096 146.12 61.4096 146.575C66.8428 146.987 72.1703 146.915 77.6013 146.997C81.1744 147.051 84.7341 147.322 88.3081 147.251C90.6023 147.206 94.3157 147.328 95.1793 144.628C95.8057 142.666 93.2601 141.484 91.8876 142.728C91.0593 143.479 86.6126 143.191 85.1054 143.208C82.267 143.24 79.4168 143.068 76.5825 143.201C65.5839 143.725 54.5716 143.231 43.5584 143.313C43.0358 143.318 43.0053 144.007 43.4497 144.169L43.4478 144.173Z" fill="#134E26"/>
<path d="M93.9603 144.933C95.0658 143.22 95.2813 140.975 95.6176 139.003C96.0835 136.286 96.4406 133.555 96.8256 130.823C97.6735 124.804 98.6505 118.81 99.5572 112.798C99.8997 110.528 96.4606 109.574 96.0662 111.895C95.0759 117.71 94.5599 123.628 93.981 129.491C93.708 132.27 93.4017 135.053 93.2102 137.838C93.0553 140.086 92.5899 142.655 93.2868 144.841C93.3875 145.156 93.7849 145.205 93.9622 144.929L93.9603 144.933Z" fill="#134E26"/>
<path d="M73.2744 67.0153C65.7158 73.2585 67.5967 86.1361 75.2293 91.4121C83.9773 97.4582 94.1927 92.4291 99.0514 83.9515C103.68 75.8726 103.876 65.2525 95.85 59.4387C87.4359 53.3422 76.4285 57.8329 70.908 65.6941C70.0944 66.8549 71.6959 68.4371 72.8517 67.6541C75.7247 65.7141 78.0159 63.1589 81.1083 61.4987C84.5752 59.6403 88.3548 59.9037 91.838 61.4958C99.5311 65.0051 99.5492 73.9967 96.4762 80.7712C93.4155 87.5168 86.2058 93.0471 78.6599 89.9426C70.5587 86.6121 66.6994 73.7678 73.7529 67.4988C74.0865 67.2004 73.6103 66.7363 73.2763 67.0119L73.2744 67.0153Z" fill="#134E26"/>
<path d="M52.9105 72.0654C52.3786 71.2628 53.4235 68.925 53.663 68.1219C54.2549 66.126 54.8435 64.1282 55.473 62.145C56.6147 58.5523 57.569 54.865 58.7752 51.3005C58.1888 51.5475 57.5971 51.7959 57.0107 52.0428C60.3981 53.6067 62.2674 49.9341 63.0216 47.1447C62.4505 47.4816 61.8741 47.8199 61.3031 48.1568C64.116 48.5647 67.2587 48.8208 70.0062 47.9523C71.5318 47.4684 71.2258 45.2964 69.6458 45.222C66.9617 45.0956 64.3723 45.6904 61.6561 45.3789C61.051 45.3088 60.4307 45.8785 60.3003 46.4383C60.0535 47.4714 59.4997 50.2009 57.9222 49.8351C57.0966 49.6422 56.5133 50.2333 56.4147 51.0096C55.8958 55.2006 54.1484 59.493 53.2139 63.6197C52.8178 65.3773 50.9571 70.7665 52.4608 72.4093C52.6777 72.6471 53.0938 72.3379 52.9138 72.0673L52.9105 72.0654Z" fill="#134E26"/>
<path d="M52.0234 134.419C52.4775 131.442 53.2945 128.428 53.4007 125.417C53.4313 124.557 52.0772 124.379 51.9025 125.232C51.2956 128.202 51.6457 131.322 51.296 134.327C51.2495 134.742 51.9595 134.832 52.0234 134.419Z" fill="#134E26"/>
<path d="M52.3229 133.776C52.3214 132.59 54.7562 133.847 55.4022 134.157C56.772 134.813 58.1543 136.138 57.2145 137.735C56.6427 138.702 57.3723 140.164 58.5657 140.069C62.8405 139.731 66.7969 140.371 71.0371 140.536C72.392 140.588 73.0834 138.42 71.7496 137.857C67.457 136.036 62.6931 136.119 58.1632 137.008C58.7979 137.64 59.4326 138.272 60.0673 138.904C61.2628 134.163 56.4006 130.518 51.9181 132.186C51.6455 132.285 51.5221 132.507 51.567 132.794C51.6059 133.123 51.6428 133.455 51.6816 133.784C51.7137 134.194 52.3279 134.202 52.3263 133.778L52.3229 133.776Z" fill="#134E26"/>
<path d="M47.5307 110.92C50.4995 110.413 52.2681 107.552 52.5452 104.735C52.8197 101.961 50.5351 98.5024 47.4902 98.7757C46.1192 98.8985 45.4823 100.693 46.7776 101.454C48.3333 102.37 49.5735 102.645 49.6206 104.753C49.6659 106.693 48.4496 108.396 46.9551 109.502C46.2454 110.024 46.6422 111.069 47.5327 110.916L47.5307 110.92Z" fill="#134E26"/>
<path d="M47.5738 111.028C50.6945 112.906 53.8519 114.923 57.1178 116.565C63.0786 119.565 68.1885 123.006 73.3245 127.264C75.0255 128.674 77.504 126.299 75.8079 124.811C70.4697 120.135 64.8049 116.544 58.2253 113.863C56.1024 112.997 49.7303 108.426 47.4934 110.414C47.3 110.586 47.364 110.902 47.5705 111.026L47.5738 111.028Z" fill="#134E26"/>
<path d="M74.2572 125.178C74.7197 124.936 74.6894 124.328 74.8296 123.891C75.1174 123.012 75.6887 122.194 76.1571 121.406C76.6294 120.611 77.1544 119.864 77.8392 119.237C78.6273 118.517 80.2797 118.714 80.6109 119.694C81.2244 121.512 83.9877 121.26 83.995 119.229C84.015 115.024 78.1481 114.641 75.749 117.112C74.2352 118.67 72.1955 122.677 73.2053 124.872C73.3541 125.197 73.7646 125.317 74.0881 125.238C74.1446 125.225 74.2016 125.204 74.2525 125.17L74.2572 125.178Z" fill="#134E26"/>
<path d="M83.7677 117.801C86.8496 114.203 89.2783 109.988 91.8236 105.999C94.7776 101.372 97.6932 96.7177 100.607 92.0672C103.52 87.4166 106.436 82.7627 109.35 78.1121C112.213 73.5407 115.678 68.9606 117.891 64.0406C118.416 62.8753 116.916 61.3968 115.97 62.5533C112.949 66.241 110.696 70.6785 108.204 74.7391C105.33 79.4129 102.472 84.0999 99.6089 88.7796C96.7457 93.4592 93.8637 98.1326 91.0409 102.836C88.2414 107.498 85.065 112.145 82.9402 117.161C82.7263 117.664 83.3436 118.295 83.7677 117.801Z" fill="#134E26"/>
<path d="M115.251 66.3974C119.711 64.3104 121.612 57.9269 123.171 53.6654C123.631 52.4038 122.206 51.167 121.016 51.5203C119.523 51.9642 119.057 50.7447 118.945 49.4237C118.795 47.6343 119.434 46.9313 120.92 46.3212C122.246 45.7803 122.273 44.1339 120.917 43.6169C114.907 41.3314 113.144 57.6003 121.923 54.9266C121.207 54.2111 120.485 53.497 119.768 52.7815C118.207 57.1545 116.623 61.2801 114.006 65.1379C113.445 65.9624 114.5 66.7517 115.257 66.396L115.251 66.3974Z" fill="#134E26"/>
<path d="M96.6586 32.074C98.3106 32.5593 99.6012 33.989 100.947 34.9733C102.834 36.3557 104.869 37.5301 106.875 38.7291C110.69 41.0127 114.894 43.4532 119.132 44.8239C120.54 45.2811 121.612 43.3236 120.572 42.3309C118.775 40.6134 116.263 39.893 114.008 38.9466C111.416 37.8602 108.931 36.4657 106.443 35.1689C104.376 34.0886 102.31 33.0397 100.283 31.8832C99.1081 31.2091 97.8245 30.7923 96.5728 31.4073C96.2729 31.554 96.3733 31.9858 96.6606 32.0706L96.6586 32.074Z" fill="#134E26"/>
<path d="M85.5474 33.0267C85.8271 36.4402 90.3449 37.2108 93.0077 36.7529C96.0562 36.2249 99.5611 32.9651 98.2812 29.5913C97.6555 27.9419 95.2864 28.155 95.1905 30.0139C95.1396 30.9484 95.3204 31.7689 94.6895 32.5667C94.0833 33.3292 93.1968 33.7543 92.2854 34.0207C91.3135 34.3064 90.2388 34.312 89.2615 34.0946C88.1311 33.8473 87.4079 33.0965 86.4848 32.4824C86.1084 32.2336 85.5133 32.5656 85.5527 33.0253L85.5474 33.0267Z" fill="#134E26"/>
<path d="M48.7994 98.9716C56.5074 88.4862 63.0322 77.0295 69.8972 65.9854C73.2369 60.6125 76.5746 55.2429 79.9109 49.868C83.4178 44.2132 87.4617 38.6298 90.4167 32.6654C91.2163 31.0552 89.1109 29.9342 88.0698 31.3104C84.2832 36.3083 81.2656 42.0473 77.972 47.3793C74.4387 53.0954 70.9121 58.8154 67.3822 64.5334C60.5634 75.5907 53.2175 86.5282 47.2763 98.0922C46.7455 99.128 48.1374 99.8775 48.8028 98.9735L48.7994 98.9716Z" fill="#134E26"/>
</svg>
