<svg width="165" height="127" viewBox="0 0 165 127" fill="none" xmlns="http://www.w3.org/2000/svg">
<g clip-path="url(#clip0_1233_527)">
<path d="M100.35 44.4916C101.973 51.7473 109.784 56.6319 116.745 57.4816C124.048 58.3758 133.029 56.0847 137.53 49.8611C138.291 48.8068 136.845 47.5745 135.826 48.1573C129.853 51.605 124.707 54.5633 117.532 54.114C110.171 53.6558 105.834 49.1404 101.395 43.8777C100.964 43.3661 100.225 43.9221 100.35 44.4871V44.4916Z" fill="#D8E4C9"/>
<path d="M104.69 31.5678C102.675 30.202 113.288 25.5843 114.694 25.1439C122.464 22.7105 128.922 26.1404 135.345 30.0063C136.693 30.8159 138.263 28.863 137.044 27.7998C130.199 21.8208 120.694 19.3607 112.087 23.0797C110.303 23.8494 97.7692 30.4867 104.33 32.4175C104.859 32.5732 105.113 31.8525 104.69 31.5678Z" fill="#D8E4C9"/>
<path d="M30.0928 92.2124C28.7629 98.6629 35.8484 102.155 41.008 103.579C48.6495 105.692 56.638 102.573 62.3358 97.484C63.6435 96.3185 61.9666 94.2721 60.5033 95.1129C55.4771 98 50.6645 100.638 44.7042 100.522C39.7937 100.429 31.8498 98.0979 31.0936 92.3503C31.0269 91.8298 30.2218 91.6029 30.0973 92.2168L30.0928 92.2124Z" fill="#D8E4C9"/>
<path d="M31.6902 74.3599C31.5212 70.3339 38.3354 67.1086 41.5424 66.0765C46.4173 64.5062 52.7511 64.4661 56.5319 68.3542C58.013 69.8757 60.0635 67.6602 58.8048 66.081C54.2679 60.4001 45.2475 61.2008 39.2384 63.7187C36.1604 65.0089 27.736 70.4762 30.6628 74.6357C30.9563 75.0539 31.7125 74.9471 31.6902 74.3599Z" fill="#D8E4C9"/>
<path d="M54.7958 64.237C48.9646 60.0508 41.7456 59.0365 34.9981 61.7324C28.4196 64.3571 24.2564 70.7186 22.0769 77.1959C20.0086 83.3439 20.3066 90.2215 23.0376 96.0937C25.9644 102.393 32.2448 106.125 38.761 107.736C51.8735 110.974 66.4182 104.631 70.6749 91.396C74.6513 79.0465 66.6228 62.155 52.8254 61.0873C52.2516 61.0606 51.6822 61.0651 51.1085 61.1051C49.1959 61.1763 49.2715 63.8232 51.1085 64.019C62.7264 65.2513 69.0736 78.873 66.3381 89.3095C63.4603 100.311 51.2419 105.147 40.8427 103.354C28.7888 101.276 22.9487 90.5685 25.6174 79.0376C27.023 72.9697 30.8304 67.1686 36.7061 64.7041C42.2126 62.3997 48.8534 63.8321 54.4711 64.9932C54.9426 65.0911 55.165 64.5128 54.7869 64.2414L54.7958 64.237Z" fill="#154F27"/>
<path d="M50.8649 73.8642C47.9693 67.863 39.1669 72.7743 36.5604 76.7247C31.6988 84.0961 34.9814 92.642 43.9128 94.0478C50.26 95.0487 57.4701 92.0325 58.1506 84.9636C58.7155 79.0781 54.2276 71.7333 47.9026 71.3285C46.7195 71.2529 45.9366 72.9834 46.8929 73.7619C50.0065 76.2932 52.8932 77.8947 53.7694 82.1298C54.5167 85.7332 52.1548 88.6071 48.8233 89.519C43.7616 90.9026 37.6991 88.3268 37.9571 82.5569C38.135 78.611 46.2035 69.42 50.002 74.3714C50.3846 74.8741 51.1451 74.4604 50.8605 73.8687L50.8649 73.8642Z" fill="#154F27"/>
<path d="M19.4653 47.92C19.8345 49.2591 22.7746 54.4373 21.9606 55.2647C19.79 57.4668 17.2369 59.7979 15.738 62.5205C14.924 64.0019 16.672 66.155 18.2288 65.0117C21.0621 62.9298 23.2683 59.8869 25.7547 57.3956C26.5242 56.626 26.6131 55.1847 25.7547 54.4284C23.5441 52.4799 22.0985 49.9397 20.5684 47.4574C20.2126 46.879 19.2785 47.2527 19.4653 47.9245V47.92Z" fill="#154F27"/>
<path d="M7.61115 58.9843C8.87881 59.8696 10.0886 60.8349 11.3607 61.7202C12.108 62.2407 12.7885 62.8413 13.4068 63.5086C13.9272 64.0691 14.1229 64.7898 14.8702 65.1234C15.8487 65.5638 16.934 65.2302 17.2765 64.1447C17.9704 61.9382 15.1148 60.4434 13.5224 59.6471C11.6988 58.7352 9.8529 58.1924 7.81131 58.2369C7.39321 58.2458 7.2909 58.7619 7.60671 58.9843H7.61115Z" fill="#154F27"/>
<path d="M7.72878 57.9824C3.52105 59.0368 1.2704 65.1003 0.8523 68.9172C0.603216 71.186 1.31488 73.4993 3.37872 74.7271C5.37139 75.9105 8.20471 77.2673 10.4954 77.4319C11.7986 77.5253 12.5014 75.9639 11.9276 74.9318C10.4064 72.1914 4.92659 72.8543 4.57966 69.5267C4.24606 66.3459 5.83397 60.8474 8.06238 58.5608C8.30701 58.3072 8.06238 57.8935 7.72434 57.978L7.72878 57.9824Z" fill="#154F27"/>
<path d="M10.7491 76.8979C10.9715 76.6443 11.1939 76.3907 11.4118 76.1416C12.2836 75.283 10.6957 74.0685 10.0997 75.1273C8.21375 78.4771 7.72003 83.1304 8.27602 86.8895C8.961 85.9909 9.64598 85.0923 10.3265 84.1936C7.63997 84.3538 3.53454 85.1723 1.55966 87.1742C-1.47382 90.2527 0.594465 94.7903 2.08897 98.1268C3.37886 100.996 5.33595 103.149 8.6452 103.198C11.5497 103.238 15.3304 101.21 17.0073 98.9498C17.9547 97.6686 16.3979 96.3162 15.157 96.5431C12.2791 97.068 8.70747 101.254 6.31894 97.7398C5.18472 96.0715 2.73836 90.8533 5.37598 89.7589C6.90606 89.1227 8.66299 88.54 10.3265 88.4465C11.7454 88.3665 12.6973 87.152 12.377 85.7507C11.5808 82.2496 12.3459 78.7663 11.6253 75.3186C11.1182 75.5321 10.6067 75.7457 10.0997 75.9636C10.1175 76.1905 10.1353 76.413 10.1486 76.6398C10.0241 77.0224 10.54 77.1648 10.7446 76.8934L10.7491 76.8979Z" fill="#154F27"/>
<path d="M14.2301 98.9633C15.5956 101.521 17.8329 103.585 19.3674 106.063C21.6759 109.791 18.42 113.008 16.503 116.184C15.1375 118.444 18.4334 120.174 19.9412 118.195C22.4543 114.894 25.6212 110.294 23.4595 106.148C21.9472 103.247 18.0553 98.7276 14.6126 98.296C14.2568 98.2516 14.0878 98.7009 14.2301 98.9633Z" fill="#154F27"/>
<path d="M16.7442 118.405C18.4611 122.071 25.3909 127.209 29.5631 126.991C32.1117 126.858 33.8553 124.157 35.0073 122.2C35.9592 120.581 38.1387 117.057 36.7776 115.251C36.1994 114.486 35.3454 114.17 34.4469 114.642C31.7114 116.083 32.2897 122.752 28.4956 122.965C24.6214 123.183 20.7829 119.171 17.5137 117.64C16.9933 117.396 16.4995 117.885 16.7442 118.41V118.405Z" fill="#154F27"/>
<path d="M35.179 116.558C38.5817 117.047 42.0555 116.371 45.4137 116.989C48.9008 117.63 48.5139 123.36 50.5288 125.584C51.8187 127.008 53.7357 125.464 53.4644 123.876C52.9129 120.628 51.2182 115.895 48.118 114.293C44.4752 112.412 38.8352 115.09 35.179 115.664C34.7342 115.735 34.7298 116.495 35.179 116.562V116.558Z" fill="#154F27"/>
<path d="M51.5435 126.439C54.1945 125.679 57.5037 126.244 60.2659 125.839C62.3475 125.532 65.8792 125.065 66.9467 122.863C68.9571 118.703 65.3187 111.959 62.2452 109.116C60.4349 107.444 57.7306 110.126 59.5364 111.826C61.2044 113.396 65.3988 119.931 62.8279 121.693C61.0932 122.88 58.5312 123.058 56.5252 123.494C54.5192 123.93 52.9179 124.491 51.1476 125.492C50.6361 125.781 50.9831 126.604 51.548 126.439H51.5435Z" fill="#154F27"/>
<path d="M20.4476 48.1061C23.7524 45.7617 27.9245 44.267 31.9721 43.9333C36.1265 43.5908 33.2131 51.7629 35.8107 53.9161C36.8604 54.788 38.5017 54.2631 38.5373 52.7861C38.5684 51.4693 38.0791 50.1481 37.9502 48.8313C37.7945 47.2075 37.6922 45.5882 37.2474 44.0089C36.6069 41.7401 34.7743 40.8237 32.5593 40.975C29.6815 41.1707 26.9193 42.2295 24.3039 43.3728C22.6004 44.1201 19.9405 45.2857 19.3134 47.2342C19.1132 47.8526 19.8916 48.5065 20.452 48.1106L20.4476 48.1061Z" fill="#154F27"/>
<path d="M36.1779 52.9107C39.0468 53.32 42.1648 53.2444 44.8914 54.2142C46.6661 54.8459 48.294 55.3931 49.9086 54.1519C51.6033 52.8485 52.4261 50.722 53.169 48.7913C53.7605 47.2521 54.8369 44.9121 54.3966 43.2394C54.1164 42.1806 52.7108 41.8025 51.9413 42.5899C51.1363 43.4173 50.9672 44.6629 50.6158 45.7306C50.0243 47.5101 49.2993 49.2228 48.3118 50.8199C47.5379 52.0744 45.9722 51.2647 44.6556 51.1135C41.9113 50.7932 39.0157 51.6384 36.3024 51.9543C35.8087 52.0121 35.5819 52.8262 36.1735 52.9107H36.1779Z" fill="#154F27"/>
<path d="M52.5261 42.8261C52.6151 43.1241 50.827 42.8839 52.6729 43.3955C53.6025 43.6535 54.5188 43.9293 55.4528 44.1607C57.699 44.7167 59.9897 45.3307 62.1158 46.256C64.6734 47.3726 64.4955 48.6805 63.5836 51.1628C62.8631 53.1247 61.8312 55.0332 62.2404 57.1819C62.4717 58.3963 64.0863 58.3741 64.6689 57.4977C67.093 53.8676 70.2644 47.3859 65.861 44.134C63.8016 42.6125 60.7281 42.052 58.2773 41.5893C56.0933 41.1801 53.7493 40.7663 51.5253 41.0644C50.6891 41.1756 50.5245 42.5681 51.2851 42.9017C51.3963 43.004 51.5075 43.1063 51.6187 43.2087C51.9301 43.6446 52.704 43.3955 52.5261 42.8261Z" fill="#154F27"/>
<path d="M63.4485 56.4046C63.1505 57.2231 63.7242 57.6235 64.3203 58.1574C66.0372 59.6832 68.2077 60.573 69.8846 62.219C72.3265 64.6168 74.0923 67.7353 77.9176 66.0226C79.3987 65.3597 81.249 63.8516 82.9393 64.1719C84.4738 64.4611 85.2878 66.7388 85.737 67.98C86.889 71.1652 87.1959 74.8086 86.9913 78.1718C87.614 77.549 88.2412 76.9217 88.8639 76.2989C85.2121 76.4057 81.805 77.5134 78.3668 78.6612C76.085 79.4219 77.0636 83.0431 79.3631 82.2735C82.4678 81.2369 85.5635 80.1426 88.8639 80.0447C89.9314 80.0136 90.6742 79.2128 90.7365 78.1718C91.0745 72.6599 90.3273 64.4477 85.3233 61.0668C82.5212 59.1716 79.1052 61.1068 76.5387 62.4058C74.5994 63.389 72.6156 60.4173 70.9521 59.4697C69.9291 58.8869 64.2002 57.5167 64.2535 56.5158C64.2802 56.0265 63.5953 55.9953 63.444 56.4046H63.4485Z" fill="#154F27"/>
<path d="M76.9787 81.5245C76.9076 85.0433 75.2707 88.2953 74.7459 91.7163C74.6169 92.5527 74.8082 93.4424 75.6266 93.8828C78.0062 95.1596 85.541 96.8812 83.5706 100.431C81.6935 103.812 77.9662 105.423 77.4769 109.591C78.3843 109.07 79.2961 108.546 80.2035 108.025C77.0188 106.303 73.923 104.324 70.8273 102.438C69.226 101.459 67.8783 103.874 69.3772 104.92C72.4107 107.033 75.1106 109.355 78.3709 111.157C79.6831 111.882 80.9285 110.93 81.0975 109.591C81.4 107.211 84.6514 105.08 86.0703 103.292C87.2712 101.775 88.3298 99.5904 87.8139 97.593C86.733 93.4246 80.6171 91.7608 77.1033 90.3773C77.5703 90.9956 78.0418 91.6096 78.5088 92.2279C78.6289 88.6957 80.5371 84.4784 78.6956 81.0618C78.2464 80.2299 76.9921 80.6392 76.9743 81.5289L76.9787 81.5245Z" fill="#154F27"/>
<path d="M62.2047 110.18C64.0328 109.988 65.7097 109.432 67.3154 108.547C68.7832 107.742 70.9182 106.461 71.2829 104.726C71.6209 103.115 69.8685 102.194 68.6497 103.195C67.6134 104.049 67.2486 105.5 66.2746 106.478C65.1403 107.617 63.4902 108.316 62.0357 108.93C61.4397 109.179 61.4219 110.26 62.2047 110.18Z" fill="#154F27"/>
<path d="M123.11 32.2965C118.72 27.4385 112.84 30.5392 109.579 35.2059C105.541 40.9847 108.979 48.8632 114.89 51.6481C121.34 54.6865 129.288 50.874 131.814 44.468C134.256 38.2754 126.735 30.1611 120.575 30.8729C119.285 31.0197 119.24 32.8258 120.575 32.9148C125.703 33.2485 130.627 38.6936 127.758 43.774C125.547 47.6843 120.317 49.5483 116.247 47.6665C112.635 45.9983 110.834 41.6386 112.026 37.9195C113.271 34.0448 118.653 29.8141 122.496 32.9104C122.923 33.2574 123.492 32.7191 123.11 32.2965Z" fill="#154F27"/>
<path d="M119.618 20.9516C107 19.488 96.8539 28.9369 96.0666 41.3709C95.2259 54.6901 106.799 63.0402 119.134 62.4041C132.277 61.7279 142.503 51.9186 142.601 38.5326C142.694 26.0764 127.762 15.9246 116.104 20.0485C114.975 20.4489 115.064 22.4597 116.407 22.2817C126.237 20.9827 138.051 27.9716 138.162 38.5326C138.277 49.4986 129.426 56.9456 119.138 57.862C108.601 58.8007 100.185 52.1589 99.8785 41.3709C99.5671 30.5651 109.077 21.5077 119.623 21.5388C120.01 21.5388 119.992 20.9916 119.623 20.9516H119.618Z" fill="#154F27"/>
<path d="M84.3873 33.559C84.0359 36.1037 83.302 38.6305 83.1641 41.1885C83.093 42.532 84.6231 43.177 85.6861 42.6343C85.695 42.6298 85.7039 42.6254 85.7172 42.6209C86.9938 41.9714 86.7136 39.8405 85.3125 39.538C81.7808 38.7817 78.7429 40.3966 75.616 41.878C75.0422 42.1494 74.7531 42.83 74.7264 43.4261C74.5663 47.2475 74.4195 54.6412 78.3026 56.9456C80.2507 58.1022 82.5503 57.6574 84.672 57.2881C87.1183 56.861 90.1874 56.385 92.3891 55.2017C93.8436 54.4232 93.0963 52.3145 91.5885 52.2478C88.1725 52.0965 84.6987 54.1251 81.2159 54.263C77.969 54.392 77.92 46.0864 78.2536 43.9021C77.8355 44.3203 77.4174 44.7385 76.9993 45.1567C79.628 44.0578 81.9321 42.7989 84.8677 42.8523C84.3829 42.007 83.898 41.1618 83.4132 40.3165C83.4088 40.3254 83.4043 40.3343 83.3954 40.3432H86.291C85.1968 38.1723 85.4593 36.0236 85.2636 33.6791C85.2235 33.2165 84.4629 33.0341 84.3918 33.559H84.3873Z" fill="#154F27"/>
<path d="M90.7168 54.4685C90.8903 56.5326 92.2069 57.8361 93.6747 59.1885C94.6799 60.1138 95.6407 61.1103 96.5747 62.1112C98.2116 63.864 97.7801 65.1941 96.3701 66.7823C93.0698 70.4969 92.8696 73.7845 96.8461 76.9252C99.9062 79.3453 105.097 82.3659 109.167 81.1826C113.624 79.888 113.873 73.0772 114.785 69.4693C115.372 67.1382 111.849 66.1684 111.191 68.4772C110.515 70.8573 110.074 78.0952 106.587 77.4769C104.661 77.1343 96.8905 74.2338 97.5088 71.6269C98.265 68.4328 103.211 66.5287 100.96 62.5428C98.7898 58.6947 93.6302 58.1519 91.6998 54.2015C91.473 53.7389 90.6724 53.948 90.7124 54.4685H90.7168Z" fill="#154F27"/>
<path d="M112.16 68.6694C115.367 70.2487 118.423 71.0138 122.012 71.0494C122.946 71.0583 123.934 70.6891 124.815 70.4355C126.758 69.875 126.687 69.5636 127.715 71.3964C130.054 75.5604 130.134 81.2635 136.215 79.444C140.204 78.2473 146.387 75.507 148.006 71.3163C149.91 66.3783 143.62 60.6618 140.213 57.9837C138.697 56.7915 136.762 58.2284 137.571 60.0212C138.906 62.9662 146.823 67.4816 143.634 70.9649C142.135 72.602 139.889 73.6608 137.923 74.6128C137.033 75.0443 136.112 75.3913 135.183 75.7072C133.666 76.2188 134.048 76.4545 133.408 75.031C132.354 72.6776 130.512 66.2894 127.172 66.3205C125.571 66.3383 124.032 67.1702 122.568 67.7352C119.691 68.8473 115.372 68.2379 112.36 67.9042C111.951 67.8597 111.796 68.4959 112.151 68.6738L112.16 68.6694Z" fill="#154F27"/>
<path d="M140.12 61.0754C143.705 60.4703 145.898 57.8501 147.797 54.9852C149.483 52.4361 150.773 51.6887 153.788 52.3471C155.892 52.8098 157.894 53.6328 160.007 54.0598C160.794 54.22 161.581 53.9664 162.004 53.2457C164.859 48.4145 165.682 42.2042 164.441 36.7502C164.232 35.8293 163.316 35.5312 162.493 35.6424C158.414 36.2119 154.371 34.8595 150.337 35.3266C148.936 35.4867 148.366 37.631 149.977 37.978C154.069 38.8588 158.752 39.2192 162.911 38.752C162.404 38.365 161.892 37.978 161.385 37.5909C162.288 42.1553 161.345 47.4758 158.944 51.4618C159.611 51.1905 160.278 50.9191 160.941 50.6477C157.289 49.8737 152.023 46.8708 148.322 48.9973C146.325 50.145 145.173 52.0313 144.101 54.0198C142.864 56.3198 140.809 57.9836 139.417 60.1767C139.101 60.675 139.617 61.1643 140.111 61.0798L140.12 61.0754Z" fill="#154F27"/>
<path d="M75.7948 26.1449C79.1486 28.2624 82.7336 30.1842 86.2296 32.0527C85.9539 31.3765 85.6781 30.7003 85.4023 30.0241C84.3704 33.3695 82.5468 36.9417 83.1695 40.5051C83.4408 42.0666 85.6381 41.8041 86.0606 40.5051C87.0792 37.3821 87.8932 34.1346 88.8628 30.9805C89.1653 29.9885 88.507 29.0943 87.6085 28.7696C83.8411 27.4083 79.9714 26.5808 76.1951 25.1751C75.6125 24.9571 75.3011 25.8335 75.7859 26.1404L75.7948 26.1449Z" fill="#154F27"/>
<path d="M76.643 25.9578C79.374 23.6178 80.3214 19.6496 83.2526 17.5543C86.2194 15.4323 90.7118 21.3624 93.2338 22.0208C94.1278 22.2521 95.2042 21.3802 94.8439 20.4104C93.6252 17.1317 86.8021 13.6662 83.346 14.4714C78.8492 15.5213 77.1545 21.7761 76.0248 25.593C75.9136 25.9712 76.3761 26.1803 76.643 25.9534V25.9578Z" fill="#154F27"/>
<path d="M94.4844 21.3571C97.5579 18.3053 101.904 17.3177 106.071 16.6504C106.845 16.5259 107.317 15.6851 107.348 14.9733C107.508 11.014 105.844 7.49513 104.532 3.85169C104.265 4.50564 103.998 5.15959 103.732 5.81354C106.774 4.08746 110.604 3.58477 114.042 3.58032C119.086 3.57142 118.045 8.5628 118.276 12.2463C118.41 14.3371 121.354 14.3238 121.51 12.2463C121.817 8.15353 121.986 2.41477 117.431 0.684249C113.032 -0.983994 105.951 0.648659 101.975 2.8107C101.321 3.16659 100.934 4.05632 101.174 4.77256C102.308 8.11349 103.856 11.3788 103.865 14.9689C104.292 14.4083 104.715 13.8522 105.142 13.2917C101.054 14.9867 94.9781 15.9476 93.0966 20.5475C92.7675 21.3527 93.9329 21.8954 94.4799 21.3527L94.4844 21.3571Z" fill="#154F27"/>
<path d="M120.513 13.7731C123.818 13.4617 127.448 14.3291 130.174 16.2554C131.122 16.9272 132.283 16.1887 132.63 15.2589C133.719 12.3139 135.076 9.8538 137.055 7.43819C136.023 7.53161 135.89 7.66952 136.65 7.84746C137.798 8.27009 138.861 8.7372 139.92 9.36001C141.29 10.1697 142.548 11.1751 143.878 12.0514C145.061 12.8344 146.222 13.6352 147.33 14.5249C148.851 15.7483 149.652 16.4645 148.197 18.0482C146.374 20.0323 143.963 21.4025 142.17 23.3999C140.729 25.0059 142.86 27.0122 144.488 25.7177C146.939 23.7692 151.502 20.8642 152.338 17.6434C153.228 14.2179 149.02 11.7445 146.663 10.1296C144.955 8.96408 143.229 7.79853 141.485 6.68192C140.213 5.86337 137.522 4.22182 135.908 4.5955C132.563 5.37402 130.441 11.6244 129.414 14.3692C129.952 13.9599 130.486 13.5506 131.024 13.1414C127.385 13.0568 123.996 11.4909 120.376 12.7143C119.828 12.9011 119.882 13.8353 120.518 13.7731H120.513Z" fill="#154F27"/>
<path d="M142.338 25.6937C144.104 25.5202 145.056 29.1147 145.434 30.3292C146.057 32.3355 146.252 34.413 146.866 36.4016C147.266 37.6917 149.152 38.0832 149.842 36.7886C151.394 33.8792 149.41 29.8799 147.907 27.3041C146.813 25.4223 144.064 22.4862 141.965 24.7906C141.684 25.102 141.849 25.7426 142.338 25.6937Z" fill="#154F27"/>
</g>
<defs>
<clipPath id="clip0_1233_527">
<rect width="165" height="127" fill="white"/>
</clipPath>
</defs>
</svg>
