<svg width="105" height="126" viewBox="0 0 105 126" fill="none" xmlns="http://www.w3.org/2000/svg">
<g clip-path="url(#clip0_1233_615)">
<path d="M20.8465 34.2501C22.0551 34.5169 23.5336 34.2244 24.7872 34.3015C26.8025 34.4205 28.8018 34.7065 30.8171 34.8319C36.4967 35.1886 42.022 35.1661 47.6469 36.2172C48.8362 36.4389 49.3216 34.7708 48.1484 34.3947C42.562 32.6045 36.5899 33.1187 30.8171 33.093C28.5993 33.0834 26.3911 32.8809 24.17 32.9162C23.1318 32.9323 21.3286 32.8327 20.6729 33.8226C20.5733 33.9737 20.6697 34.2083 20.8465 34.2469V34.2501Z" fill="#D8E4C9"/>
<path d="M21.1647 40.2472C24.7165 41.6518 28.9014 40.6682 32.6043 40.5718C37.6024 40.4432 42.5524 40.1797 47.5248 40.8771C48.5791 41.025 49.0677 39.5401 47.978 39.2315C39.2963 36.7888 30.0489 40.4079 21.2387 39.7072C20.9044 39.6815 20.9012 40.1411 21.1647 40.2472Z" fill="#D8E4C9"/>
<path d="M24.0842 45.5502C29.2753 45.8845 34.4631 45.7141 39.6155 46.5594C40.583 46.7169 41.0201 45.277 40.0269 45.0649C34.7909 43.9399 29.391 44.5185 24.0842 44.5988C23.4671 44.6085 23.4767 45.5084 24.0842 45.547V45.5502Z" fill="#D8E4C9"/>
<path d="M23.1839 50.4694C26.0993 50.6012 29.0242 50.6365 31.9396 50.5047C32.8235 50.4662 32.817 49.1934 31.9396 49.1387C29.0242 48.9555 26.1025 49.1548 23.1839 49.1323C22.3193 49.1259 22.3289 50.4276 23.1839 50.4662V50.4694Z" fill="#D8E4C9"/>
<path d="M20.5387 67.6066C24.1933 68.9147 28.1854 68.9211 32.0201 68.8761C36.205 68.8279 40.3803 68.7411 44.5653 68.7508C53.2984 68.7733 61.919 69.2361 70.6232 69.8243C71.7964 69.9047 72.0568 67.9922 70.8997 67.7705C62.6069 66.1731 53.8963 66.5298 45.4942 66.7098C37.2207 66.8866 28.8829 67.7833 20.6384 66.8416C20.1755 66.7902 20.1466 67.4683 20.5355 67.6066H20.5387Z" fill="#D8E4C9"/>
<path d="M22.5724 72.5306C22.4599 72.5595 22.3506 72.5885 22.2381 72.6174C21.7624 72.6592 21.3317 73.1831 21.6467 73.6459C22.1031 74.3144 22.476 74.202 23.3278 74.2694C25.5359 74.4494 27.7538 74.5234 29.9652 74.5684C34.4137 74.6584 38.8783 74.4462 43.3204 74.2373C52.2464 73.8163 61.0695 73.6266 69.9858 74.3884C71.249 74.4977 71.5448 72.3474 70.2848 72.1674C62.6284 71.0714 54.8371 71.4764 47.1422 71.9199C43.0022 72.1578 38.8654 72.4503 34.7255 72.6592C32.8227 72.7556 30.9198 72.8038 29.0138 72.8488C28.0656 72.8713 27.1141 72.8777 26.1659 72.8809C25.822 72.8809 22.9195 73.0738 22.8263 72.9517C22.746 73.2634 22.6624 73.5752 22.582 73.887C22.8585 73.7198 22.9838 73.572 23.1767 73.3116C23.4628 72.9292 22.9903 72.386 22.5692 72.5242L22.5724 72.5306Z" fill="#D8E4C9"/>
<path d="M23.2423 77.8116C22.8084 77.9466 22.3712 78.0623 21.9276 78.1588C21.4552 78.2713 21.5323 78.8916 21.9276 79.0362C24.6019 80.0358 27.4883 79.9651 30.304 79.9105C33.6372 79.8494 36.9446 79.9233 40.2778 80.0519C48.4677 80.3733 56.5709 81.0965 64.6933 82.1989C66.0915 82.3886 66.7536 80.3219 65.2943 80.0197C58.0269 78.5155 50.5409 78.2552 43.1417 78.0881C39.6414 78.0109 36.1218 77.8727 32.6279 78.1041C29.1308 78.3323 25.6594 78.6859 22.1687 78.1556C22.2041 78.432 22.2426 78.7116 22.278 78.988C22.6123 78.6634 23.0012 78.432 23.448 78.297C23.7308 78.1748 23.5283 77.7281 23.2423 77.8084V77.8116Z" fill="#D8E4C9"/>
<path d="M21.1579 86.039C22.6172 87.1189 24.2854 87.2057 26.05 87.3086C28.5764 87.4564 31.0996 87.6621 33.6292 87.7939C39.357 88.0928 45.0591 88.4753 50.7644 89.0635C51.7736 89.1663 51.9665 87.5368 51.0022 87.3118C46.1969 86.1933 41.2695 86.1065 36.3581 86.0422C31.5367 85.9779 26.14 86.4986 21.4086 85.4476C21.039 85.364 20.875 85.8204 21.1611 86.0326L21.1579 86.039Z" fill="#D8E4C9"/>
<path d="M21.858 92.9625C30.4947 93.2325 39.006 92.5093 47.6266 93.7049C48.742 93.8592 49.2627 92.2007 48.1056 91.9725C39.591 90.298 30.2761 90.5422 21.7455 92.1204C21.2537 92.2104 21.3951 92.9464 21.858 92.9625Z" fill="#D8E4C9"/>
<path d="M26.4874 97.5459C31.6623 97.668 36.8308 97.4559 42.0058 97.5909C43.5325 97.6327 43.5293 95.2639 42.0058 95.2221C36.818 95.0839 31.6623 95.5113 26.4874 95.807C25.3752 95.8713 25.3624 97.517 26.4874 97.5427V97.5459Z" fill="#D8E4C9"/>
<path d="M28.3958 105.044C28.8683 104.896 28.8329 104.918 29.2379 104.635C29.7554 104.269 29.1929 103.539 28.7076 103.948C25.6058 106.574 19.8877 110.177 20.2509 114.879C20.283 115.319 20.5177 115.653 20.9484 115.795C24.2687 116.872 27.8526 114.368 30.5076 112.664C34.9464 109.82 39.2889 106.95 43.4353 103.681C44.2389 103.048 43.5767 101.582 42.5964 101.659C39.7678 101.881 37.3282 104.202 35.3547 106.037C33.1947 108.046 30.9222 110.453 29.7619 113.208C29.5144 113.799 30.0254 114.667 30.649 114.766C36.2418 115.682 39.8835 110.151 44.6921 108.451C44.1553 107.914 43.6185 107.377 43.0817 106.84C42.0564 109.701 40.9346 113.134 44.6278 114.41C47.3277 115.342 50.7252 114.226 53.4059 113.719C54.7945 113.455 54.4859 111.086 53.0716 111.24C51.4388 111.42 49.8156 111.71 48.1795 111.861C47.2378 111.948 46.2863 111.954 45.3574 111.761C43.7471 111.43 45.2899 108.438 45.6081 107.531C45.9296 106.622 44.9106 105.593 43.9978 105.921C41.9792 106.647 40.2564 107.882 38.5143 109.103C36.5504 110.479 33.9018 112.719 31.3272 112.314C31.6229 112.835 31.9186 113.355 32.2143 113.873C33.1015 111.7 35.0461 109.817 36.6629 108.181C38.1125 106.712 40.3946 104.214 42.5996 104.018C42.3199 103.343 42.0403 102.672 41.7607 101.997C36.7432 106.046 31.3465 110.016 25.6348 113.053C25.4548 113.15 22.0734 114.586 22.0605 113.94C22.0316 112.568 23.2626 111.073 24.0566 110.071C25.6412 108.075 27.6405 106.458 29.3247 104.555C29.0965 104.378 28.8683 104.202 28.6369 104.025C28.4794 104.179 28.3219 104.333 28.1644 104.488C27.9072 104.674 28.0487 105.14 28.3926 105.031L28.3958 105.044Z" fill="#D8E4C9"/>
<path d="M94.6891 31.3628C94.7951 31.755 93.2812 34.2459 92.9759 34.8534C92.1369 36.5344 91.3591 38.2443 90.5363 39.9349C89.527 42.0048 88.5723 44.1036 87.6081 46.196C86.2195 49.2141 84.3745 52.5536 83.6738 55.8127C84.2974 55.6488 84.9209 55.4848 85.5413 55.3177C85.3774 55.1538 85.2006 55.022 85.0077 54.8902C84.2845 54.3952 83.4617 55.2052 83.632 55.9477C83.632 56.0023 83.632 56.0537 83.632 56.1084C83.5677 57.1305 84.8727 57.5226 85.5413 56.899C86.4606 56.0441 86.6791 54.0288 87.0906 52.875C87.7977 50.879 88.6109 48.9184 89.4241 46.961C90.4366 44.5279 91.4748 42.1044 92.5098 39.681C92.9951 38.5464 96.6112 31.8 95.2387 30.9386C94.9558 30.7618 94.6055 31.0511 94.6891 31.3628Z" fill="#D8E4C9"/>
<path d="M87.7633 29.7463C88.5058 31.3566 87.8597 33.8957 87.5833 35.5381C87.2619 37.4602 86.9276 39.3629 86.693 41.2946C86.3298 44.2773 86.0598 47.2729 85.7158 50.2588C85.3462 53.4826 84.4591 56.7449 84.3369 59.9815C84.2887 61.2672 86.0276 61.3283 86.4358 60.2644C87.609 57.2078 87.6605 53.4954 87.9433 50.2588C88.2583 46.6911 88.4512 43.1138 88.7147 39.5397C88.9076 36.962 90.7333 31.2601 88.374 29.2706C88.0269 28.9781 87.5737 29.3381 87.7601 29.7431L87.7633 29.7463Z" fill="#D8E4C9"/>
<path d="M32.9927 21.4064C36.3034 21.8982 39.6398 21.49 42.9665 21.4C47.1386 21.2875 51.33 21.4964 55.4925 21.7728C63.541 22.3096 71.5059 23.5824 79.5415 24.2156C80.5894 24.2991 80.8336 22.5442 79.7922 22.3739C72.0909 21.1204 64.2481 20.4518 56.4567 20.0372C48.5818 19.6194 40.9255 20.2943 33.0827 20.7604C32.7323 20.7797 32.6102 21.3486 32.9959 21.4064H32.9927Z" fill="#D8E4C9"/>
<path d="M6.04011 87.3119C5.81833 90.4875 5.44226 93.6373 5.8119 96.8161C5.94368 97.9571 7.74045 97.986 7.62474 96.8161C7.31296 93.6534 7.48653 90.4843 7.48331 87.3119C7.48331 86.3734 6.1044 86.3927 6.04011 87.3119Z" fill="#D8E4C9"/>
<path d="M10.784 21.7909C12.3847 22.0481 10.7968 28.6563 10.71 29.9773C10.379 35.1392 9.98683 40.3011 9.62362 45.4597C8.90041 55.7224 8.69791 66.0108 8.37327 76.2928C8.10327 84.8616 7.42828 93.4112 7.30293 101.983C7.20007 108.874 7.24186 115.765 7.14864 122.657C7.11971 124.669 10.17 124.649 10.2568 122.657C10.5782 115.312 10.3275 107.939 10.4143 100.592C10.53 90.8881 11.1504 81.1975 11.3111 71.4941C11.4975 60.2254 11.7547 48.9856 12.2464 37.7233C12.4329 33.5 12.4425 29.2927 12.7286 25.0758C12.8122 23.8255 12.8122 20.7335 10.784 21.3217C10.5686 21.3827 10.5333 21.7524 10.784 21.7909Z" fill="#144F27"/>
<path d="M84.6187 22.1264C84.5769 31.2802 82.9762 40.1769 82.3076 49.2825C81.4559 60.8823 81.3498 72.5335 80.9769 84.1525C80.7551 91.0147 80.633 97.8832 80.5109 104.749C80.4016 110.775 79.9452 116.943 80.4562 122.947C80.5687 124.287 82.7576 124.814 82.9794 123.288C83.799 117.621 83.4873 111.743 83.5676 106.021C83.6673 99.0532 83.7026 92.085 83.8923 85.1168C84.2169 73.1731 84.1912 61.2198 84.728 49.2793C84.9337 44.6735 85.509 40.0869 85.8369 35.4907C86.1487 31.1356 86.4862 26.2726 85.1008 22.0589C85.0172 21.8018 84.6251 21.8403 84.6219 22.1232L84.6187 22.1264Z" fill="#144F27"/>
<path d="M11.3396 21.8697C23.4927 22.7825 35.6522 23.4093 47.8278 23.9042C54.0731 24.1581 60.3183 24.4121 66.5636 24.666C69.5208 24.7849 72.4811 24.907 75.4382 25.026C78.646 25.1577 82.1174 25.6366 85.2995 25.2188C86.6784 25.0356 87.2988 22.8821 85.6595 22.5607C82.982 22.0336 80.1342 22.2136 77.4117 22.1429C74.1236 22.0593 70.8386 21.995 67.5504 21.9243C61.3051 21.7926 55.0598 21.6576 48.8145 21.5258C36.3207 21.259 23.8366 21.1144 11.3428 21.2783C10.9539 21.2847 10.9635 21.844 11.3428 21.8729L11.3396 21.8697Z" fill="#144F27"/>
<path d="M8.97004 124.705C20.8692 126.055 33.0126 125.682 44.9857 125.733C56.9363 125.785 69.0766 126.399 81.0014 125.57C82.4382 125.47 82.4382 123.439 81.0014 123.339C69.0733 122.51 56.9363 123.124 44.9857 123.175C33.0126 123.226 20.866 122.854 8.97004 124.204C8.6454 124.239 8.6454 124.67 8.97004 124.705Z" fill="#144F27"/>
<path d="M103.482 22.4639C101.688 26.7387 100.322 31.187 98.4582 35.4586C96.5489 39.8362 94.4886 44.1399 92.7625 48.5947C90.6025 54.1712 88.6675 59.8313 86.739 65.4881C85.8261 68.1719 84.9165 70.8557 84.0165 73.5427C83.0908 76.3133 81.8855 79.0871 81.503 81.9926C81.3294 83.3201 83.2997 83.6608 83.8976 82.6419C85.2251 80.3824 85.8647 77.7307 86.6908 75.2591C87.6872 72.2731 88.6611 69.2808 89.6447 66.2917C91.5089 60.6187 93.4278 54.9587 95.4143 49.3275C97.0503 44.6831 99.0656 40.1833 100.872 35.6064C102.408 31.7141 104.44 26.8094 103.961 22.5314C103.929 22.2485 103.591 22.21 103.482 22.4671V22.4639Z" fill="#144F27"/>
<path d="M33.5636 0.588415C44.9131 5.04962 56.3559 9.23762 67.8533 13.3067C73.7482 15.3927 79.6431 17.4786 85.5349 19.5646C88.3281 20.5513 91.118 21.5413 93.9112 22.528C96.9358 23.5983 100.112 25.0865 103.274 25.62C104.701 25.8611 105.759 23.9229 104.319 23.1451C101.924 21.8563 99.1376 21.1941 96.563 20.3263C93.4484 19.2753 90.3273 18.2468 87.2063 17.2086C81.2792 15.2384 75.3553 13.2681 69.4282 11.2979C57.5741 7.36378 45.6974 3.54219 33.7211 0.0163013C33.345 -0.0929788 33.2133 0.453422 33.5636 0.591629V0.588415Z" fill="#144F27"/>
<path d="M1.2049 97.7C2.38774 98.4586 3.64773 99.1303 4.84986 99.8664C5.98449 100.564 7.3634 101.078 8.47875 100.149C9.01874 99.6992 8.88696 98.6354 8.24411 98.3364C7.23805 97.8736 6.03592 98.0922 4.94307 97.7675C3.80844 97.4301 2.65774 96.6844 1.43311 96.8419C0.992755 96.8997 0.787043 97.4333 1.20168 97.6968L1.2049 97.7Z" fill="#144F27"/>
<path d="M9.19903 71.0041C5.55407 78.8595 2.03125 87.2869 0.0416255 95.7272C-0.360156 97.4339 2.2691 98.1603 2.66767 96.4503C4.62836 88.0133 9.4626 79.9105 9.72295 71.1456C9.7326 70.8756 9.31796 70.7438 9.19582 71.0041H9.19903Z" fill="#144F27"/>
<path d="M33.5895 0.282246C32.0434 4.13276 30.192 7.78401 28.556 11.5863C27.2446 14.6333 25.2421 18.0821 24.6796 21.3476C24.4385 22.7329 26.126 23.4914 26.9424 22.3022C29.022 19.2681 30.0506 15.2118 31.3459 11.7952C32.6959 8.24041 34.2709 4.22597 34.3866 0.39474C34.4027 -0.0970202 33.7502 -0.109877 33.5895 0.28546V0.282246Z" fill="#144F27"/>
</g>
<defs>
<clipPath id="clip0_1233_615">
<rect width="105" height="126" fill="white"/>
</clipPath>
</defs>
</svg>
