<svg width="152" height="132" viewBox="0 0 152 132" fill="none" xmlns="http://www.w3.org/2000/svg">
<g clip-path="url(#clip0_1233_353)">
<path d="M36.6719 78.7695C36.6719 78.7695 36.6992 78.7785 36.7113 78.7846C36.7355 78.7876 36.7325 78.7846 36.6719 78.7695Z" fill="#D8E4C9"/>
<path d="M30.5712 87.5711C30.4635 87.6785 30.6012 87.8605 30.7328 87.7829C31.5376 87.3116 32.2317 86.6732 32.8839 85.9721C33.1143 85.9691 33.3447 85.9662 33.575 85.9721C34.4217 85.9841 35.2654 85.996 36.1121 86.002C35.6454 86.4047 35.1487 86.7627 34.5983 87.0341C34.329 87.1684 34.5175 87.6188 34.8047 87.5204C35.7441 87.1952 36.537 86.6463 37.2759 86.0079C38.362 86.0079 39.448 86.002 40.5311 85.9841C40.0942 86.4912 39.6574 86.9894 39.1817 87.4458C38.8766 87.7382 39.3164 88.1379 39.6305 87.8933C40.3994 87.2967 41.1803 86.6433 41.9103 85.9482C42.5535 85.9304 43.1968 85.9065 43.84 85.8737C44.3127 86.172 44.7914 86.4643 45.2791 86.7269C46.0959 87.1684 47.4033 87.4548 47.6935 88.4541C47.9358 89.2924 49.2612 88.9285 49.0009 88.0932C48.6958 87.1147 47.9299 86.5896 47.0144 86.2108C46.2036 85.8767 45.4377 85.4829 44.6807 85.0652C44.6209 84.8027 44.4115 84.57 44.0554 84.5312C43.9268 84.5163 43.7981 84.5104 43.6725 84.5014C43.5857 84.4507 43.496 84.4 43.4092 84.3523C43.7921 83.872 43.1998 83.2813 42.7211 83.6781C42.6553 83.7317 42.5954 83.7914 42.5296 83.8481C41.8594 83.4603 41.1922 83.0695 40.5311 82.6667C40.543 82.6459 40.555 82.625 40.567 82.6011C40.6926 82.3177 40.4832 81.8702 40.1122 82.0105C39.9895 82.0552 39.8728 82.1178 39.7562 82.1865C39.3942 81.9597 39.0351 81.7271 38.6821 81.4914C38.4667 81.3482 38.2573 81.1931 38.0448 81.035C38.2573 80.9365 38.4787 80.853 38.706 80.7814C39.077 80.665 39.1518 80.0266 38.706 79.958C38.1884 79.8775 37.6709 80.0594 37.1712 80.3757C36.9438 80.2026 36.7105 80.0356 36.4741 79.8775C36.6297 79.7283 36.7643 79.5732 36.8601 79.4091C36.89 79.3703 36.9109 79.3256 36.9259 79.2779C36.9289 79.2719 36.9319 79.2629 36.9349 79.257C36.9349 79.257 36.9349 79.257 36.9319 79.257C36.9827 79.075 36.9199 78.8632 36.7045 78.7797C36.6566 78.7707 36.4951 78.7379 36.4442 78.7379C36.2587 78.7468 36.1331 78.8184 35.9895 78.9288C35.8189 79.0601 35.6544 79.1943 35.4898 79.3286C35.3821 79.2808 35.2684 79.245 35.1577 79.2033C35.3223 79.0123 35.4808 78.8214 35.6244 78.6245C35.8129 78.371 35.6903 78.0607 35.4659 77.8936C35.8219 77.5953 35.4868 76.8615 35.0081 77.0613C32.2407 78.2099 29.7694 80.2026 27.5315 82.1566C25.548 83.8899 23.5464 85.7812 21.9069 87.8754C21.7783 87.9768 21.6496 88.0782 21.5239 88.1827C20.7221 88.8419 19.9592 89.5519 19.2382 90.2977C19.0766 90.4648 18.7715 90.7661 18.8373 91.0286C18.8792 91.1927 19.0407 91.2166 19.1544 91.1479C19.1544 91.1509 19.1574 91.1539 19.1604 91.1599C19.5344 90.96 19.9173 90.5692 20.2345 90.3127C21.0153 89.6772 21.8052 89.0537 22.616 88.4571C23.334 87.9291 24.0879 87.4607 24.8568 87.0073C24.8568 87.3981 24.8568 87.7889 24.8568 88.1797C24.4679 88.4571 24.079 88.7345 23.687 89.009C23.0019 89.4953 22.3467 90.0412 22.0026 90.8228C21.9368 90.9719 22.1163 91.145 22.242 91.0077C22.9929 90.1993 23.9174 89.5669 24.8598 88.9643C24.8808 90.9033 24.9346 92.8424 24.8838 94.7815C24.806 97.7169 24.7731 100.658 24.6803 103.594C24.6145 105.643 24.4978 107.687 24.5427 109.739C24.5726 111.156 24.4529 113.817 25.8172 114.712C26.3587 115.067 27.0618 114.485 26.8883 113.892C26.7088 113.274 26.4694 112.707 26.3558 112.066C26.1762 111.073 26.1493 110.046 26.1194 109.041C26.0626 107.069 26.1583 105.1 26.1673 103.128C26.1822 100.238 26.1792 97.3351 26.1044 94.4474C26.0506 92.4635 26.0416 90.3932 25.7783 88.3855C26.2002 88.114 26.619 87.8396 27.0169 87.5472C27.6333 87.0938 28.2436 86.6284 28.8479 86.1571C29.9101 86.1243 30.9662 86.0407 32.0283 85.996C31.5615 86.5359 31.0828 87.0669 30.5742 87.5711H30.5712ZM41.7039 84.4895C41.7039 84.4895 41.7098 84.4954 41.7158 84.4954C40.6956 84.5491 39.6694 84.6625 38.6761 84.7311C38.6522 84.7311 38.6282 84.7311 38.6013 84.7341C38.8197 84.5104 39.0351 84.2866 39.2506 84.0629C39.4719 83.8362 39.7412 83.6094 39.9865 83.3678C40.555 83.7467 41.1294 84.1196 41.7039 84.4865V84.4895ZM38.003 81.9717C38.356 82.2372 38.712 82.4937 39.074 82.7473C38.5385 83.2932 38.0688 83.9883 37.629 84.4775C37.5362 84.582 37.4405 84.6834 37.3447 84.7878C36.2019 84.8087 35.062 84.7759 33.9191 84.7878C34.9692 83.5349 36.0014 82.2521 37.3328 81.4257C37.5542 81.6167 37.7756 81.8016 38.003 81.9747V81.9717ZM35.0739 79.6776C34.9513 79.779 34.8316 79.8805 34.7089 79.9849C33.7157 80.8261 32.7313 81.6763 31.768 82.5504C30.7597 83.4633 29.7305 84.3523 28.6834 85.2204C28.3752 85.2562 28.0641 85.292 27.7559 85.3248C27.7559 85.3248 27.7529 85.3248 27.7499 85.3248C29.195 84.4358 30.5323 83.4185 31.8129 82.3028C32.7972 81.4466 33.9191 80.5487 34.8466 79.5583C34.9244 79.5941 34.9992 79.6388 35.0739 79.6806V79.6776ZM27.8038 82.8935C29.5989 81.378 31.4897 80.1102 33.5002 78.9736C32.6356 79.785 31.8278 80.6949 30.9721 81.4615C29.4343 82.8398 27.7769 84.0241 26.0177 85.104C25.7364 85.277 25.4582 85.4501 25.177 85.6261C25.0723 85.5366 24.8808 85.5962 24.8778 85.7603C24.8778 85.7782 24.8778 85.7961 24.8778 85.814C24.6714 85.9453 24.4679 86.0765 24.2645 86.2078C25.4133 85.0712 26.5652 83.9406 27.8068 82.8935H27.8038ZM26.3438 87.0908C26.1164 87.2638 25.886 87.4279 25.6557 87.598C25.6018 87.2817 25.542 86.9655 25.4702 86.6523C25.6946 86.524 25.9219 86.3928 26.1463 86.2645C26.5831 86.2645 27.0229 86.2376 27.4567 86.2108C27.0858 86.5061 26.7148 86.7985 26.3378 87.0878L26.3438 87.0908ZM30.2481 85.0384C30.9572 84.4567 31.6573 83.866 32.3454 83.2604C33.1981 82.5086 34.0717 81.7778 34.9453 81.0469C35.2235 80.8142 35.6185 80.5606 35.9895 80.2832C36.1989 80.4473 36.4053 80.6173 36.6088 80.7933C35.8309 81.4466 35.1428 82.3237 34.6641 82.8666C34.1046 83.4991 33.5661 84.1554 33.0275 84.8057C32.0941 84.8415 31.1696 84.931 30.2481 85.0354V85.0384Z" fill="#D8E4C9"/>
<path d="M66.3124 45.0529C66.1807 45.0051 66.091 45.1066 66.079 45.2169C65.5465 45.2229 65.0139 45.2319 64.4784 45.2468C63.2308 45.2796 61.9802 45.3363 60.7356 45.4019C59.8799 45.4466 59.0183 45.5839 58.399 46.2193C58.2255 46.3983 58.4439 46.625 58.6473 46.5385C59.6226 46.1268 60.7745 46.2969 61.8037 46.3297C63.0573 46.3684 64.3198 46.3118 65.5764 46.3207C65.8456 46.3207 66.1119 46.3297 66.3812 46.3326C66.6056 47.2485 66.5218 48.3344 66.5128 49.2025C66.4979 50.9297 66.3513 52.657 66.2047 54.3783C66.091 55.6879 65.9504 56.9975 65.8337 58.3072C65.7559 59.1902 65.705 60.0792 65.6691 60.9622C65.6272 62.0332 65.5255 63.5456 66.1538 64.4674C66.4021 64.8314 67.0723 64.8433 67.171 64.3362C67.3775 63.2742 67.0214 62.06 67.0304 60.9652C67.0364 60.0434 67.0873 59.1186 67.1501 58.1968C67.2099 57.3466 67.2757 56.4993 67.3416 55.6491C67.3834 55.6909 67.4343 55.7237 67.4882 55.7446C69.3521 56.5083 71.7096 56.0787 73.6453 55.8878C75.8473 55.67 78.0403 55.4791 80.2244 55.8729C80.2154 58.9575 80.2004 62.0391 80.2034 65.1237C80.2034 65.1476 80.2094 65.1715 80.2094 65.1923C76.9184 65.2699 73.6244 65.1327 70.3304 65.1178C67.9848 65.1088 65.6721 65.2431 63.3355 65.44C62.3781 65.5205 61.4207 65.5891 60.4633 65.6339C59.859 65.6637 59.2756 65.5981 58.6952 65.7472C58.6114 65.7681 58.5785 65.8665 58.6174 65.9381C58.8388 66.3647 59.3175 66.3677 59.7483 66.4065C60.7087 66.49 61.678 66.4602 62.6414 66.4334C64.9631 66.3647 67.2698 66.2365 69.5914 66.2752C73.032 66.3319 76.4666 66.5616 79.9073 66.5318C83.2551 66.502 86.6149 66.4542 89.9598 66.3647C90.8424 66.3409 90.8244 65.079 89.9598 65.0134C87.2163 64.8045 84.4189 65.0283 81.6575 65.1476C81.6575 65.1416 81.6575 65.1357 81.6575 65.1267C81.6575 61.9735 81.5647 58.8232 81.469 55.673C81.5677 55.4791 81.5677 55.2345 81.451 55.0406C81.448 54.9153 81.4421 54.787 81.4391 54.6617C81.3882 52.9374 81.3373 51.2102 81.2685 49.4859C81.2326 48.5939 81.1967 47.7049 81.1489 46.8129C81.1459 46.7563 81.1459 46.6996 81.1429 46.6399C81.3074 46.6369 81.469 46.6339 81.6335 46.631C82.9679 46.5892 84.3023 46.5385 85.6396 46.5087C86.9979 46.4758 88.416 46.619 89.7593 46.4341C90.4026 46.3446 90.3667 45.2975 89.7593 45.1782C88.5477 44.9425 87.2313 45.0737 86.0016 45.1006C84.5446 45.1334 83.0906 45.199 81.6365 45.2557C81.4361 45.2647 81.2386 45.2647 81.0382 45.2706C80.9933 45.1066 80.9305 44.9514 80.8347 44.8112C80.7898 44.7426 80.6971 44.7426 80.6522 44.8112C80.5535 44.9574 80.4937 45.1185 80.4518 45.2856C77.9297 45.3512 75.4135 45.3333 72.8884 45.2706C70.851 45.2199 68.8105 45.1931 66.7701 45.208C66.6684 45.1185 66.5308 45.0648 66.3991 45.1185C66.5038 45.0767 66.4171 45.0946 66.3064 45.0529H66.3124ZM73.6244 46.5683C75.8743 46.6578 78.1121 46.6906 80.359 46.6519C80.3231 47.4812 80.2962 48.3105 80.2782 49.1428C80.2423 50.8641 80.2363 52.5854 80.2304 54.3067C80.2304 54.3753 80.2304 54.4469 80.2304 54.5155C78.4353 54.1546 76.335 54.4588 74.6117 54.6915C72.314 54.9988 69.9804 55.4642 67.6617 55.1151C67.548 55.0972 67.4552 55.1151 67.3745 55.1778C67.4044 54.7751 67.4373 54.3723 67.4642 53.9696C67.5749 52.2573 67.6377 50.536 67.5779 48.8206C67.554 48.0599 67.5271 47.153 67.3087 46.3476C69.4119 46.3923 71.5182 46.4848 73.6184 46.5683H73.6244Z" fill="#D8E4C9"/>
<path d="M72.2908 35.1901C73.4277 35.1662 74.6842 35.2498 75.7972 34.9902C76.3387 34.8649 76.1682 34.1221 75.6745 34.0804C74.4868 33.976 73.1853 34.2743 72.0035 34.3996C71.1329 34.492 69.993 34.4025 69.1852 34.7605C69.0207 34.8321 69.1045 35.041 69.2301 35.0917C70.0828 35.4437 71.3872 35.205 72.2937 35.1871L72.2908 35.1901Z" fill="#D8E4C9"/>
<path d="M71.0195 18.8692C70.3284 20.5428 69.5475 22.097 68.5034 23.6244C67.2139 25.5098 65.703 27.2341 64.249 28.9942C61.5923 32.213 58.4927 35.7481 57.6819 39.9574C57.658 40.0856 57.8315 40.1751 57.9003 40.0498C60.0604 36.0911 62.8189 32.75 65.8048 29.3879C68.1055 26.7955 70.7772 23.8004 72.1654 20.4652C72.4287 20.8172 72.6979 21.1663 72.9672 21.5123C72.3359 22.2104 71.8512 23.1173 71.4234 23.8392C70.5528 25.3129 69.736 26.7269 68.267 27.6816C68.1653 27.7472 68.1952 27.9351 68.3329 27.9232C69.73 27.8188 70.6814 26.533 71.4144 25.474C71.9081 24.761 72.3539 24.0182 72.8475 23.3082C73.0929 22.9532 73.3651 22.6549 73.6463 22.3715C73.9336 22.7265 74.2208 23.0785 74.508 23.4275C74.6307 23.5737 74.7563 23.7199 74.879 23.8661C74.0652 24.9669 73.3202 26.1273 72.297 27.061C72.0936 27.246 72.3718 27.6129 72.5932 27.4429C73.6553 26.6404 74.6037 25.6053 75.4474 24.5104C76.5813 25.7693 77.787 26.9656 78.8761 28.2663C80.3481 30.0204 81.5328 32.034 82.8881 33.8806C84.1955 35.6586 85.5808 37.7707 87.34 39.1221C87.9234 39.5695 88.7491 38.7014 88.3422 38.1227C87.7259 37.2456 86.9181 36.4879 86.224 35.6675C85.4491 34.7487 84.7191 33.7971 84.0041 32.8335C82.6907 31.0675 81.5119 29.191 80.1057 27.4966C78.912 26.0557 77.5387 24.7729 76.2343 23.4335C76.3988 23.1948 76.5604 22.9562 76.716 22.7175C76.9284 22.3894 76.4497 22.0374 76.1804 22.3058C76.0069 22.4819 75.8394 22.6638 75.6778 22.8518C75.6569 22.8279 75.6359 22.807 75.615 22.7832C75.241 22.3834 74.876 21.9688 74.511 21.5481C74.5708 21.4914 74.6277 21.4348 74.6875 21.3781C75.0076 21.0648 74.6845 20.4026 74.2238 20.5846C74.0921 20.6382 73.9635 20.7039 73.8408 20.7755C73.425 20.2952 73.0031 19.8209 72.5693 19.3644C72.668 19.0542 72.7578 18.7439 72.8326 18.4307C73.0599 17.4522 71.7046 17.1181 71.3546 18.025C71.3367 18.0697 71.3187 18.1115 71.3008 18.1562C71.1033 17.9892 70.9028 17.8221 70.6964 17.667C70.5199 17.5357 70.2895 17.7893 70.4032 17.9593C70.6007 18.2636 70.8071 18.5679 71.0165 18.8722L71.0195 18.8692Z" fill="#D8E4C9"/>
<path d="M90.7524 43.954C90.5369 44.1568 90.8481 44.4372 91.0665 44.2672C91.9072 43.6169 92.6043 42.8382 93.3164 42.0537C94.0942 41.2005 94.8901 40.6158 95.8295 39.9744C96.2513 39.688 95.9731 39.1272 95.5004 39.1928C94.54 39.327 93.7203 40.4189 93.1458 41.105C92.35 42.0507 91.6559 43.1008 90.7554 43.951L90.7524 43.954Z" fill="#D8E4C9"/>
<path d="M92.3578 45.3959C92.1035 45.4496 92.1663 45.8374 92.4176 45.8404C93.8447 45.8463 94.8589 44.6083 95.6996 43.6119C96.286 42.9139 96.8455 42.1949 97.4708 41.5267C98.0273 40.933 98.7453 40.6407 99.3198 40.1126C99.6159 39.8412 99.3766 39.3609 99.0026 39.3519C97.7191 39.3221 96.5523 41.115 95.8762 42.004C94.9726 43.1943 93.9464 45.0498 92.3548 45.3959H92.3578Z" fill="#D8E4C9"/>
<path d="M97.506 45.5381C98.5202 44.139 99.3669 42.6086 100.552 41.3378C100.833 41.0365 100.384 40.583 100.097 40.8843C98.8433 42.188 98.0744 43.7989 97.123 45.3143C96.9674 45.5619 97.3414 45.7648 97.509 45.5381H97.506Z" fill="#D8E4C9"/>
<path d="M88.4385 43.7135C89.7011 42.3293 91.194 41.0286 92.1933 39.4356C92.4296 39.0597 91.8642 38.6122 91.571 38.9583C90.3563 40.3902 89.1506 41.8937 88.0765 43.436C87.9269 43.6508 88.262 43.9044 88.4385 43.7135Z" fill="#D8E4C9"/>
<path d="M13.241 45.3667C13.8872 44.4419 14.5544 43.538 15.2904 42.6818C15.9815 41.8794 16.8192 41.3096 17.6001 40.6085C17.8604 40.3758 17.5881 39.9164 17.259 40.0238C16.2089 40.3579 15.422 41.3155 14.7429 42.1359C13.986 43.0518 13.3607 44.066 12.8072 45.1131C12.6546 45.4025 13.0585 45.6292 13.244 45.3667H13.241Z" fill="#D8E4C9"/>
<path d="M20.8811 39.9417C18.7988 41.8062 16.2527 43.5663 14.8974 46.0632C14.7598 46.3168 15.1278 46.5286 15.2834 46.2869C16.8631 43.8258 19.6873 42.6445 21.3927 40.3355C21.6231 40.0252 21.1414 39.709 20.8811 39.9417Z" fill="#D8E4C9"/>
<path d="M24.3116 40.4192C22.1993 41.5529 20.509 43.5158 19.2075 45.4907C19.0579 45.7174 19.4169 45.9978 19.5875 45.783C21.0565 43.9245 22.7738 42.4418 24.6826 41.0517C25.0565 40.7802 24.7364 40.1955 24.3146 40.4222L24.3116 40.4192Z" fill="#D8E4C9"/>
<path d="M23.8728 45.456C26.0239 44.033 27.8968 42.2371 29.9671 40.7038C30.371 40.4055 30 39.7283 29.5632 40.0177C27.3792 41.4615 25.617 43.4453 23.5646 45.0622C23.3402 45.2412 23.6334 45.6141 23.8698 45.456H23.8728Z" fill="#D8E4C9"/>
<path d="M42.5571 11.6162C42.9161 11.6461 43.1285 11.2612 43.0627 10.954C42.955 10.4438 42.6708 9.99338 42.5631 9.46834C42.3926 8.62409 42.3566 7.75002 42.3178 6.89086C42.2759 6.02872 42.2699 5.16658 42.2729 4.30444C42.2729 3.8331 42.3836 3.05747 42.1502 2.62789C42.0784 2.49663 41.9019 2.51751 41.8271 2.62789C41.5249 3.06344 41.5608 3.97629 41.5159 4.48045C41.4262 5.49175 41.3574 6.50305 41.3334 7.51733C41.3095 8.50477 41.0672 11.488 42.5571 11.6132V11.6162Z" fill="#D8E4C9"/>
<path d="M51.5831 10.8743C51.6908 11.4322 52.6093 11.4381 52.714 10.8743C52.9115 9.80933 52.708 8.64887 52.6303 7.57492C52.5614 6.60539 52.4687 5.64778 52.4717 4.67825C52.4717 4.28745 52.6332 2.0441 51.7237 2.28573C51.5263 2.33943 51.5592 2.66758 51.7746 2.64968C51.6908 2.65863 51.5293 5.41211 51.5173 5.67165C51.4754 6.53379 51.5203 7.40786 51.5233 8.27299C51.5233 9.13513 51.4216 10.0271 51.5861 10.8743H51.5831Z" fill="#D8E4C9"/>
<path d="M43.8743 64.7657C43.0605 64.8433 42.2408 64.897 41.424 64.9477C39.7695 65.0461 38.112 65.1028 36.4516 65.1386C34.7911 65.1744 33.1276 65.1953 31.4672 65.2192C29.8247 65.246 28.1163 65.1804 26.4888 65.422C26.2225 65.4608 26.2225 65.9172 26.4888 65.956C28.0026 66.1768 29.5823 66.1589 31.1111 66.2185C32.7716 66.2842 34.4321 66.3528 36.0955 66.3856C37.753 66.4184 39.4135 66.4274 41.071 66.3856C41.8907 66.3647 42.7075 66.3259 43.5243 66.2782C44.365 66.2305 45.3343 66.2752 46.1152 65.9471C46.6417 65.7293 46.8392 64.8045 46.1152 64.6792C45.3642 64.5479 44.6252 64.6971 43.8713 64.7657H43.8743Z" fill="#D8E4C9"/>
<path d="M25.7318 47.0007C25.4267 47.1201 25.4357 47.6481 25.8156 47.6183C27.3325 47.49 28.8015 47.3378 30.3273 47.3945C31.7065 47.4452 33.0798 47.5884 34.45 47.7495C34.3932 48.3014 34.4052 48.8742 34.3693 49.4112C34.3064 50.3986 34.2645 51.389 34.2167 52.3764C34.1838 53.0566 34.1568 53.7368 34.1329 54.4169C34.094 54.4169 34.0521 54.4169 34.0132 54.4169C32.4545 54.4468 30.8987 54.5542 29.337 54.5154C28.1014 54.4856 26.8388 54.4289 25.7019 54.9897C25.4596 55.109 25.6391 55.4372 25.8725 55.3954C27.2278 55.1508 28.5711 55.3507 29.9294 55.4491C31.3086 55.5506 32.7058 55.4939 34.091 55.4909C34.0611 56.4724 34.0372 57.4508 34.0102 58.4323C33.9923 59.1035 33.2713 64.4166 34.9497 63.7722C35.7365 63.4709 35.2907 62.4775 35.2518 61.857C35.183 60.7174 35.2878 59.5719 35.2937 58.4323C35.2997 57.4568 35.2937 56.4813 35.2848 55.5028C36.5952 55.5237 37.9026 55.5595 39.21 55.6371C40.6042 55.7206 42.1301 55.8757 43.4764 55.4193C44.2603 55.1538 43.9431 54.0381 43.1383 54.1932C41.7142 54.4647 40.341 54.4557 38.8989 54.411C37.6932 54.3752 36.4845 54.3782 35.2758 54.3961C35.2698 53.8472 35.2668 53.2953 35.2638 52.7464C35.2608 51.7589 35.2578 50.7685 35.2548 49.7811C35.2548 49.1695 35.2937 48.4953 35.2459 47.845C36.6879 48.0299 38.136 48.2596 39.59 48.2686C40.9962 48.2775 42.6806 48.2686 44.0418 47.9166C44.6223 47.7674 44.6791 46.8009 44.0418 46.6905C42.6147 46.4399 41.0381 46.8575 39.59 46.9053C38.0642 46.956 36.5264 46.7412 35.0095 46.601C32.0536 46.3325 28.5651 45.885 25.7259 46.9978L25.7318 47.0007Z" fill="#D8E4C9"/>
<path d="M88.873 84.4011C87.6463 84.3116 86.4017 84.401 85.178 84.4876C83.6791 84.592 82.2042 84.7053 80.7262 84.7829C80.6604 84.6397 80.5946 84.4995 80.5198 84.3593C80.445 84.2191 80.1787 84.2728 80.1996 84.4458C80.2146 84.5651 80.2266 84.6845 80.2385 84.8038C79.0897 84.8545 77.9408 84.8813 76.771 84.8575C74.5929 84.8127 72.4149 84.7173 70.2338 84.6725C69.4709 84.6576 68.708 84.6666 67.9451 84.6666C67.8494 84.5592 67.6788 84.5592 67.5861 84.6666C66.9189 84.6666 66.2547 84.6516 65.5875 84.6039C64.3669 84.5144 63.1402 84.4249 61.9166 84.4816C61.3631 84.5084 60.2681 84.4756 60.0616 85.1469C60.0167 85.296 60.1992 85.4511 60.3339 85.3557C60.8574 84.9858 62.12 85.2513 62.7034 85.296C63.8373 85.3825 64.9682 85.5317 66.1021 85.648C66.5569 85.6958 67.0116 85.7226 67.4664 85.7435C67.3288 88.4791 67.4215 91.2087 67.5412 93.9472C67.61 95.5224 67.6818 97.1005 67.7417 98.6756C67.7955 100.111 67.5711 101.79 67.9421 103.177C68.0917 103.738 68.9533 103.753 69.094 103.177C69.4111 101.891 69.1299 100.352 69.0581 99.0395C68.9803 97.5897 68.8726 96.1429 68.7619 94.696C71.0387 94.6453 73.3124 94.532 75.5922 94.5349C76.6394 94.5349 77.6835 94.5916 78.7277 94.526C79.2273 94.4961 79.706 94.5021 80.1817 94.526C80.1189 95.6805 80.083 96.835 80.1039 97.9984C80.1189 98.8635 80.1488 99.7316 80.1757 100.597C80.1966 101.295 80.065 102.16 80.3403 102.81C80.5826 103.38 81.2946 103.404 81.528 102.81C81.7883 102.148 81.6088 101.295 81.5729 100.597C81.528 99.7316 81.4801 98.8665 81.4412 97.9984C81.3904 96.8648 81.3964 95.7312 81.4233 94.5976C81.4502 94.5976 81.4742 94.6006 81.5011 94.6035C82.1443 94.6393 82.2191 93.8309 81.7973 93.5147C81.6926 93.4371 81.5789 93.3804 81.4562 93.3327C81.4562 93.282 81.4562 93.2283 81.4592 93.1776C81.525 90.9909 81.7494 88.4134 81.1929 86.1671C82.2161 86.1253 83.2423 86.0627 84.2865 85.9881C85.5071 85.9016 86.7338 85.833 87.9575 85.8449C88.6665 85.8509 89.591 85.8718 90.1924 86.1611C90.7369 86.4207 91.5566 85.836 91.1168 85.2393C90.5873 84.5263 89.7077 84.4697 88.8759 84.407L88.873 84.4011ZM80.2714 93.1716C79.9214 93.1836 79.5773 93.2253 79.2782 93.2522C78.1652 93.3506 77.0642 93.3775 75.9482 93.4013C73.6685 93.452 71.3618 93.5475 69.1059 93.9174C69.097 93.9174 69.094 93.9085 69.082 93.9085C68.9264 93.8936 68.8038 93.8756 68.699 93.8756C68.4926 91.1729 68.2862 88.4731 68.0797 85.7703C68.9204 85.7972 69.7611 85.8031 70.5959 85.8419C72.6542 85.9344 74.7096 86.0686 76.768 86.1641C77.9857 86.2208 79.1764 86.2208 80.3642 86.191C80.5257 88.5179 80.427 90.8298 80.2655 93.1746L80.2714 93.1716Z" fill="#D8E4C9"/>
<path d="M91.5791 103.055C91.1872 103.019 90.7204 103.222 90.3345 103.291C89.6195 103.419 88.8894 103.461 88.1654 103.494C86.9118 103.55 85.6493 103.499 84.3957 103.458C81.6731 103.368 78.9865 103.568 76.2669 103.637C70.8547 103.774 65.3348 103.317 59.9734 104.224C59.6234 104.284 59.7101 104.845 60.0572 104.833C65.4694 104.63 70.8577 104.863 76.2699 104.842C78.8728 104.83 81.4518 104.648 84.0547 104.761C85.3112 104.815 86.5678 104.875 87.8273 104.863C88.5065 104.857 89.1797 104.812 89.8558 104.743C90.1191 104.717 90.6576 104.544 91.0436 104.484C91.1692 104.544 91.3128 104.57 91.4534 104.544C91.5641 104.523 91.6719 104.52 91.7766 104.478C92.5604 104.186 92.4108 103.133 91.5821 103.055H91.5791Z" fill="#D8E4C9"/>
<path d="M94.8796 108.922C93.656 111.016 92.4503 113.122 91.1638 115.181C90.5564 116.156 89.9132 117.108 89.24 118.042C88.869 118.558 89.5542 118.817 89.8803 118.919C90.1944 119.017 90.4756 118.573 90.2124 118.352C90.0987 118.256 90.0448 118.224 90.0269 118.215C90.0478 118.224 90.1017 118.235 90.1435 118.173C90.3979 117.794 90.6402 117.406 90.8825 117.018C91.433 116.138 91.9506 115.234 92.4562 114.328C93.4166 112.612 94.2962 110.858 95.2237 109.125C95.3463 108.898 95.0083 108.698 94.8766 108.922H94.8796Z" fill="#D8E4C9"/>
<path d="M93.408 118.878C93.3213 119.236 93.8478 119.49 94.0243 119.138C95.2001 116.793 96.2024 114.386 97.4889 112.092C98.2249 110.782 99.643 109.102 99.1104 107.497C99.0716 107.384 98.8741 107.396 98.8891 107.527C99.0895 109.21 97.4171 110.853 96.6183 112.211C95.3856 114.305 93.9795 116.498 93.408 118.884V118.878Z" fill="#D8E4C9"/>
<path d="M96.4189 118.212C96.1736 118.564 96.748 119.011 97.0173 118.671C98.244 117.117 99.1475 115.327 99.6531 113.412C99.7459 113.057 99.2343 112.928 99.1116 113.262C98.4624 115.023 97.484 116.669 96.4189 118.212Z" fill="#D8E4C9"/>
<path d="M100.575 99.8503C101.634 100.596 103.333 100.515 104.563 100.504C106.17 100.489 107.764 100.283 109.368 100.208C111.331 100.116 113.314 100.214 115.277 100.247C116.264 100.262 117.251 100.28 118.236 100.298C119.19 100.313 120.237 100.542 121.12 100.146C121.18 100.119 121.228 100.074 121.269 100.026C121.79 99.9576 122.329 99.901 122.46 99.886C123.172 99.8055 124.54 99.543 125.356 99.8115C125.395 99.8652 125.428 99.9218 125.467 99.9755C125.563 100.11 125.745 100.125 125.874 100.062C126.604 100.283 127.032 98.7614 126.003 98.7793C125.865 98.7793 125.727 98.7853 125.593 98.7882C125.201 97.8664 124.833 96.9476 124.653 95.9661C125.76 96.6314 126.484 97.768 127.259 98.824C127.274 99.0776 127.337 99.3073 127.564 99.5191C127.684 99.6295 127.822 99.6921 127.959 99.71C128.067 99.8353 128.181 99.9547 128.294 100.071C128.788 100.56 129.59 99.9368 129.249 99.3371C129.099 99.0716 128.929 98.8121 128.746 98.5585C128.728 98.4959 128.701 98.4392 128.665 98.3855C128.647 95.996 128.54 93.6094 128.411 91.2199C128.267 88.5857 128.217 85.9307 127.962 83.3085C128.079 83.2697 128.199 83.2279 128.315 83.1921C128.905 83.0102 129.446 83.0251 130.042 82.9565C130.048 82.9565 130.051 82.9565 130.057 82.9535C132.896 84.8239 137.315 82.8043 139.69 80.9876C141.117 79.8957 142.476 78.4847 142.996 76.7216C143.445 75.1942 142.82 73.819 141.647 72.9061C142.781 69.2428 143.96 65.0693 141.853 61.5461C140.118 58.6465 136.106 57.1758 133.006 58.4705C133.976 53.2827 133.108 45.8069 126.49 46.1857C122.948 46.3886 119.798 48.4649 117.895 51.3794C115.986 54.303 115.352 57.9574 115.352 61.391C115.352 63.2555 115.564 65.1528 116.01 66.9726C115.301 66.7697 114.595 66.9636 114.101 67.8615C113.362 69.207 113.377 71.0774 113.524 72.5571C113.679 74.1352 114.514 75.5701 115.429 76.835C116.156 77.8403 117.548 79.493 118.936 79.0813C118.993 79.9703 119.606 80.919 120.139 81.5663C120.872 82.4613 121.781 83.1056 122.87 83.5024C124.025 83.923 125.288 83.8872 126.484 83.7172C126.733 83.6814 126.975 83.6157 127.217 83.5442C127.014 86.2081 127.187 88.9169 127.244 91.5809C127.274 93.0486 127.298 94.5163 127.298 95.9811C127.298 96.2585 127.292 96.5389 127.289 96.8164C127.166 96.6851 127.044 96.5538 126.924 96.4256C126.158 95.6111 125.249 94.8743 124.154 94.579C123.848 94.4954 123.445 94.7401 123.483 95.0891C123.63 96.4315 124.082 97.6666 124.734 98.8181C123.872 98.8658 123.023 98.9553 122.155 99.1313C121.949 99.1731 121.632 99.2208 121.299 99.2954C121.255 99.2268 121.195 99.1701 121.117 99.1343C120.324 98.7733 119.462 98.9493 118.604 98.9642C117.616 98.9821 116.629 98.9792 115.645 98.9851C113.637 99 111.621 98.9851 109.613 99.0836C108.117 99.1552 106.63 99.3759 105.141 99.5191C103.609 99.6653 102.209 99.4953 100.692 99.3938C100.431 99.3759 100.392 99.716 100.569 99.8413L100.575 99.8503ZM124.435 82.6373C123.274 82.6045 122.149 82.1301 121.269 81.3903C120.426 80.6803 120.085 79.669 119.421 78.8606C119.43 78.8546 119.438 78.8516 119.444 78.8456C119.66 78.6965 119.531 78.2997 119.256 78.3982C117.844 78.9083 116.638 76.9752 116.031 75.9997C115.429 75.0331 114.819 73.9711 114.643 72.8315C114.463 71.6741 114.544 70.3913 114.813 69.2547C114.906 68.8639 115.046 68.306 115.403 68.0614C115.779 67.8019 116.378 68.5089 116.587 68.7267C117.003 69.1592 117.751 68.7147 117.587 68.145C115.785 61.9101 115.911 52.8979 122.008 48.9511C124.653 47.2388 128.911 46.4214 130.855 49.509C132.477 52.0865 132.211 55.7618 131.567 58.5958C131.478 58.9925 131.367 59.3833 131.247 59.7712C131.023 60.502 131.92 60.8749 132.429 60.4573C135.331 58.0767 139.804 60.0963 141.075 63.2704C142.32 66.3789 140.983 70.0094 140.04 73.0135C139.939 73.3357 140.103 73.6907 140.384 73.8607C143.289 75.6029 140.274 78.7084 138.496 79.9882C136.378 81.5096 132.456 83.3264 130.188 81.1158C129.674 80.6147 129 81.0472 128.953 81.5961C128.614 81.6588 128.273 81.7751 127.953 81.8855C126.754 82.2942 125.73 82.676 124.432 82.6403L124.435 82.6373Z" fill="#D8E4C9"/>
<path d="M134.16 99.0448C134.448 97.944 134.926 96.8044 134.51 95.7036C134.397 95.4053 134.032 95.1726 133.723 95.3844C132.497 96.2376 131.539 97.8277 131.303 99.3759C131.321 98.4541 131.195 97.4965 131.148 96.5837C131.076 95.1726 130.989 93.7616 130.911 92.3505C130.759 89.5941 130.603 86.8316 130.603 84.0692C130.603 83.5859 129.882 83.5919 129.855 84.0692C129.711 86.8287 129.753 89.5881 129.813 92.3505C129.843 93.6751 129.879 94.9966 129.906 96.3212C129.93 97.4816 129.831 98.6779 129.93 99.8294C129.999 100.629 131.037 100.692 131.243 100.008C131.243 100.074 131.24 100.14 131.243 100.205C131.249 100.492 131.668 100.638 131.809 100.357C132.407 99.1731 132.646 97.8694 133.52 96.9178C133.403 97.7173 132.973 98.5466 132.808 99.2805C132.751 99.54 132.838 99.8682 133.098 99.9905C135.68 101.214 138.869 100.462 141.565 100.065C143.031 99.8473 144.503 99.7816 145.978 99.6325C147.833 99.4445 149.517 99.4863 151.351 99.7638C151.941 99.8532 152.231 99.179 151.749 98.8211C150.493 97.8903 148.674 98.0514 147.187 98.1618C145.682 98.2751 144.156 98.3885 142.66 98.5735C139.988 98.9016 136.835 99.8652 134.154 99.0418L134.16 99.0448Z" fill="#D8E4C9"/>
<path d="M114.176 112.153C112.133 112.979 110.08 113.776 108.052 114.635C105.904 115.545 103.498 116.455 101.607 117.839C101.156 118.17 101.536 118.835 102.047 118.591C104.103 117.609 106.05 116.401 108.127 115.437C110.2 114.477 112.3 113.579 114.374 112.621C114.634 112.499 114.445 112.045 114.176 112.156V112.153Z" fill="#D8E4C9"/>
<path d="M111.173 110.991C109.444 111.996 107.759 112.939 105.904 113.705C105.028 114.069 104.139 114.415 103.266 114.785C102.449 115.134 101.447 115.445 100.8 116.071C100.519 116.343 100.809 116.796 101.171 116.707C102.042 116.492 102.88 115.901 103.693 115.516C104.612 115.084 105.545 114.678 106.467 114.251C108.169 113.467 110.048 112.596 111.311 111.167C111.394 111.074 111.29 110.925 111.173 110.991Z" fill="#D8E4C9"/>
<path d="M100.434 114.137C103.838 112.806 107.692 111.488 110.372 108.922C110.468 108.83 110.34 108.657 110.226 108.734C107.12 110.915 103.515 111.825 100.093 113.337C99.6378 113.537 99.9669 114.319 100.431 114.14L100.434 114.137Z" fill="#D8E4C9"/>
<path d="M100.667 110.614C103.126 109.215 105.75 108.105 108.152 106.607C108.422 106.44 108.185 106.038 107.904 106.187C105.403 107.52 102.62 108.338 100.338 110.059C100.014 110.301 100.293 110.826 100.664 110.614H100.667Z" fill="#D8E4C9"/>
<path d="M45.0059 121.416C46.801 121.318 48.5512 120.79 50.3164 120.488C52.0337 120.196 54.4541 119.766 55.9919 120.846C56.2163 121.004 56.4048 120.679 56.2612 120.497C55.1363 119.077 52.7488 119.319 51.1601 119.486C49.0449 119.71 46.9686 120.187 44.9012 120.655C44.4764 120.751 44.5661 121.44 45.0029 121.416H45.0059Z" fill="#D8E4C9"/>
<path d="M52.2306 122.622C52.5897 122.517 52.4401 121.977 52.0781 122.067C50.648 122.413 49.2089 122.287 47.7728 122.073C47.4407 121.84 47.0847 121.661 46.7017 121.559C46.3936 121.479 46.2589 121.876 46.4953 122.046C48.0032 123.141 48.9426 124.671 49.8312 126.282C50.3189 127.165 50.7826 128.057 51.2733 128.94C51.6442 129.608 52.0302 130.443 52.6944 130.867C53.0534 131.097 53.5441 130.718 53.4154 130.315C53.1701 129.545 52.5538 128.85 52.1349 128.161C51.5635 127.222 51.0249 126.264 50.4385 125.336C49.9688 124.59 49.4034 123.672 48.7182 122.917C49.894 123.051 51.1117 122.947 52.2366 122.622H52.2306Z" fill="#D8E4C9"/>
<path d="M13.7121 118.681C14.5288 116.319 17.4189 114.281 16.9791 111.596C16.9402 111.364 16.5603 111.42 16.5693 111.65C16.6979 114.424 13.353 115.916 13.0568 118.592C13.015 118.983 13.5954 119.012 13.7121 118.681Z" fill="#D8E4C9"/>
<path d="M20.4878 111.396C19.5543 113.639 17.7233 115.408 16.9634 117.735C16.8258 118.159 17.5139 118.46 17.6934 118.042C18.6508 115.802 20.2424 113.863 20.9814 111.53C21.0831 111.208 20.6104 111.1 20.4878 111.396Z" fill="#D8E4C9"/>
<path d="M23.4583 113.361C22.8988 114.632 21.9923 115.682 21.3161 116.884C21.0529 117.35 21.75 117.752 22.0312 117.302C22.7732 116.109 23.569 114.939 24.0597 113.618C24.1883 113.269 23.6079 113.024 23.4583 113.364V113.361Z" fill="#D8E4C9"/>
<path d="M29.8654 17.9657C31.5199 18.4997 32.3008 16.6412 33.1474 15.4509C33.5095 16.3846 34.1288 17.2318 35.2687 16.9932C36.3726 16.7635 37.2253 15.7015 38.1528 15.0571C38.9157 15.8805 39.8282 16.5934 41.019 16.3369C41.9584 16.134 42.7662 15.257 43.4752 14.5261C43.9539 15.4956 44.7318 16.1758 45.9645 16.0177C47.0445 15.8775 48.0109 15.254 48.8875 14.5977C49.2944 15.6179 50.0573 16.4532 51.3138 16.2086C52.2892 16.0177 53.1448 15.424 53.8928 14.7528C54.2399 15.7671 54.9818 16.4473 56.3012 16.1579C57.48 15.8984 58.5301 15.0571 59.4696 14.2487C59.8465 14.9378 60.3671 15.4837 61.151 15.8148C62.1114 16.2176 63.1136 15.7343 63.8526 15.0989C65.6118 16.2593 68.8819 16.0833 69.555 13.8519C69.7405 13.2403 68.849 13.0345 68.6216 13.5953C68.0083 15.1048 65.187 14.8811 64.2326 13.9086C64.0082 13.6819 63.6252 13.6819 63.4008 13.9086C62.9371 14.3769 62.3687 14.8334 61.6656 14.714C60.9086 14.5887 60.4868 13.7624 60.2534 13.124C60.0949 12.6885 59.6132 12.5602 59.2602 12.8615C58.5152 13.4999 57.7642 14.1353 56.9175 14.6395C56.5136 14.8811 56.0649 15.0929 55.5862 15.0989C54.928 15.1078 54.8352 14.0995 54.7904 13.6461C54.7455 13.1866 54.198 12.8704 53.833 13.2493C53.1927 13.9116 52.5016 14.5231 51.6818 14.9527C50.5001 15.5702 49.9286 14.7021 49.6564 13.6132C49.5546 13.2045 49.0849 13.1598 48.7977 13.3865C48.0498 13.9772 47.2569 14.5649 46.3594 14.9109C45.1716 15.3703 44.4476 14.729 44.0886 13.5953C43.9809 13.2553 43.58 13.1598 43.3197 13.3925C42.6106 14.0249 41.9524 14.7677 41.1297 15.26C40.1094 15.8715 39.185 14.8692 38.5447 14.1681C38.4071 14.016 38.1797 14.01 38.0062 14.0995C37.1924 14.5231 36.5282 15.1526 35.7862 15.6806C35.496 15.8894 35.0921 16.1639 34.7122 16.1072C34.1198 16.0177 33.8296 14.9915 33.668 14.5529C33.5484 14.2308 33.1594 14.1771 32.959 14.4605C32.3067 15.3912 31.7293 16.5278 30.751 17.1632C29.9552 17.6823 29.4077 16.6979 29.3508 16.0535C29.294 15.424 29.4645 14.7528 29.7248 14.183C29.8175 13.9772 29.5363 13.8012 29.4166 14.004C28.7734 15.0869 28.199 17.4258 29.8594 17.9627L29.8654 17.9657Z" fill="#D8E4C9"/>
<path d="M25.9171 21.6103C28.3016 22.4516 30.2463 20.414 32.0473 19.0567C32.182 20.1754 32.1999 21.3329 33.5552 21.6789C34.8537 22.01 35.6495 20.778 36.3376 19.7667C36.7086 20.8317 37.3878 21.8072 38.6683 21.655C39.9428 21.5029 40.972 20.4528 41.8276 19.4833C42.2854 20.5095 43.0004 21.4253 44.272 21.1479C45.4507 20.8913 46.3543 19.7727 47.3206 18.994C47.6767 20.0501 48.4635 20.8347 49.75 20.59C50.8241 20.3872 51.7994 19.7249 52.6371 18.9851C53.0709 20.0501 53.8668 20.8913 55.1922 20.6676C56.4667 20.4528 57.5736 19.6086 58.5699 18.7703C58.9858 19.4654 59.5752 19.9636 60.4997 19.7428C61.49 19.5072 62.1482 18.7733 63.2282 18.9195C64.6074 19.1104 68.3203 19.7518 67.5185 17.1415C67.345 16.5806 66.5073 16.688 66.4953 17.2787C66.4714 18.6003 63.7847 17.7501 62.9709 17.6606C62.2858 17.586 61.6515 17.8485 61.0502 18.1468C60.7181 18.3109 60.4069 18.5108 60.0449 18.6003C59.6949 18.6868 59.3687 17.7172 59.282 17.5114C59.1204 17.1266 58.5998 17.1683 58.3366 17.3891C57.4779 18.111 56.5774 18.8956 55.5302 19.3282C54.2348 19.8651 53.7411 18.9016 53.4838 17.7501C53.3881 17.3145 52.8047 17.1922 52.5055 17.4935C51.7994 18.2035 51.0156 18.833 50.106 19.2655C48.9063 19.8353 48.3738 19.1104 48.1763 17.9589C48.1165 17.6158 47.6677 17.4816 47.3924 17.6427C46.462 18.1856 45.6991 18.9344 44.8464 19.5787C44.5233 19.8234 44.1373 20.0948 43.7185 20.1068C43.0573 20.1247 42.6474 18.8061 42.4858 18.3765C42.3662 18.0573 41.9024 17.8336 41.6392 18.1528C40.9391 18.997 40.1223 19.8323 39.1499 20.3663C37.7767 21.1211 37.2771 19.6145 37.0228 18.5227C36.945 18.1856 36.4364 18.0245 36.203 18.3079C35.5927 19.0448 35.0661 20.235 34.1416 20.6109C32.903 21.1151 32.9898 18.7822 32.8312 18.117C32.7654 17.8366 32.3944 17.6755 32.1491 17.8396C30.4677 18.9612 28.6636 21.2225 26.4466 20.8973C26.5424 20.0501 26.9193 19.2804 27.2036 18.475C27.3053 18.1856 26.8236 17.9798 26.7039 18.2632C26.2851 19.2536 25.7495 20.1306 25.6269 21.2165C25.6059 21.3985 25.7645 21.5447 25.9201 21.5984L25.9171 21.6103Z" fill="#D8E4C9"/>
<path d="M25.0545 26.8965C26.9812 26.8846 28.4801 25.1901 30.0987 24.2892C30.3081 24.8321 30.4278 25.4109 30.7779 25.8882C31.2027 26.4669 31.9237 26.631 32.6059 26.6489C34.0898 26.6877 35.0861 25.2558 36.0884 24.2534C36.4893 25.384 37.1714 26.3625 38.4848 26.5027C39.7174 26.634 40.9232 25.742 41.8387 24.8918C42.3622 25.5213 43.164 25.8136 44.0586 25.7211C44.9262 25.6316 45.7819 25.1156 46.12 24.3399C46.2785 24.8113 46.6615 25.1692 47.1402 25.3333C48.4416 25.7778 50.0273 25.3781 50.8471 24.2624C51.1552 23.8417 50.4821 23.3465 50.135 23.7135C49.6114 24.2653 48.7887 24.5517 48.0407 24.5905C47.6907 24.6084 47.3376 24.5428 47.0325 24.3668C46.7901 24.2266 46.7004 23.4181 46.6914 23.257C46.7243 23.2302 46.7632 23.2093 46.8051 23.1974C46.9218 23.1466 46.9337 22.9915 46.8859 22.8931C46.8859 22.8871 46.8799 22.8811 46.8769 22.8752C46.832 22.7827 46.7094 22.7409 46.6136 22.7678C46.4072 22.8274 46.2636 22.9975 46.1738 23.2063C45.9464 22.8782 45.378 22.8543 45.2583 23.3316C44.9711 24.4742 43.0444 25.2737 42.4759 23.8805C42.3263 23.5136 41.8805 23.3227 41.5634 23.6389C40.8364 24.3668 40.0166 25.1006 39.0114 25.399C37.692 25.7927 37.0487 24.3519 36.7286 23.3465C36.6209 23.0064 36.2559 22.9527 35.9956 23.1526C35.0292 23.9044 34.2903 25.0529 33.1294 25.5302C31.463 26.2193 31.2685 24.4861 30.6761 23.4778C30.5505 23.263 30.2992 23.2242 30.0867 23.3227C28.7285 23.97 27.6035 25.0141 26.2602 25.7003C26.0119 25.8256 24.1121 26.4968 24.1091 25.8554C24.1001 24.7993 25.1053 23.8686 25.5421 22.9647C25.614 22.8155 25.4165 22.7051 25.3237 22.8364C24.6356 23.794 23.7201 24.5696 23.4598 25.7659C23.2684 26.6608 24.3514 26.8876 25.0515 26.8846L25.0545 26.8965Z" fill="#D8E4C9"/>
<path d="M55.1937 24.7964C55.6335 24.4593 55.2565 23.7374 54.7449 24.0327C54.0987 24.4086 53.5063 24.6532 52.9498 24.0327C52.7673 23.8298 52.6447 23.5673 52.534 23.3197C52.4502 23.1318 52.3245 23.0214 52.2318 22.8603C52.1779 22.7678 52.0523 22.8156 52.0433 22.911C52.0164 23.2034 51.9865 23.3883 52.0732 23.6986C52.1839 24.0894 52.3634 24.4414 52.6117 24.7606C53.2759 25.6108 54.4427 25.3632 55.1907 24.7904L55.1937 24.7964Z" fill="#D8E4C9"/>
<path d="M59.9661 23.764C60.3072 23.409 59.8793 22.9406 59.4694 23.1226C58.4133 23.588 57.2824 24.3069 56.2831 23.2956C56.0797 23.0898 55.7267 23.3553 55.8822 23.6059C56.7768 25.0289 58.8651 24.9095 59.9691 23.767L59.9661 23.764Z" fill="#D8E4C9"/>
<path d="M61.4957 23.6312C61.5346 23.6611 61.5734 23.6879 61.6123 23.7148C61.7889 23.8251 62.0252 23.6819 62.0252 23.4791C62.0252 23.2762 61.7919 23.133 61.6123 23.2434C61.5705 23.2703 61.5316 23.2971 61.4957 23.3269C61.4448 23.3448 61.3969 23.3538 61.3431 23.3657C61.2294 23.3866 61.2294 23.5745 61.3431 23.5954C61.3969 23.6044 61.4448 23.6163 61.4957 23.6342V23.6312Z" fill="#D8E4C9"/>
<path d="M23.1904 30.5672C23.5824 30.2719 23.2443 29.6335 22.7955 29.893C21.9788 30.3673 20.8867 30.5791 20.2495 29.711C20.0221 29.4008 19.9234 29.007 20.0011 28.6281C20.1148 28.0703 20.5786 27.8495 21.0154 27.5751C21.159 27.4856 21.1141 27.2201 20.9226 27.235C19.6002 27.3513 18.9779 28.8131 19.5105 29.9318C20.2196 31.4174 21.9877 31.4741 23.1904 30.5672Z" fill="#D8E4C9"/>
<path d="M25.6609 28.2044C24.7843 29.2187 24.3714 31.0235 25.8285 31.7424C27.2645 32.4495 29.4336 30.7162 30.2055 29.6303C30.3641 29.4066 30.1038 29.1411 29.8704 29.1978C28.8083 29.4514 28.0125 30.403 27.0072 30.8206C25.3258 31.5187 25.3917 29.3917 25.993 28.4639C26.1217 28.2641 25.8195 28.0254 25.6609 28.2074V28.2044Z" fill="#D8E4C9"/>
<path d="M43.9722 29.6872C42.7006 29.4396 41.4231 29.4933 40.1546 29.2934C39.5981 29.2039 39.0416 29.1353 38.4792 29.1114C37.9586 29.0876 36.9593 29.362 36.5016 29.1383C35.7985 28.7952 35.2659 29.1681 34.8022 29.6931C33.9376 30.6746 32.3698 30.1973 31.7924 29.2069C31.6877 29.0249 31.4543 29.1591 31.4783 29.3381C31.6009 30.248 32.322 30.7462 33.1746 30.9282C34.1171 31.1281 34.9518 30.8238 35.604 30.1704C35.8822 29.89 36.7379 30.1883 37.1269 30.1734C37.8928 30.1466 38.6587 30.1436 39.4246 30.1197C40.9235 30.078 42.3685 30.4568 43.8704 30.4121C44.2743 30.4002 44.391 29.7707 43.9692 29.6872H43.9722Z" fill="#D8E4C9"/>
<path d="M78.7943 16.3716C79.261 16.3 79.1503 15.5244 78.6836 15.5542C77.7082 15.6139 76.6461 15.4587 76.2991 14.3997C76.2123 14.1342 75.7606 14.164 75.7905 14.4683C75.9371 15.9718 77.436 16.5774 78.7943 16.3716Z" fill="#D8E4C9"/>
<path d="M80.9169 16.0316C81.5931 16.2195 82.341 15.7422 82.9484 15.5304C83.9776 15.1694 85.294 15.6915 86.3411 15.8227C87.4541 15.963 88.4952 15.7094 89.321 14.9487C89.671 14.6265 89.2193 14.0627 88.8183 14.3013C87.0921 15.3216 85.4525 14.5788 83.6066 14.5519C83.065 14.543 82.5864 14.7369 82.1017 14.9546C81.8085 15.0859 81.5302 15.2291 81.2191 15.3126C80.6656 15.4588 80.3814 14.7339 80.1989 14.355C80.0792 14.1074 79.7172 14.2864 79.771 14.534C79.9206 15.2112 80.1989 15.8347 80.9169 16.0316Z" fill="#D8E4C9"/>
<path d="M78.2501 18.4107C78.1215 20.0485 79.5755 20.5079 80.9577 20.3348C81.7356 20.2394 82.4806 19.9828 83.2405 19.8038C84.2518 19.5622 85.2929 19.6666 86.1845 19.0551C86.4627 18.8641 86.2982 18.36 85.9421 18.4823C84.6227 18.9387 83.2704 19.0043 81.9181 19.2758C80.6526 19.5324 79.1238 19.9679 78.7378 18.3421C78.669 18.0557 78.2711 18.1422 78.2501 18.4077V18.4107Z" fill="#D8E4C9"/>
<path d="M45.0366 28.475C45.1892 28.4184 45.1323 28.1946 44.9678 28.2304C44.4203 28.3468 44.16 28.487 44.1151 29.0747C44.0702 29.6474 44.2886 30.3186 44.7883 30.6408C45.8803 31.3508 47.3941 30.8586 48.4892 30.4022C48.923 30.2202 48.7584 29.5132 48.2887 29.6773C47.5946 29.9219 46.8586 30.1247 46.1226 30.1695C45.7397 30.1934 45.3148 30.1695 45.0007 29.9159C44.5728 29.5699 44.4532 28.6928 45.0366 28.4721V28.475Z" fill="#D8E4C9"/>
<path d="M50.1259 28.7833C49.9942 28.5118 49.5425 28.7028 49.6382 28.9891C50.066 30.2719 51.2508 30.7433 52.5283 30.609C53.004 30.5583 53.016 29.8125 52.5283 29.8573C51.55 29.9438 50.5836 29.7349 50.1259 28.7863V28.7833Z" fill="#D8E4C9"/>
<path d="M56.7241 29.0147C56.7241 29.0147 56.7241 29.0296 56.7241 29.0386C56.6313 29.0863 56.5625 29.1698 56.5625 29.2921C56.5625 29.4592 56.6971 29.5785 56.8587 29.5875C57.0502 29.5964 57.2835 29.6292 57.4571 29.5338C57.6755 29.4115 57.6785 29.1519 57.5348 28.9729C57.4451 28.8596 57.2686 28.8208 57.1339 28.785C56.9604 28.7373 56.7719 28.8417 56.7241 29.0177V29.0147ZM57.1399 28.9491C57.1639 28.9401 57.1818 28.9282 57.1399 28.9491V28.9491Z" fill="#D8E4C9"/>
<path d="M0.222671 100.623C2.2631 100.685 4.32148 100.405 6.36191 100.351C8.40533 100.297 10.4158 100.467 12.4503 100.608C13.1085 100.652 13.2641 99.5576 12.6059 99.4532C10.5505 99.122 8.42627 99.1996 6.35892 99.3487C4.30652 99.4979 2.15839 99.6769 0.156851 100.175C-0.100447 100.238 -0.0376185 100.617 0.216687 100.626L0.222671 100.623Z" fill="#D8E4C9"/>
<path d="M13.6067 131.854C14.8812 130.428 15.9463 128.781 17.0712 127.233C18.2739 125.58 19.7549 123.85 20.5687 121.967C20.6943 121.675 20.3443 121.329 20.093 121.6C18.8124 122.979 17.7803 124.667 16.6314 126.162C15.3569 127.82 13.8849 129.452 12.8707 131.287C12.6194 131.74 13.2417 132.262 13.6067 131.854Z" fill="#D8E4C9"/>
<path d="M132.596 79.7795C133.975 79.7496 135.1 80.0748 136.144 78.9382C136.198 78.8815 136.249 78.8189 136.3 78.7532C137.488 78.5892 138.867 77.5749 139.253 76.4711C139.471 75.8417 139.286 75.2003 138.72 74.8214C138.592 74.7349 138.46 74.6782 138.328 74.6364C138.337 74.5827 138.337 74.532 138.328 74.4783C139.1 73.5028 139.995 72.4677 139.851 71.161C139.74 70.1408 139.097 69.9678 138.355 69.8812C139.166 68.9028 140.174 67.4589 139.612 66.5371C138.714 65.0753 136.183 66.8175 135.803 67.9422C135.734 68.145 136.04 68.2644 136.144 68.0854C136.503 67.4649 137.215 67.0949 137.871 66.8593C138.511 66.6266 139.031 66.6952 138.783 67.4291C138.472 68.3509 137.685 69.1862 137.054 69.9081C136.838 70.1557 136.88 70.6569 137.269 70.7195C137.589 70.7732 137.901 70.7911 138.227 70.7971C138.957 70.806 138.966 71.4355 138.795 72.0112C138.541 72.8764 137.763 73.6072 137.227 74.3113C137.135 74.4336 137.138 74.5798 137.191 74.711C136.958 74.7975 136.734 74.9198 136.524 75.0571C136.509 74.9407 136.488 74.8244 136.452 74.7021C136.315 74.2546 135.722 74.3769 135.675 74.8065C135.483 76.5367 132.267 77.8255 131.926 75.597C131.911 75.4956 131.845 75.4419 131.764 75.4151C131.926 75.1585 132.046 74.8721 132.102 74.5619C132.177 74.1651 131.633 73.8847 131.42 74.2755C130.708 75.5791 128.784 76.7814 127.627 75.2898C127.414 75.0183 127.001 75.3643 127.16 75.6477C128.072 77.2527 130.247 77.0469 131.399 75.8745C131.681 78.0224 134.421 77.9448 135.779 76.7724C136.061 77.5391 135.085 78.5355 134.436 78.6936C133.733 78.8636 132.913 78.6041 132.189 78.6637C131.205 78.7443 129.227 79.326 129.38 77.7718C129.425 77.3034 128.817 77.1572 128.524 77.4168C127.63 78.2133 126.795 79.1769 125.652 79.6273C125.161 79.8212 124.641 79.8182 124.189 79.5557C123.991 79.4424 123.154 78.8875 123.534 78.6876C123.725 78.5862 123.612 78.3416 123.435 78.3207C122.941 78.261 122.732 78.6309 122.855 79.0754C123.016 79.6661 123.671 80.209 124.189 80.4805C125.661 81.2561 127.28 79.9047 128.467 78.8189C128.973 80.206 131.118 79.8153 132.596 79.7824V79.7795ZM138.083 76.6352C137.766 76.9902 137.317 77.3332 136.844 77.5838C136.985 76.9603 136.901 76.3219 136.414 75.9103C136.449 75.8148 136.476 75.7164 136.497 75.6179C136.506 75.6149 136.518 75.6149 136.527 75.609C137.087 75.3226 137.981 74.9944 138.406 75.6507C138.625 75.9878 138.301 76.3935 138.086 76.6352H138.083Z" fill="#D8E4C9"/>
<path d="M135.785 74.3029C136.332 74.5714 136.685 74.291 136.754 73.7212C136.817 73.2051 136.65 72.692 136.5 72.2057C136.362 71.7612 135.716 71.9462 135.809 72.3966C135.872 72.7009 135.94 73.0082 136.015 73.3095C136.057 73.4795 136.09 73.6526 136.09 73.8316C136.09 73.9927 136.096 73.9509 135.955 73.9032C135.722 73.8286 135.563 74.1925 135.788 74.3029H135.785Z" fill="#D8E4C9"/>
<path d="M132.171 74.3109C132.488 74.3467 132.772 74.2274 132.961 73.9678C133.149 73.7083 133.185 73.3891 133.215 73.0788C133.242 72.7865 132.742 72.7179 132.698 73.0102C132.647 73.3533 132.614 73.8932 132.174 73.9201C131.917 73.935 131.926 74.284 132.174 74.3139L132.171 74.3109Z" fill="#D8E4C9"/>
<path d="M134.928 70.9102C135.284 70.5641 135.46 70.1136 135.514 69.6304C135.565 69.1859 134.793 69.0815 134.73 69.526C134.688 69.8302 134.634 70.1733 134.437 70.4209C134.165 70.761 134.602 71.2323 134.928 70.9102Z" fill="#D8E4C9"/>
<path d="M124.044 77.1731C124.597 77.1074 124.495 76.3378 123.942 76.4213C123.544 76.481 123.101 76.5496 122.73 76.3497C122.431 76.1916 122.069 76.6033 122.353 76.836C122.853 77.2447 123.427 77.2447 124.044 77.1731Z" fill="#D8E4C9"/>
<path d="M9.23105 39.1445C9.30285 39.0192 9.38064 38.8969 9.45543 38.7746C10.712 38.4256 12.3246 38.8551 13.5662 38.876C15.6366 38.9148 17.7069 38.9178 19.7743 39.0192C20.0136 39.0311 20.253 39.0461 20.4893 39.058C20.3607 39.061 20.235 39.064 20.1064 39.0699C16.3426 39.2042 12.5879 39.8157 8.82117 39.8247C8.62071 39.8247 8.56387 40.1528 8.7733 40.1827C9.77556 40.3258 10.7778 40.4004 11.7771 40.4332C11.2505 43.3299 11.3911 46.3877 11.3523 49.3202C11.3104 52.4346 11.2834 55.549 11.2805 58.6635C11.2715 64.8924 11.2565 71.1213 11.2565 77.3531C11.2565 83.582 11.2565 89.8109 11.2565 96.0428C11.2565 102.275 11.1159 108.51 11.2894 114.732C11.3253 115.979 11.436 117.226 11.5138 118.47C11.5467 119.028 12.1481 119.171 12.4772 118.903C15.7353 119.076 19.0054 119.127 22.2754 119.136C22.1588 119.479 22.1677 119.822 22.3652 120.123C21.9882 120.153 21.5544 120.019 21.2163 119.992C20.7406 119.953 20.3547 120.135 20.0106 120.442C19.505 120.893 19.3734 121.627 19.9568 122.077C21.1924 123.032 23.7295 122.656 25.1625 122.668C29.013 122.701 32.8635 122.745 36.714 122.757C38.7006 122.763 40.6872 122.757 42.6707 122.742C44.1517 122.73 45.7793 122.987 47.2183 122.563C47.5474 122.468 47.7928 122.101 47.6761 121.758C47.5923 121.513 47.5026 121.304 47.335 121.102C47.2273 120.97 46.9012 120.744 46.8533 120.591C46.7396 120.227 46.4225 120.111 46.1413 120.174C46.1562 120.081 46.1592 119.986 46.1413 119.884C46.1054 119.637 46.0485 119.425 45.893 119.222C45.872 119.195 45.8481 119.171 45.8241 119.148C47.0239 119.148 48.2206 119.151 49.4203 119.154C61.9322 119.171 74.441 119.16 86.9529 119.163C89.3314 119.163 91.7069 119.118 94.0854 119.085C96.0121 119.058 97.9418 119.106 99.8686 119.061C100.144 119.246 100.515 119.219 100.76 119.034C100.913 119.028 101.065 119.022 101.215 119.016C101.894 118.984 101.894 117.996 101.215 117.963C101.11 117.957 101.008 117.954 100.904 117.951C100.691 116.964 100.694 116.006 100.784 114.986C100.838 114.363 100.952 113.718 101.011 113.077C101.11 112.963 101.176 112.811 101.179 112.617C101.472 100.61 101.278 88.5759 101.254 76.5656C101.242 70.4709 101.242 64.3793 101.203 58.2846C101.164 52.2377 101.245 46.1729 100.997 40.129C100.991 39.9529 100.982 39.7769 100.973 39.6039C101.933 39.6158 102.89 39.6367 103.851 39.6457C104.563 39.6516 105.278 39.6457 105.993 39.6815C106.469 39.7053 106.887 39.8754 107.351 39.9321C107.746 39.9798 108.066 39.4995 107.95 39.1505C107.761 38.5807 107.202 38.3868 106.609 38.3211C106.6 38.3032 106.594 38.2853 106.585 38.2704C106.543 38.2018 106.501 38.1302 106.463 38.0586C107.369 37.99 107.199 36.6625 106.28 36.8117C106.119 36.8385 105.957 36.8594 105.795 36.8743C105.658 36.6267 105.52 36.3791 105.38 36.1345C105.326 36.042 105.263 35.9525 105.203 35.863C105.179 35.693 105.134 35.4096 105.119 35.329C105.047 34.9472 104.721 34.5176 104.542 34.1775C104.078 33.2945 103.593 32.4264 103.076 31.5702C101.445 28.8704 99.7699 26.2034 97.8311 23.7095C95.8894 21.2156 93.8251 18.8171 92.024 16.2157C91.2162 15.0523 90.3246 13.9575 89.3972 12.8865C88.9604 12.3794 88.5355 11.8513 88.0658 11.377C87.9252 11.2338 87.7846 11.0996 87.629 10.9743C87.5811 10.9355 87.5363 10.8908 87.4884 10.849C87.6529 10.3597 87.27 9.69152 86.6208 9.87946C84.6402 10.4463 82.4382 10.0286 80.4037 10.0555C77.9235 10.0853 75.4433 10.0913 72.963 10.0942C68.0146 10.0972 63.0661 10.0883 58.1146 10.133C56.502 10.1479 54.8924 10.1867 53.2858 10.2374C53.4503 9.77505 53.4623 9.28879 53.5161 8.78463C53.5999 8.00602 53.6837 7.23039 53.7465 6.44879C53.8662 4.98405 53.9559 3.43876 53.5849 2.00385C52.8101 -0.997238 48.8279 0.0438938 46.7486 0.843388C46.6559 0.879186 46.6259 1.04028 46.7486 1.05818C46.7636 1.05818 46.7815 1.06116 46.7965 1.06414C46.7247 1.10591 46.6678 1.18347 46.6678 1.29385C46.6648 2.83317 46.8234 4.37846 46.8354 5.92077C46.8473 7.45413 46.7935 8.99047 46.7426 10.5238C46.0156 10.5626 45.2856 10.6044 44.5586 10.6461C44.1308 7.67488 44.6065 4.64993 44.406 1.66078C44.3851 1.34456 44.1547 1.07011 43.8166 1.07309C42.7007 1.08503 41.5847 1.13872 40.4688 1.1954C39.4994 1.24313 38.4702 1.21032 37.5068 1.39229C37.5009 1.37738 37.4949 1.36246 37.4859 1.34755C37.3662 1.10889 37.0431 1.267 37.0581 1.49969C36.9234 1.5504 36.9354 1.74133 37.07 1.78607C37.082 1.78906 37.094 1.79204 37.1059 1.79502C37.4141 3.48052 37.4949 5.16602 37.4739 6.87837C37.456 8.19992 37.3902 9.56324 37.5068 10.8937C37.0551 10.9027 36.6033 10.9116 36.1515 10.9236C33.9675 10.9832 31.7685 11.6246 29.5935 11.1801C29.5396 11.1682 29.4857 11.1801 29.4409 11.198C29.387 11.1324 29.2823 11.1115 29.2344 11.21C28.0766 13.5368 26.0751 15.2373 24.4625 17.236C22.4908 19.6822 20.5551 22.1761 18.6553 24.679C17.7099 25.926 16.8453 27.2297 15.852 28.4408C14.9395 29.5565 13.9671 30.6275 13.0067 31.7015C11.1937 33.736 9.12932 35.9256 8.05526 38.4614C7.72616 39.237 8.7703 39.9142 9.21908 39.1415L9.23105 39.1445ZM53.8602 38.3689C46.6439 38.4375 39.4396 39.0043 32.2203 39.0371C31.7147 39.0371 31.212 39.0371 30.7064 39.0371C31.0834 39.0103 31.4574 38.9804 31.8343 38.9506C35.8195 38.6254 39.7926 38.1422 43.7867 37.9453C45.7882 37.8468 47.7808 37.8826 49.7823 37.9244C51.2005 37.9542 52.6335 37.8677 54.0397 38.0527C53.9799 38.1571 53.92 38.2615 53.8632 38.3659L53.8602 38.3689ZM34.9907 77.6336C35.8284 78.2213 36.5136 79.1162 37.2346 79.7785C38.0035 80.4825 38.916 81.0583 39.7358 81.7026C40.6513 82.4216 41.5578 83.1584 42.4673 83.8863C39.8614 83.1286 36.9564 83.2897 34.2966 83.4776C31.7087 83.6596 29.1118 83.9102 26.5238 84.1787C27.1042 83.6686 27.6847 83.1554 28.2681 82.6483C29.4708 81.6042 30.6645 80.5481 31.8912 79.5309C32.4866 79.0387 33.1059 78.5733 33.7611 78.1616C34.165 77.908 34.5689 77.7768 34.9907 77.6306V77.6336ZM25.719 84.8827C28.4536 85.0796 31.2569 84.65 33.9765 84.4889C36.9234 84.3159 39.8016 84.3636 42.6678 85.1094C43.0806 85.2168 43.3409 84.9036 43.3469 84.5844C43.7747 84.9185 44.2086 85.2467 44.6424 85.5718C44.6394 85.6017 44.6394 85.6375 44.6483 85.6733C45.1151 87.7018 44.9715 89.8438 44.8937 91.9051C44.8039 94.2469 44.8877 96.6007 44.8877 98.9425C44.8907 104.247 45.127 109.545 45.1181 114.852C43.0896 114.876 41.0611 114.938 39.0357 115.049C36.8666 115.168 34.7244 115.38 32.5494 115.308C30.8769 115.252 29.2165 115.082 27.547 114.968C27.0504 114.935 25.74 114.732 25.1386 115.108C25.3121 110.091 24.8544 105.067 24.9262 100.049C24.9621 97.5881 25.1087 95.13 25.0758 92.6688C25.0459 90.4822 24.9651 88.1791 24.3428 86.0641C24.8065 85.6733 25.2643 85.2795 25.722 84.8797L25.719 84.8827ZM25.6951 115.839C28.0646 116.167 30.5179 116.421 32.8994 116.54C34.9488 116.645 36.9893 116.448 39.0327 116.358C41.0103 116.272 42.9879 116.245 44.9685 116.248C44.9445 116.403 44.9416 116.567 44.9296 116.713C44.8997 117.035 44.8518 117.373 44.8548 117.695C44.8548 117.748 44.8638 117.796 44.8757 117.838C38.6348 117.844 32.3938 117.853 26.1558 117.862C26.0302 117.862 25.9015 117.862 25.7759 117.862C25.725 117.641 25.5545 117.441 25.2643 117.414C24.7975 117.37 24.3338 117.322 23.8701 117.289C24.3787 116.713 25.0548 116.311 25.6951 115.839ZM43.0447 121.468C41.4321 121.501 39.8195 121.513 38.2039 121.525C34.9728 121.549 31.7446 121.54 28.5134 121.534C26.3054 121.528 24.0645 121.645 21.8596 121.489C21.5514 121.468 21.2492 121.421 20.9471 121.343C20.5581 121.245 20.5821 121.284 20.8274 120.997C21.0757 120.711 21.8386 120.839 22.1797 120.788C22.437 120.75 22.6374 120.672 22.817 120.544C22.8977 120.591 22.9875 120.639 23.0862 120.684C24.6988 121.391 26.7602 121.245 28.4775 121.194C30.3055 121.137 32.1186 120.935 33.9436 120.839C37.7881 120.642 41.6356 120.979 45.4771 120.761C45.5399 120.758 45.5998 120.747 45.6536 120.732C45.6506 120.791 45.6536 120.854 45.6656 120.92C45.7105 121.131 45.8331 121.292 45.9648 121.442C44.9984 121.528 44.0081 121.442 43.0417 121.463L43.0447 121.468ZM44.6543 119.425C41.7074 119.556 38.7544 119.506 35.8045 119.586C33.9825 119.637 32.1784 119.84 30.3624 119.989C28.6869 120.126 26.9936 120.213 25.3151 120.096C24.6779 120.054 23.9748 119.986 23.3944 119.705C23.164 119.592 23.1341 119.383 23.1969 119.142C25.6861 119.142 28.1753 119.13 30.6615 119.133C35.3767 119.139 40.0948 119.145 44.8099 119.151C44.7351 119.225 44.6813 119.318 44.6543 119.422V119.425ZM91.9881 38.2645C91.9432 38.1869 91.8924 38.1123 91.8385 38.0377C92.8288 37.8707 93.7892 38.2734 94.7735 38.3331C96.069 38.4077 97.3973 38.3092 98.6928 38.2436C99.1356 38.2197 99.5784 38.1869 100.021 38.1541C100.012 38.2257 100.003 38.2973 99.9942 38.3659C98.5612 38.4017 97.1311 38.4882 95.701 38.5717C94.4683 38.6433 93.2028 38.6016 91.9701 38.7298C92.0539 38.5926 92.0749 38.4196 91.9881 38.2645ZM100.889 38.342C100.88 38.2585 100.874 38.175 100.862 38.0914C101.436 38.0556 102.014 38.0258 102.594 38.0377C103.402 38.0527 104.201 38.0855 105.003 38.0944C105.026 38.1601 105.05 38.2257 105.074 38.2913C103.68 38.2853 102.283 38.3182 100.889 38.345V38.342ZM105.176 35.8183C105.176 35.8183 105.164 35.8004 105.158 35.7914C105.158 35.7556 105.155 35.7198 105.146 35.681C105.158 35.7347 105.167 35.7795 105.173 35.8183H105.176ZM47.2303 1.22225C47.2123 1.17154 47.1854 1.13574 47.1525 1.10591C48.1518 1.1775 49.172 0.932883 50.1743 0.909018C51.6642 0.873219 52.4301 1.46389 52.5827 2.91968C52.7233 4.25019 52.5468 5.62245 52.3822 6.94102C52.2566 7.94635 51.8048 9.27089 52.0561 10.2792C50.7696 10.3269 49.4861 10.3836 48.2026 10.4492C48.1129 7.44219 48.2296 4.08909 47.2333 1.21927L47.2303 1.22225ZM38.4912 6.24295C38.4074 4.79014 38.2937 3.30452 37.7612 1.94717C38.5301 2.08141 39.3379 2.07246 40.1068 2.10229C41.1509 2.14406 42.195 2.18284 43.2392 2.2246C43.2362 5.05863 42.8532 7.90459 43.1853 10.7237C41.7283 10.8072 40.2653 10.84 38.8053 10.8669C38.6408 9.32757 38.5779 7.79421 38.4912 6.23997V6.24295ZM14.383 32.1907C16.3277 29.9891 18.021 27.6831 19.7593 25.3174C21.6412 22.7549 23.6068 20.2609 25.4528 17.6686C26.7781 15.81 28.8425 13.9903 29.402 11.6903C31.0924 12.439 33.0849 12.0602 34.871 11.9558C35.7925 11.9021 36.72 11.8931 37.6445 11.8961C37.6684 12.0303 37.6864 12.1676 37.7163 12.3018C37.8898 13.1162 39.0536 12.7493 38.9399 11.9647C38.9399 11.9468 38.934 11.9289 38.934 11.911C40.0499 11.9259 41.1629 11.9438 42.2758 11.911C42.6408 11.9021 43.0058 11.8871 43.3708 11.8752C43.5593 12.5196 44.4539 12.3794 44.6693 11.8305C49.0284 11.6664 53.3815 11.4247 57.7526 11.4039C62.8237 11.38 67.8979 11.4277 72.969 11.4605C75.5749 11.4755 78.1778 11.4844 80.7837 11.4695C82.8301 11.4576 84.9364 11.8424 86.9439 11.3054C87.1024 11.5441 87.2969 11.7648 87.4734 11.9737C88.0239 12.624 88.4966 13.3638 89.0023 14.05C91.0397 16.8183 92.8886 19.6971 94.9739 22.4357C97.1161 25.2488 99.0787 28.1485 100.88 31.1913C101.523 32.2772 102.151 33.3661 102.741 34.4788C103.052 35.0665 103.297 35.7795 103.77 36.2657C103.911 36.5462 104.192 36.6416 104.47 36.5999C104.485 36.6446 104.503 36.6893 104.518 36.7311C104.545 36.7997 104.566 36.8654 104.593 36.934C103.809 36.9429 103.022 36.9101 102.244 36.922C101.712 36.931 101.179 36.9757 100.646 37.0354C100.524 36.934 100.305 36.9489 100.216 37.0861C99.5903 37.1637 98.965 37.2502 98.3398 37.3128C97.0712 37.4381 95.7758 37.5694 94.5012 37.5813C93.49 37.5903 92.6014 37.2174 91.7039 37.7931C91.668 37.7454 91.6231 37.7036 91.5752 37.6678C91.5363 37.6141 91.5004 37.5604 91.4645 37.5038C91.4017 37.4053 91.3568 37.3009 91.3149 37.1935C91.7128 36.8952 91.8834 36.3343 91.3957 35.9376C89.4899 34.3893 88.1286 32.2384 86.7614 30.2307C85.2415 28.0023 83.6588 25.8932 81.8817 23.8616C79.9131 21.6123 77.7111 19.5509 75.7873 17.2718C75.1321 16.4962 74.5278 15.6818 73.8666 14.9121C73.4447 14.4199 72.8344 13.7457 72.1373 13.7278C71.8561 13.7188 71.7843 14.041 71.9309 14.226C73.0319 15.6191 73.9653 17.1465 75.0723 18.5426C76.9212 20.8695 79.0724 22.9846 81.0051 25.2458C82.7194 27.2535 84.1914 29.3746 85.6514 31.5672C86.9648 33.5391 88.3111 35.6512 90.1511 37.1846C90.2439 37.2621 90.3396 37.3128 90.4383 37.3456C90.4593 37.4709 90.4892 37.5933 90.5311 37.7156C90.4952 37.7245 90.4563 37.7364 90.4204 37.7454C89.095 36.1196 87.5871 34.6608 86.0822 33.199C84.3589 31.5284 82.7254 29.7863 81.1577 27.9725C77.9444 24.2554 75.0573 20.2818 71.9129 16.5081C71.7962 16.3709 71.5778 16.5469 71.6676 16.696C74.1209 20.7293 76.9362 24.5627 79.8891 28.2439C81.397 30.1234 82.9857 31.9341 84.6671 33.6614C86.3305 35.3708 88.0508 37.0384 89.4899 38.9476C89.6365 39.1415 89.8639 39.3533 90.1362 39.3175C90.4712 39.2728 90.7734 39.2191 91.0546 39.1057C92.1796 39.595 93.4421 39.6338 94.6658 39.6576C96.1677 39.6874 97.6666 39.6218 99.1685 39.5979C99.4048 39.595 99.6412 39.5979 99.8776 39.595C99.725 41.6921 99.8058 43.843 99.7878 45.9074C99.7609 48.9383 99.7399 51.9662 99.722 54.9972C99.6831 61.0888 99.6681 67.1805 99.6562 73.2721C99.6322 85.3212 99.5036 97.3823 99.6502 109.431C99.6621 110.493 99.701 111.552 99.725 112.614C99.731 112.82 99.8028 112.978 99.9105 113.092C99.7519 113.763 99.6382 114.452 99.5245 115.105C99.3719 115.994 99.2373 116.979 99.3809 117.898C96.8678 117.841 94.3516 117.895 91.8415 117.859C88.715 117.814 85.5856 117.814 82.4591 117.814C76.2032 117.814 69.9473 117.814 63.6943 117.817C57.7197 117.817 51.748 117.823 45.7733 117.829C45.7733 117.823 45.7793 117.817 45.7823 117.811C45.9049 117.495 45.8241 117.119 45.7852 116.791C45.7643 116.624 45.7464 116.418 45.7015 116.23C46.1802 116.161 46.3567 115.657 46.2221 115.275C46.3208 115.174 46.3896 115.034 46.3896 114.852C46.3806 109.542 46.1203 104.244 46.0665 98.9365C46.0425 96.4903 45.9498 94.05 45.9079 91.6068C45.875 89.7692 45.8959 87.8391 45.3275 86.07C45.5788 86.258 45.8301 86.4429 46.0814 86.6279C46.9999 87.308 48.5228 88.1702 49.0314 89.2441C49.4742 90.1838 50.8893 89.3635 50.4316 88.4267C50.4286 88.4178 50.4226 88.4118 50.4196 88.4029C50.8055 87.0217 50.626 85.2705 49.6806 84.1996C48.4779 82.8392 46.617 81.8428 45.145 80.8077C43.4397 79.6055 41.845 78.3078 40.2504 76.9683C39.0058 75.9242 37.5936 74.7518 35.972 74.3849C35.9032 74.37 35.8464 74.3938 35.8045 74.4356C35.8135 74.37 35.8105 74.3014 35.7925 74.2268C35.6609 73.6868 35.3856 73.2751 34.9967 72.8843C34.7903 72.6785 34.4671 72.6397 34.2158 72.7829C32.4985 73.7644 31.0206 75.0024 29.5396 76.3031C28.0347 77.6246 26.4311 78.8239 24.8813 80.0917C22.6584 81.9115 20.1333 84.0116 18.5207 86.5354C18.5147 86.5235 18.5087 86.5086 18.5027 86.4966C18.4369 86.3803 18.2544 86.3773 18.1886 86.4966C18.1018 86.6249 18.0061 86.7502 17.9074 86.8725C17.8296 86.9709 17.9552 87.1082 18.048 87.0187C18.021 87.1738 17.9941 87.3289 17.9732 87.487C17.8056 87.8062 17.6501 88.1284 17.5184 88.4625C17.4735 88.5729 17.6441 88.6714 17.7189 88.5789C17.7368 88.555 17.7578 88.5341 17.7757 88.5103C17.7099 88.8444 17.662 89.1725 17.6411 89.5246C17.6172 89.9183 18.2006 89.969 18.3083 89.614C18.4848 89.0443 18.5865 88.5252 18.6374 87.9285C18.6523 87.7675 18.6673 87.5974 18.6733 87.4244C20.7616 84.9812 23.0503 82.8213 25.5994 80.8077C27.0085 79.6979 28.4745 78.6657 29.8567 77.5202C31.3018 76.324 32.7139 75.0352 34.3774 74.1462C34.509 74.3103 34.6317 74.4803 34.7364 74.6713C34.9847 75.1307 35.5771 74.9815 35.7566 74.5997C35.7656 74.6385 35.7925 74.6742 35.8374 74.7011C38.7455 76.315 40.9504 79.1132 43.5593 81.1478C44.9296 82.2187 46.3387 83.239 47.694 84.3278C48.3253 84.835 48.9985 85.3391 49.0822 86.1923C49.1062 86.431 49.1002 86.6696 49.0822 86.9113C48.5228 86.4727 47.9094 86.0849 47.4068 85.727C45.9498 84.6888 44.4808 83.6865 43.0507 82.6125C41.1329 81.1716 39.0476 79.8829 37.2316 78.3197C36.9055 78.0363 36.346 77.4963 35.7447 77.0996C35.8135 76.8848 35.7566 76.6372 35.5113 76.488C34.4522 75.8347 32.8875 77.1652 32.1036 77.7738C30.853 78.7403 29.7221 79.8411 28.5343 80.8793C26.476 82.6811 24.5043 84.5725 22.443 86.3713C20.9171 87.7018 18.5476 88.8414 17.6531 90.7357C17.5812 90.8879 17.668 91.0579 17.8445 91.0669C18.2006 91.0818 18.0569 91.04 18.3771 90.8163C18.4429 90.7715 18.4369 90.6999 18.395 90.6582C19.7264 89.5126 21.1834 88.5878 22.5716 87.5079C22.9935 87.1798 23.4063 86.8397 23.8192 86.4996C23.9449 88.555 24.0765 90.5925 24.0257 92.6629C23.9658 95.124 23.8162 97.5821 23.7564 100.043C23.6966 102.558 23.8282 105.073 23.8671 107.585C23.906 110.174 23.8222 112.778 23.9239 115.368C23.9329 115.568 24.0137 115.717 24.1334 115.815C23.4422 116.254 22.8469 116.862 22.3861 117.51C22.3054 117.623 22.2874 117.743 22.3083 117.856C19.1101 117.865 15.9088 117.901 12.7165 118.062C13.0666 111.973 12.9529 105.872 12.9529 99.7748V81.0851C12.9529 68.6333 13.1354 56.1546 12.7435 43.7088C12.7105 42.6199 12.6268 41.5161 12.4353 40.4452C14.8736 40.4899 17.315 40.3169 19.7743 40.2692C23.7983 40.1946 27.8343 40.4452 31.8583 40.469C39.4904 40.5138 47.1046 39.9261 54.7338 39.9321C55.386 39.9321 55.6224 39.2937 55.4459 38.8253C57.9022 34.446 61.0526 30.4694 63.8619 26.3168C65.295 24.2017 66.8447 22.1672 68.2659 20.0402C69.6331 17.9967 70.5636 15.7176 71.877 13.6442C72.0565 13.3608 71.6556 13.0715 71.4222 13.2952C69.7857 14.8703 68.7835 16.9436 67.494 18.7872C65.9622 20.9829 64.2867 23.0771 62.731 25.2548C61.1902 27.4116 59.6943 29.6013 58.1505 31.7581C56.9687 33.4078 55.8169 35.0784 54.7637 36.8146C53.3247 36.5611 51.8497 36.5969 50.3897 36.6028C48.3074 36.6118 46.237 36.5551 44.1547 36.6595C39.9153 36.8683 35.7028 37.453 31.4753 37.823C29.411 38.0019 27.3406 38.1243 25.2673 38.1511C23.0683 38.1809 20.8812 37.993 18.6852 37.9572C16.6598 37.9244 14.6373 38.0407 12.6118 38.0497C11.6873 38.0527 10.6701 37.9333 9.79052 38.2197C11.1428 36.0569 12.6776 34.1178 14.389 32.1818L14.383 32.1907Z" fill="#134E26" stroke="#19522B" stroke-width="1.2"/>
<path d="M41.0335 100.843C41.6438 100.825 42.4037 100.595 42.7059 100.016C42.8974 99.6464 42.8585 99.2586 42.685 98.8946C42.4815 98.465 42.0746 98.1697 41.6797 97.9281C41.4972 97.8177 41.2489 97.8535 41.0993 98.0026C41.0903 98.0116 41.0813 98.0235 41.0724 98.0355C41.0185 97.9967 40.9677 97.9579 40.9078 97.9251C40.7822 97.8595 40.6266 97.7908 40.483 97.8296C40.3633 97.8624 40.2736 97.9668 40.1898 98.0504C39.9863 98.2503 39.8038 98.468 39.6542 98.7097C39.4388 99.0647 39.3042 99.4793 39.3969 99.894C39.5585 100.607 40.3902 100.858 41.0335 100.84V100.843ZM41.8323 99.4972C41.8383 99.4793 41.8383 99.4853 41.8323 99.4972V99.4972ZM40.2706 99.3302C40.2795 99.3063 40.2885 99.2824 40.2975 99.2586C40.3035 99.2437 40.3095 99.2287 40.3184 99.2168C40.4291 98.9841 40.5937 98.7514 40.7403 98.5486C40.8839 98.5814 41.0155 98.647 41.1472 98.7216C41.1472 98.7216 41.1472 98.7216 41.1502 98.7216C41.3237 98.8618 41.4793 99.0169 41.6318 99.178C41.6588 99.2079 41.6857 99.2377 41.7096 99.2675C41.7156 99.2765 41.7246 99.2884 41.7306 99.2973C41.7515 99.3302 41.7725 99.363 41.7904 99.3958C41.7934 99.4018 41.7964 99.4077 41.7994 99.4137C41.8084 99.4376 41.8143 99.4584 41.8203 99.4823C41.8203 99.4942 41.8203 99.5062 41.8203 99.5181C41.8203 99.5271 41.8143 99.536 41.8114 99.542C41.8114 99.545 41.8084 99.5479 41.8054 99.5509C41.7964 99.5658 41.7874 99.5778 41.7784 99.5897C41.7755 99.5957 41.7695 99.5987 41.7665 99.6046C41.7485 99.6255 41.7276 99.6434 41.7066 99.6613C41.6558 99.6971 41.6019 99.7299 41.5451 99.7597C41.5241 99.7717 41.5032 99.7806 41.4793 99.7896C41.4733 99.7896 41.4673 99.7926 41.4643 99.7955C41.3955 99.8224 41.3237 99.8433 41.2519 99.8612C41.192 99.8761 41.1292 99.888 41.0664 99.897C41.0604 99.897 41.0544 99.897 41.0484 99.897C41.0066 99.9 40.9677 99.9029 40.9258 99.9059C40.857 99.9059 40.7881 99.9059 40.7193 99.9029C40.7044 99.9029 40.6894 99.9029 40.6745 99.9C40.6535 99.897 40.6266 99.894 40.6116 99.891C40.5697 99.8821 40.5279 99.8731 40.489 99.8612C40.474 99.8582 40.4471 99.8463 40.4261 99.8403C40.4052 99.8284 40.3813 99.8194 40.3603 99.8075C40.3454 99.7985 40.3334 99.7896 40.3184 99.7806C40.3005 99.7627 40.2795 99.7448 40.2646 99.7269C40.2586 99.721 40.2556 99.712 40.2496 99.7061C40.2466 99.7001 40.2436 99.6911 40.2377 99.6852C40.2317 99.6673 40.2287 99.6434 40.2227 99.6195C40.2227 99.5897 40.2197 99.5629 40.2227 99.533C40.2227 99.5241 40.2227 99.5151 40.2227 99.5062C40.2227 99.4972 40.2227 99.4913 40.2257 99.4853C40.2377 99.4316 40.2526 99.3809 40.2676 99.3302H40.2706Z" fill="#134E26" stroke="#19522B" stroke-width="1.2"/>
<path d="M64.5887 43.7873C63.5026 43.8201 62.4196 43.9365 61.3336 43.9931C60.2086 44.0528 59.1436 43.9484 58.0306 43.838C58.0276 43.838 58.0246 43.838 58.0216 43.838C58.0186 43.8321 58.0156 43.8231 58.0097 43.8142C57.878 43.5695 57.4621 43.6739 57.4771 43.9573C57.6177 46.3946 57.4292 48.8229 57.4382 51.2662C57.4472 53.3454 57.4861 55.4217 57.4472 57.501C57.4203 59.0314 57.3963 60.5647 57.4322 62.0951C57.4502 62.8618 57.2527 64.7084 58.255 64.9858C58.6529 65.0962 58.9371 64.8635 59.0239 64.5592C60.7741 63.9894 62.6829 64.6607 64.4391 64.8725C67.1647 65.2036 69.9201 65.314 72.6636 65.4482C78.2284 65.7197 83.7843 65.7227 89.3461 65.3647C89.7141 65.3408 89.9624 65.1409 90.0881 64.8009C90.1 64.768 90.112 64.7323 90.124 64.6994C90.3304 64.1356 89.7171 63.6643 89.2055 63.7836C89.1456 63.7985 89.0948 63.8045 89.0559 63.8075C89.0858 63.8075 89.1247 63.8075 89.1845 63.8104C89.0708 63.8045 88.9721 63.8254 88.8883 63.8582C83.2457 64.2937 77.6032 64.3295 71.9486 64.1744C69.3068 64.1028 66.6351 64.07 64.0023 63.8015C62.4376 63.6434 60.4061 63.1959 59.0299 64.1684C59.0059 64.073 58.9611 63.9775 58.8922 63.894C59.1555 64.2162 59.0777 64.237 58.991 63.882C58.9401 63.6792 58.9311 63.4704 58.9132 63.2645C58.8533 62.5515 58.8444 61.8356 58.8354 61.1196C58.8145 59.7294 58.8354 58.3393 58.8563 56.9491C58.8863 54.6879 58.7756 52.4206 58.6679 50.1624C58.5841 48.4262 58.8952 46.2514 58.3148 44.5212C59.9962 45.2729 62.285 44.9299 64.0202 44.8702C66.659 44.7747 69.3008 44.9686 71.9456 44.8702C74.7938 44.7628 77.6331 44.6524 80.4843 44.7002C83.4282 44.7479 86.3662 44.8851 89.3102 44.909C89.4568 46.2991 89.4149 47.6923 89.3431 49.0854C89.2474 50.8843 89.2533 52.6772 89.2743 54.479C89.2922 56.1049 89.2025 57.7516 89.397 59.3715C89.4777 60.0427 89.5675 60.7139 89.6064 61.3881C89.6393 61.9519 89.4508 62.4799 89.4747 63.0259C89.4987 63.6076 90.1539 63.8582 90.5817 63.4823C91.4075 62.7633 91.0365 61.054 90.9138 60.1202C90.6984 58.4765 90.6745 56.8507 90.6056 55.195C90.5249 53.2619 90.4381 51.3288 90.4381 49.3957C90.4381 47.8146 90.471 46.1768 89.9804 44.6554C90.2676 44.2586 90.0941 43.5397 89.4538 43.5397C83.8531 43.5576 78.2853 43.3547 72.6846 43.6501C69.98 43.7933 67.2873 43.7038 64.5857 43.7843L64.5887 43.7873Z" fill="#134E26" stroke="#19522B" stroke-width="1.2"/>
<path d="M89.0594 63.8086C88.9624 63.8086 88.9775 63.8176 89.0594 63.8086V63.8086Z" fill="#134E26" stroke="#19522B" stroke-width="1.2"/>
<path d="M43.7699 44.6225C42.277 44.6345 40.7841 44.7896 39.2971 44.9089C37.2926 45.07 35.2641 45.0342 33.2536 45.1416C30.5131 45.2848 27.623 44.8373 24.9333 45.4877C24.8137 45.5175 24.7209 45.6607 24.7658 45.78C24.8137 45.9083 24.8585 46.0187 24.9124 46.144C24.9513 46.2305 25.065 46.1887 25.0919 46.1201C25.2804 45.6428 27.6589 45.9769 28.1855 46.0067C29.5049 46.0813 30.8183 46.2245 32.1407 46.2424C34.2738 46.2693 36.4399 46.2603 38.5701 46.2096C39.8566 46.1768 41.1431 46.0604 42.4296 46.0008C43.0429 45.9709 43.6562 45.956 44.2695 45.9709C44.47 45.9769 44.6704 45.9829 44.8679 46.0157C44.8918 46.0187 44.9248 46.0276 44.9607 46.0366C44.0152 48.793 44.0631 51.9164 43.9943 54.7892C43.9315 57.4502 43.5874 60.1291 43.9614 62.7693C43.3361 62.7215 42.645 62.7961 42.3308 62.8051C40.3443 62.8617 38.3876 63.2883 36.395 63.3331C34.3696 63.3778 32.3411 63.1899 30.3276 62.987C29.1309 62.8677 27.623 62.4918 26.3156 62.6111C26.6267 61.7759 26.3634 60.5677 26.3006 59.7383C26.1929 58.3601 26.1061 56.9789 25.9595 55.6036C25.786 53.9957 25.5287 52.3848 25.4868 50.7649C25.4539 49.5 25.6484 48.08 25.053 46.9136C24.9543 46.7197 24.6371 46.8122 24.6461 47.024C24.688 48.3873 24.5773 49.7148 24.5384 51.0752C24.4935 52.5817 24.6701 54.1031 24.7778 55.6036C24.8735 56.8924 24.8974 58.1841 24.9543 59.4758C24.9812 60.0814 25.0021 60.684 25.0141 61.2896C25.0201 61.7401 24.9244 62.2233 25.044 62.6619C25.071 62.7603 25.1248 62.8409 25.1876 62.9095C24.9842 63.1064 25.056 63.4912 25.4031 63.4942C26.9139 63.5031 28.341 63.8074 29.831 64.0311C31.5303 64.2877 33.2536 64.4667 34.9679 64.5711C38.0794 64.759 41.158 64.0759 44.2576 64.2728C44.5927 64.4249 45.0085 64.2489 45.1372 63.882C45.3795 63.7269 45.556 63.4494 45.4992 63.0974C45.0654 60.338 45.3077 57.5696 45.2927 54.7862C45.2778 51.8568 45.4034 48.984 45.6398 46.0634C45.8103 46.0127 45.9569 45.8934 45.9869 45.7024C46.1664 44.5151 44.5448 44.6136 43.7729 44.6196L43.7699 44.6225Z" fill="#134E26" stroke="#19522B" stroke-width="1.2"/>
<path d="M90.899 84.2265C91.0396 83.9521 90.8631 83.5643 90.5579 83.442C90.4682 83.3883 90.3605 83.3733 90.2647 83.4002C87.8802 83.3017 85.5167 82.9557 83.1143 82.9885C80.3408 83.0273 77.6093 83.442 74.8448 83.6001C72.0235 83.7641 69.1963 83.3525 66.372 83.3316C64.0054 83.3137 61.4743 83.1914 59.2035 83.9759C59.2005 83.97 59.1976 83.964 59.1946 83.958C59.0749 83.7194 58.665 83.8268 58.683 84.0953C58.7937 85.6764 58.5962 87.2008 58.5723 88.7789C58.5423 90.7478 58.5872 92.7197 58.5603 94.6886C58.5364 96.3592 58.4975 98.0268 58.4316 99.6973C58.3868 100.882 58.1295 102.707 58.7787 103.766C59.1437 104.36 59.9814 104.077 60.0293 103.429C60.0412 103.271 60.0353 103.113 60.0203 102.952C60.1878 103 60.3494 103.05 60.499 103.071C61.2769 103.173 62.0518 103.286 62.8266 103.394C64.0503 103.564 65.265 103.65 66.4976 103.695C69.3099 103.796 72.1163 104.035 74.9316 104.121C77.6512 104.205 80.3618 104.056 83.0754 103.853C84.4456 103.751 85.8129 103.638 87.1831 103.528C88.0238 103.459 89.6723 102.982 90.3964 103.552C91.1294 104.127 92.1227 103.212 91.4435 102.507C91.3687 102.43 91.2879 102.364 91.2072 102.302C91.255 102.206 91.282 102.093 91.279 101.965C91.258 98.9933 91.2879 96.0131 91.2072 93.0448C91.1653 91.4279 91.0965 89.8111 91.1354 88.1942C91.1683 86.9144 91.2281 85.5004 90.893 84.2295L90.899 84.2265ZM88.8646 101.869C87.4345 102.009 86.0044 102.161 84.5713 102.296C81.4867 102.579 78.4021 102.854 75.3026 102.851C72.2449 102.851 69.1933 102.66 66.1356 102.654C64.7205 102.654 63.3143 102.555 61.8992 102.484C61.3547 102.457 60.5828 102.296 59.9515 102.394C59.9186 102.173 59.8827 101.95 59.8707 101.735C59.8258 100.959 59.8468 100.178 59.8647 99.402C59.9066 97.7046 59.9156 96.0161 59.8827 94.3216C59.8438 92.3736 59.772 90.4286 59.6553 88.4835C59.5745 87.1441 59.8288 85.6525 59.3681 84.3608C61.8244 84.1967 64.2448 84.2176 66.71 84.3399C69.5403 84.4801 72.3706 84.9037 75.2068 84.7605C77.9713 84.6203 80.6969 84.2414 83.4703 84.2235C84.8316 84.2146 86.1958 84.2862 87.5422 84.4712C88.3769 84.5845 89.2655 84.7904 90.0942 84.6263C90.163 87.4275 89.9057 90.2406 89.8758 93.0448C89.8429 95.9803 89.7591 98.9068 89.7591 101.839C89.4629 101.827 89.1637 101.839 88.8675 101.872L88.8646 101.869Z" fill="#134E26" stroke="#19522B" stroke-width="1.2"/>
<path d="M71.4559 15.62C69.954 17.0341 69.1731 18.9493 68.3234 20.7839C67.3241 22.9378 65.9629 24.8441 64.5088 26.7115C63.0369 28.5999 61.6965 30.5748 60.2425 32.475C58.6478 34.5543 57.0981 36.6575 55.9522 39.0231C55.6859 39.572 56.3411 40.121 56.8109 39.6824C57.6845 38.865 58.1392 37.6777 58.7466 36.6694C59.3838 35.6074 60.1527 34.6229 60.9067 33.6415C62.3996 31.6934 63.7579 29.6529 65.2448 27.696C66.657 25.8375 68.0272 23.973 68.9726 21.8281C69.8373 19.8651 70.4835 17.7142 71.8807 16.0407C72.123 15.7513 71.7431 15.3575 71.4619 15.623L71.4559 15.62Z" fill="#134E26" stroke="#19522B" stroke-width="1.2"/>
<path d="M68.9333 28.4766C69.8399 28.7063 70.8391 28.6258 71.7696 28.6556C72.8496 28.6914 73.9716 28.7004 75.0486 28.8614C74.9798 30.3709 74.9918 31.8864 75.0008 33.3989C73.2625 33.4138 71.4674 33.5122 69.7411 33.7151C69.9117 32.8201 69.786 31.7104 69.7681 30.8482C69.7561 30.2635 69.786 28.9778 69.1487 28.6795C69.0859 28.6496 69.0231 28.6735 68.9992 28.7391C68.9004 29.0225 68.9992 29.2791 69.0201 29.5774C69.053 30.0935 69.0381 30.6036 69.0021 31.1197C68.9393 32.0147 68.5743 33.1393 68.7987 34.0224C68.7897 34.1834 68.9124 34.3744 69.0979 34.4012C71.1383 34.6727 73.3224 34.5802 75.3957 34.5384C75.6081 34.619 75.8654 34.5951 76.0509 34.4639C76.3082 34.3266 76.389 33.9985 76.2932 33.7419C76.2753 31.958 76.1407 30.18 76.1975 28.3961C76.2065 28.0977 75.9342 27.8233 75.632 27.8322C74.4622 27.874 73.2954 27.8322 72.1256 27.8919C71.0904 27.9426 69.9236 27.9158 68.9333 28.2499C68.8256 28.2857 68.8137 28.4498 68.9333 28.4796V28.4766Z" fill="#134E26" stroke="#19522B" stroke-width="1.2"/>
</g>
<defs>
<clipPath id="clip0_1233_353">
<rect width="152" height="132" fill="white"/>
</clipPath>
</defs>
</svg>
