<svg width="192" height="135" viewBox="0 0 192 135" fill="none" xmlns="http://www.w3.org/2000/svg">
<g clip-path="url(#clip0_1233_1275)">
<path d="M9.32048 33.6361C7.6708 49.8972 8.28943 66.5149 8.12072 82.8385C7.97699 96.6532 5.61496 111.663 8.93306 125.215C9.69541 128.331 14.432 127.011 13.7196 123.895C12.1949 117.238 12.2137 110.537 12.3824 103.748C12.5761 96.1402 12.4011 88.5508 12.2324 80.9427C11.8762 65.2323 11.995 49.2778 10.414 33.6299C10.3453 32.9229 9.38922 32.9229 9.31423 33.6299L9.32048 33.6361Z" fill="#D8E4C9"/>
<path d="M177.169 44.4655C174.951 53.0559 172.583 61.6714 170.458 70.2993C168.296 79.0649 165.328 88.1621 164.578 97.1717C164.378 99.568 168.165 100.018 168.715 97.7348C170.933 88.5062 172.264 78.9335 174.07 69.6048C175.632 61.5525 179.369 52.7744 178.082 44.4655C178.007 43.9838 177.282 44.0401 177.169 44.4655Z" fill="#D8E4C9"/>
<path d="M170.827 48.6071C171.295 52.2673 169.621 56.7033 169.177 60.426C168.602 65.2248 168.34 70.0675 168.514 74.8976C168.583 76.7809 171.27 76.7433 171.408 74.8976C171.776 70.08 171.726 65.2561 171.876 60.426C171.995 56.6469 173.389 52.0546 171.989 48.4445C171.77 47.8689 170.733 47.8876 170.82 48.6009L170.827 48.6071Z" fill="#D8E4C9"/>
<path d="M126.791 14.0648C133.489 15.2223 140.932 15.2598 147.718 14.997C149.586 14.9282 149.586 12.169 147.718 12.1002C140.932 11.8374 133.489 11.8749 126.791 13.0324C126.278 13.12 126.278 13.9709 126.791 14.0648Z" fill="#D8E4C9"/>
<path d="M127.325 19.7333C129.012 21.5728 132.093 21.3788 134.368 21.4539C137.848 21.5728 141.322 21.2474 144.797 21.3475C146.834 21.4038 146.84 18.1754 144.797 18.1816C139.054 18.1879 133.418 19.3516 127.656 18.9262C127.219 18.8949 127.063 19.4518 127.319 19.7333H127.325Z" fill="#D8E4C9"/>
<path d="M15.5562 80.5162C17.2246 90.214 16.9184 100.218 17.1683 110.029C17.2183 112.012 16.3185 122.661 20.424 121.791C21.3425 121.597 21.7237 120.24 20.9988 119.62C21.705 120.227 21.1113 119.132 20.9801 118.588C20.6239 117.124 20.5239 115.585 20.374 114.089C20.0803 111.186 19.9116 108.277 19.7241 105.368C19.1929 96.9649 18.993 88.3495 16.5872 80.2346C16.3872 79.5652 15.4437 79.853 15.5562 80.5162Z" fill="#D8E4C9"/>
<path d="M23.4016 95.1698C24.6514 101.245 23.7391 107.789 23.7641 113.965C23.7765 117.512 23.5578 122.724 26.8947 124.908C28.3507 125.859 29.9628 124.026 29.1817 122.618C24.5139 114.209 27.8008 103.723 24.7764 94.7944C24.4827 93.9185 23.2142 94.2688 23.4016 95.1761V95.1698Z" fill="#D8E4C9"/>
<path d="M32.4684 108.798C33.1933 113.728 32.6746 118.727 34.2493 123.513C34.8805 125.428 37.7487 124.658 37.2738 122.681C36.1177 117.901 35.8615 112.958 34.6805 108.185C34.3181 106.708 32.256 107.371 32.4684 108.798Z" fill="#D8E4C9"/>
<path d="M9.86791 126.203C32.4447 127.011 55.0466 127.955 77.6359 128.731C89.2399 129.132 100.85 129.1 112.46 129.1C117.972 129.1 123.477 129.1 128.988 129.113C134.269 129.113 139.836 128.024 144.998 129.413C147.497 130.083 148.553 126.216 146.06 125.547C141.498 124.32 136.862 124.865 132.207 125.09C126.264 125.378 120.246 125.121 114.298 125.127C102.075 125.134 89.8523 125.165 77.6359 124.802C65.0509 124.427 52.4783 123.951 39.8933 123.645C33.8945 123.501 27.9206 123.407 21.9156 123.607C18.31 123.726 12.4861 122.938 9.48048 125.271C9.07431 125.584 9.44299 126.191 9.86791 126.21V126.203Z" fill="#D8E4C9"/>
<path d="M189.453 30.739C183.555 46.9312 179.874 64.0307 175.912 80.7797C173.906 89.2638 172.475 97.898 170.776 106.445C169.945 110.624 169.157 114.816 168.195 118.964C167.226 123.15 165.864 127.329 165.883 131.659C165.896 134.675 170.251 135.238 171.082 132.366C175.794 115.98 178.018 98.9991 181.655 82.3689C183.536 73.766 185.704 65.2257 187.248 56.5539C188.76 48.0699 191.528 39.5921 190.622 30.9016C190.553 30.2322 189.691 30.0945 189.453 30.7452V30.739Z" fill="#17512A"/>
<path d="M166.562 33.5465C170.224 34.2034 173.917 34.3411 177.622 34.5163C181.784 34.7102 186.233 35.3234 190.332 34.3724C193.013 33.753 192.207 29.999 189.714 29.8175C185.764 29.5297 181.571 30.2367 177.622 30.537C173.829 30.8248 170.124 31.1815 166.562 32.6017C166.162 32.7581 166.031 33.4526 166.562 33.5465Z" fill="#17512A"/>
<path d="M2.27457 20.5024C0.593646 38.2463 0.456172 56.1967 0.287455 74.0031C0.206221 82.9189 0.181226 91.8346 0.168729 100.757C0.156231 109.835 -0.474896 119.145 0.787358 128.155C1.11229 130.482 5.13026 130.482 5.4552 128.155C6.62997 119.764 6.08632 111.124 6.07382 102.671C6.06133 93.7554 6.05508 84.8397 5.9676 75.9177C5.79263 57.473 5.70515 38.8845 3.96799 20.5087C3.86176 19.4138 2.37455 19.4138 2.27457 20.5087V20.5024Z" fill="#17512A"/>
<path d="M164.628 2.80846C161.742 12.4562 162.473 23.3804 162.329 33.3597C162.173 44.0962 162.216 54.8389 162.191 65.5815C162.166 76.3242 162.266 87.0607 162.304 97.8034C162.341 108.077 161.823 118.563 163.229 128.743C163.535 130.951 167.365 130.951 167.665 128.743C169.071 118.557 168.521 108.083 168.59 97.8034C168.659 87.0607 168.709 76.3242 168.703 65.5815C168.703 54.8451 168.715 44.0962 168.565 33.3597C168.422 23.3804 169.153 12.4562 166.266 2.80846C166.022 2.00135 164.872 2.00135 164.628 2.80846Z" fill="#17512A"/>
<path d="M2.1906 130.583C33.7094 134.499 65.6032 133.999 97.3345 134.249C120.136 134.424 142.938 134.637 165.74 135.006C169.364 135.062 169.364 129.425 165.74 129.375C143.332 129.087 120.93 128.943 98.5218 128.831C66.4406 128.668 34.2218 127.611 2.1906 129.425C1.42825 129.469 1.46575 130.495 2.1906 130.583Z" fill="#17512A"/>
<path d="M2.09971 20.7341C3.33072 22.6612 4.96165 22.5736 7.12373 22.7738C12.6664 23.2869 18.2341 23.1242 23.7955 23.218C28.982 23.3056 34.1372 23.8562 39.3112 24.1628C44.6664 24.4819 50.0903 24.0314 55.4455 23.8625C65.9497 23.5246 76.4539 23.4683 86.9581 23.2869C92.6508 23.193 98.3434 23.1179 104.042 23.1993C108.723 23.2681 113.628 24.1315 118.208 22.9052C121.733 21.9604 120.114 16.2731 116.715 17.4744C112.397 19.001 106.692 17.8123 102.149 17.7622C97.0874 17.7059 92.0196 17.8248 86.9644 17.9249C77.0663 18.1314 67.1745 18.269 57.2827 18.6194C47.822 18.9573 38.5426 19.0574 29.0882 18.6757C24.2454 18.4817 19.3838 18.7883 14.541 18.9885C12.0665 19.0886 9.59824 19.3014 7.12997 19.4515C5.63027 19.5454 4.14931 20.2586 2.62461 20.0522C2.26218 20.0021 1.86225 20.3462 2.10596 20.7279L2.09971 20.7341Z" fill="#17512A"/>
<path d="M115.988 4.36577C115.988 4.36577 116.207 3.42727 115.682 4.32823C115.451 4.72239 115.419 5.29175 115.332 5.73597C115.044 7.20003 114.994 8.78297 114.888 10.2721C114.663 13.3566 113.882 16.998 114.582 20.0575C115.444 23.8177 121.243 22.2223 120.35 18.4683C119.606 15.34 119.362 12.1741 118.962 8.98318C118.706 6.95602 118.506 4.45336 116.45 3.58368C115.925 3.35844 115.45 4.08422 115.988 4.37828V4.36577Z" fill="#17512A"/>
<path d="M116.402 4.1286C124.376 6.03688 132.712 5.51132 140.854 5.70528C148.402 5.88672 156.07 4.86689 163.525 6.11196C166.168 6.54993 168.261 2.82721 165.48 1.46326C159.294 -1.58373 151.214 1.08786 144.591 1.03781C135.268 0.962729 125.626 1.86995 116.396 3.1901C115.909 3.25892 115.953 4.02849 116.396 4.13486L116.402 4.1286Z" fill="#17512A"/>
<path d="M93.5 66.25H78.5C77.6792 66.25 76.8665 66.4117 76.1082 66.7258C75.3499 67.0398 74.6609 67.5002 74.0806 68.0806C72.9085 69.2527 72.25 70.8424 72.25 72.5V82.5C72.25 84.1576 72.9085 85.7473 74.0806 86.9194C74.6609 87.4998 75.3499 87.9602 76.1082 88.2742C76.8665 88.5883 77.6792 88.75 78.5 88.75H93.5C94.3208 88.75 95.1335 88.5883 95.8918 88.2742C96.6501 87.9602 97.3391 87.4998 97.9194 86.9194C98.4998 86.3391 98.9602 85.6501 99.2742 84.8918C99.5883 84.1335 99.75 83.3208 99.75 82.5V72.5C99.75 71.6792 99.5883 70.8665 99.2742 70.1082C98.9602 69.3499 98.4998 68.6609 97.9194 68.0806C97.3391 67.5002 96.6501 67.0398 95.8918 66.7258C95.1335 66.4117 94.3208 66.25 93.5 66.25ZM89.3875 80.8875L86.8875 83.3875C86.7713 83.5047 86.633 83.5977 86.4807 83.6611C86.3284 83.7246 86.165 83.7572 86 83.7572C85.835 83.7572 85.6716 83.7246 85.5193 83.6611C85.367 83.5977 85.2287 83.5047 85.1125 83.3875L82.6125 80.8875C82.3771 80.6521 82.2449 80.3329 82.2449 80C82.2449 79.6671 82.3771 79.3479 82.6125 79.1125C82.8479 78.8771 83.1671 78.7449 83.5 78.7449C83.8329 78.7449 84.1521 78.8771 84.3875 79.1125L84.75 79.4875V72.5C84.75 72.1685 84.8817 71.8505 85.1161 71.6161C85.3505 71.3817 85.6685 71.25 86 71.25C86.3315 71.25 86.6495 71.3817 86.8839 71.6161C87.1183 71.8505 87.25 72.1685 87.25 72.5V79.4875L87.6125 79.1125C87.8479 78.8771 88.1671 78.7449 88.5 78.7449C88.8329 78.7449 89.1521 78.8771 89.3875 79.1125C89.6229 79.3479 89.7551 79.6671 89.7551 80C89.7551 80.3329 89.6229 80.6521 89.3875 80.8875ZM93.5 93.75H78.5C78.1685 93.75 77.8505 93.6183 77.6161 93.3839C77.3817 93.1495 77.25 92.8315 77.25 92.5C77.25 92.1685 77.3817 91.8505 77.6161 91.6161C77.8505 91.3817 78.1685 91.25 78.5 91.25H93.5C93.8315 91.25 94.1495 91.3817 94.3839 91.6161C94.6183 91.8505 94.75 92.1685 94.75 92.5C94.75 92.8315 94.6183 93.1495 94.3839 93.3839C94.1495 93.6183 93.8315 93.75 93.5 93.75Z" fill="#17512A"/>
</g>
<defs>
<clipPath id="clip0_1233_1275">
<rect width="192" height="135" fill="white"/>
</clipPath>
</defs>
</svg>
